<svg xmlns="http://www.w3.org/2000/svg" width="1736" height="616"><g fill="#8C2828" fill-rule="nonzero"><path d="M459.554 107.643c.211.184.77-.003 1.678-.56.742-.43 1.628-1.029 2.656-1.797.822-.64 1.377-1.107 1.663-1.404l4.421-4.578 3.942 3.807 2.825-2.925a4.412 4.412 0 0 1-.706-2.832 4.424 4.424 0 0 1 1.172-2.677l1.23-1.209a3.891 3.891 0 0 1 2.57-1.295 4.566 4.566 0 0 1 2.856.638l2.886-2.989-10.363-9.945-2.887 2.925c.599.865.855 1.809.769 2.831-.087 1.023-.498 1.915-1.235 2.678l-1.167 1.209c-.737.762-1.615 1.195-2.634 1.296-1.019.1-1.95-.112-2.793-.64l-2.885 2.99 3.942 3.806-4.422 4.515c-.287.297-.735.888-1.344 1.774-.733 1.013-1.3 1.898-1.704 2.655-.525.968-.682 1.544-.47 1.727ZM524.353 341.33a7.235 7.235 0 0 0 3.531-.061 6.49 6.49 0 0 0 3.063-1.804l2.394-2.48a6.723 6.723 0 0 0 1.727-3.124 6.886 6.886 0 0 0-.062-3.562 6.723 6.723 0 0 0-1.835-3.062 6.723 6.723 0 0 0-3.124-1.727 6.886 6.886 0 0 0-3.562.062 6.723 6.723 0 0 0-3.062 1.835l-2.395 2.48a6.49 6.49 0 0 0-1.696 3.124 7.235 7.235 0 0 0 .062 3.53l6.508-6.74c.655-.678 1.462-1.025 2.42-1.042.958-.016 1.777.303 2.455.958.678.655 1.025 1.461 1.042 2.42.017.957-.302 1.776-.957 2.454l-6.509 6.74Zm-6.717 3.712c.479-.03.882-.192 1.21-.49l8.412-8.71c.328-.34.487-.749.479-1.228a1.61 1.61 0 0 0-.553-1.21 1.652 1.652 0 0 0-1.258-.446c-.478.03-.882.192-1.21.49l-8.35 8.71c-.327.339-.486.748-.478 1.227.008.479.182.882.521 1.21.34.327.748.476 1.227.447Zm-4.058 7.478c1.193.271 2.37.25 3.531-.061 1.161-.312 2.192-.935 3.093-1.867l2.395-2.48a6.49 6.49 0 0 0 1.695-3.124 6.767 6.767 0 0 0-.124-3.53l-6.508 6.74c-.654.72-1.45 1.088-2.388 1.105-.937.016-1.755-.313-2.455-.989-.7-.675-1.057-1.492-1.074-2.45-.017-.958.323-1.777 1.02-2.456l6.508-6.74a7.361 7.361 0 0 0-3.562.063 6.49 6.49 0 0 0-3.031 1.803l-2.457 2.48a6.723 6.723 0 0 0-1.727 3.125 6.886 6.886 0 0 0 .062 3.562 6.805 6.805 0 0 0 1.867 3.093c.911.88 1.963 1.455 3.155 1.726ZM370.862 260.33l-.06-3.436c1.078-.31 2.07-.765 2.977-1.365l2.543 2.456 3.315-3.433-2.542-2.394c.567-.968.986-2.017 1.258-3.147l3.5-.061-.083-4.75-3.5.062a10.316 10.316 0 0 0-1.303-3.04l2.393-2.543-3.433-3.315-2.457 2.48a9.54 9.54 0 0 0-3.022-1.197l-.06-3.5-4.812.085.06 3.499c-1.16.312-2.195.768-3.1 1.367l-2.482-2.457-3.315 3.433 2.543 2.456a9.467 9.467 0 0 0-1.259 3.085l-3.437.06.083 4.75 3.437-.06c.31 1.077.766 2.09 1.366 3.039l-2.456 2.543 3.433 3.315 2.456-2.543c.969.567 1.997.986 3.085 1.259l.06 3.437 4.812-.084Zm-2.59-8.705c-1.333.023-2.477-.426-3.43-1.347-.954-.92-1.442-2.048-1.466-3.381-.023-1.333.426-2.477 1.347-3.43.92-.954 2.048-1.442 3.381-1.466 1.333-.023 2.477.426 3.43 1.347.954.92 1.443 2.048 1.466 3.381.023 1.333-.426 2.477-1.347 3.43-.92.954-2.048 1.443-3.381 1.466ZM257.05 103.415l15.718-16.277-.195-11.186-11.186.196-15.718 16.276 11.381 10.99Zm9.255-17.727a3.069 3.069 0 0 1-2.266-.898c-.636-.614-.962-1.369-.978-2.264-.015-.896.284-1.662.898-2.298.614-.635 1.369-.961 2.265-.977.895-.015 1.661.284 2.297.898.636.614.961 1.369.977 2.264.016.896-.284 1.662-.898 2.297-.614.636-1.379.962-2.295.978ZM1054.413 64.498c2.894-1.343 5.885-3.104 8.972-5.283 3.17-2.264 5.138-4.07 5.906-5.416.526-.926.506-2.072-.06-3.437-.479-1.2-1.313-2.394-2.5-3.582.576-.427 1.22-.48 1.935-.159.42.16 1.052.586 1.898 1.28.676.571 1.204.937 1.581 1.097.547.282 1.048.305 1.502.068.454-.237.8-.691 1.039-1.362.238-.671.228-1.234-.03-1.687-.303-.662-.957-1.13-1.962-1.404-.544-.157-1.464-.287-2.757-.39l-.751-.049a9.062 9.062 0 0 0 2.728-1.298c1.153-.77 1.743-1.572 1.77-2.406.029-.75-.338-1.452-1.1-2.106-.76-.653-1.505-.932-2.233-.836-.727.096-1.354.607-1.88 1.533-.323.547-.683 1.429-1.079 2.644l-.238.692c-.208-2.372-.756-3.925-1.644-4.66-.55-.448-1.105-.647-1.666-.596-.562.052-1.037.31-1.425.775-.387.466-.597.99-.629 1.574.007.375.18.789.522 1.241.213.246.615.615 1.207 1.104.762.654 1.25 1.166 1.465 1.537.344.62.355 1.265.034 1.938-1.31-.978-2.592-1.643-3.848-1.996-1.382-.35-2.505-.269-3.372.246-.74.513-1.579 1.445-2.514 2.795 1.824 1.843 3.495 3.252 5.012 4.225a.663.663 0 0 1 .29.464.809.809 0 0 1-.116.533.67.67 0 0 1-.432.32.625.625 0 0 1-.533-.115c-1.518-.974-3.21-2.382-5.075-4.225a42.315 42.315 0 0 0-2.062 3.6c1.695 1.637 3.197 2.902 4.504 3.796.168.08.275.225.32.432.045.208.017.385-.084.533a.722.722 0 0 1-.464.29.852.852 0 0 1-.564-.053c-1.265-.853-2.724-2.078-4.377-3.674-1.489 3.026-2.566 5.774-3.231 8.245-.703 2.72-.716 4.388-.038 5.001.761.654 2.754.244 5.98-1.23ZM7.413 193.498c2.894-1.343 5.885-3.104 8.972-5.283 3.17-2.264 5.138-4.07 5.906-5.416.526-.926.506-2.072-.06-3.437-.479-1.2-1.312-2.394-2.5-3.582.576-.427 1.22-.48 1.935-.159.42.16 1.052.586 1.898 1.28.676.571 1.204.937 1.581 1.097.547.282 1.048.305 1.502.068.454-.237.8-.691 1.039-1.362.238-.671.228-1.234-.03-1.687-.303-.662-.957-1.13-1.962-1.404-.544-.157-1.464-.287-2.757-.39l-.751-.049a9.062 9.062 0 0 0 2.728-1.298c1.153-.77 1.743-1.572 1.77-2.406.029-.75-.338-1.452-1.1-2.106-.76-.653-1.505-.932-2.233-.836-.727.096-1.354.607-1.88 1.533-.323.547-.683 1.429-1.079 2.644l-.238.692c-.208-2.372-.756-3.925-1.644-4.66-.55-.448-1.105-.647-1.666-.596-.562.052-1.037.31-1.425.775-.387.466-.597.99-.629 1.574.007.375.18.789.522 1.241.213.246.615.615 1.207 1.104.762.654 1.25 1.166 1.465 1.537.344.62.355 1.265.034 1.938-1.31-.978-2.592-1.643-3.848-1.996-1.382-.35-2.505-.269-3.372.246-.74.513-1.579 1.445-2.514 2.795 1.824 1.843 3.495 3.252 5.012 4.225a.663.663 0 0 1 .29.464.809.809 0 0 1-.116.533.67.67 0 0 1-.432.32.625.625 0 0 1-.533-.115c-1.518-.974-3.21-2.382-5.075-4.225a42.317 42.317 0 0 0-2.062 3.6c1.695 1.637 3.197 2.902 4.504 3.796.168.08.275.225.32.432.045.208.017.385-.084.533a.722.722 0 0 1-.464.29.852.852 0 0 1-.564-.053c-1.265-.853-2.724-2.078-4.377-3.674-1.489 3.026-2.566 5.774-3.231 8.245-.703 2.72-.716 4.388-.038 5.001.761.654 2.754.244 5.98-1.23ZM1363.65 239.598c2.87-.3 5.499-1.305 7.886-3.014 1.685-1.363 2.933-2.676 3.744-3.94.163-.212.376-.538.64-.98.263-.443.476-.77.639-.98l-.512-.68c-.342-.493-.62-.843-.831-1.047-1.75-2.387-3.98-4.15-6.687-5.29-2.708-1.141-5.497-1.54-8.366-1.199a16.23 16.23 0 0 0-8.008 3.203c-1.767 1.406-3.34 3.246-4.717 5.52.217.455.665 1.093 1.346 1.915 1.75 2.386 3.97 4.16 6.657 5.322 2.602 1.08 5.339 1.47 8.209 1.17Zm-.092-10.626a1.958 1.958 0 0 1-1.447-.568 1.958 1.958 0 0 1-.62-1.427c-.009-.562.19-1.056.6-1.48.368-.38.834-.577 1.396-.586.563-.01 1.045.18 1.448.568.403.389.609.865.619 1.427.01.563-.18 1.045-.569 1.448a1.958 1.958 0 0 1-1.427.618Zm-1.44 8.84c-2.457.042-4.79-.51-6.998-1.66a14.732 14.732 0 0 1-5.429-4.812c1.91-2.784 4.377-4.702 7.4-5.755-1.019 1.268-1.514 2.714-1.486 4.339.02 1.166.31 2.255.87 3.267a6.041 6.041 0 0 0 2.322 2.366c.99.566 2.078.838 3.265.818a6.778 6.778 0 0 0 3.267-.87 6.324 6.324 0 0 0 2.366-2.323c.587-.99.87-2.088.849-3.296l-.004-.188a5.959 5.959 0 0 0-.509-2.304 6.701 6.701 0 0 0-1.316-1.977c3.059.947 5.591 2.778 7.597 5.493a14.732 14.732 0 0 1-5.257 4.999 14.392 14.392 0 0 1-6.936 1.902ZM1351.222 425.67c.459-.007.841-.17 1.148-.488.307-.318.457-.706.449-1.164l-.195-11.186a1.571 1.571 0 0 0-.49-1.148 1.571 1.571 0 0 0-1.164-.448l-1.624.028-.083-4.75c-.031-1.79-.683-3.3-1.955-4.528-1.271-1.228-2.782-1.827-4.532-1.797-1.75.031-3.238.682-4.466 1.954-1.228 1.271-1.827 2.803-1.795 4.594l3.187-.055c-.016-.917.283-1.693.897-2.329a3.069 3.069 0 0 1 2.233-.977 3.069 3.069 0 0 1 2.266.899c.636.614.962 1.379.978 2.295l.083 4.75-11.186.195c-.458.008-.841.17-1.148.489a1.571 1.571 0 0 0-.449 1.164l.196 11.186c.008.458.17.84.489 1.148.317.307.706.456 1.164.448l15.997-.28Zm-6.43-3.075-3.249.057.565-3.448a2.467 2.467 0 0 1-1.016-.889 2.355 2.355 0 0 1-.397-1.274c-.011-.667.208-1.233.658-1.7.45-.466 1.009-.705 1.675-.716.667-.012 1.233.207 1.7.658.466.45.705 1.008.716 1.675.008.458-.11.887-.352 1.288-.243.4-.571.708-.984.923l.685 3.426ZM1228.658 140.81c2.603-.045 4.998-.733 7.184-2.063a14.417 14.417 0 0 0 5.157-5.34c1.253-2.231 1.857-4.648 1.811-7.252-.045-2.604-.733-4.999-2.063-7.184a14.417 14.417 0 0 0-5.34-5.158c-2.231-1.253-4.659-1.856-7.283-1.81-2.583.045-4.968.732-7.153 2.062a14.417 14.417 0 0 0-5.158 5.341c-1.253 2.23-1.856 4.648-1.81 7.252.045 2.603.732 4.998 2.062 7.184a14.417 14.417 0 0 0 5.341 5.157c2.23 1.253 4.648 1.857 7.252 1.811Zm.71-21.953-.087-5c1.594.598 2.8 1.66 3.619 3.188a8.97 8.97 0 0 1 .842 1.673l-4.374.14Zm-2.187.038-4.437.078c.24-.63.52-1.218.845-1.765.764-1.556 1.933-2.66 3.505-3.312l.087 5Zm11.249-.196-2.813.049a13.198 13.198 0 0 0-2.258-4.024 12.789 12.789 0 0 1 5.07 3.975Zm-17.498.305-2.812.05a12.789 12.789 0 0 1 4.928-4.15 13.198 13.198 0 0 0-2.116 4.1Zm14.36 6.188-5.811.102-.076-4.312 5.125-.09c.4 1.41.654 2.843.762 4.3Zm-7.998.14-5.812.101c.058-1.46.262-2.9.612-4.324l5.124-.09.076 4.313Zm-7.5.13-4.061.072c.14-1.503.511-2.947 1.112-4.333l3.437-.06a21.455 21.455 0 0 0-.487 4.322Zm21.185-.37-4 .008a18.712 18.712 0 0 0-.7-4.238l3.5-.061a12.944 12.944 0 0 1 1.2 4.292Zm-6.262 6.549-5.124.09-.075-4.313 5.749-.1c-.016 1.459-.2 2.9-.55 4.323Zm5.25-.092-3.5.061c.309-1.422.492-2.842.55-4.26v-.063l4.062-.07a12.112 12.112 0 0 1-1.112 4.332Zm-19.496.403-3.437.06a14.127 14.127 0 0 1-1.263-4.291l4.062-.071c.067 1.457.28 2.891.638 4.302Zm6.936-.121-5.124.09c-.4-1.41-.654-2.844-.763-4.3l5.812-.102.075 4.312Zm.122 6.999c-1.593-.556-2.799-1.598-3.617-3.125a8.385 8.385 0 0 1-.843-1.736l4.374-.076.086 4.937Zm2.188.024-.086-4.937 4.375-.076a8.386 8.386 0 0 1-.782 1.764c-.765 1.555-1.934 2.638-3.507 3.249Zm-6.263-.703a12.023 12.023 0 0 1-4.819-3.703l-.206-.273 2.767-.048a14.22 14.22 0 0 0 2.258 4.024Zm10.249-.18a15.533 15.533 0 0 0 2.178-4.1l2.812-.05a13.006 13.006 0 0 1-4.929 4.087l-.061.064ZM1172.182 333.256l-.145-8.312 7.999-.14.145 8.313 4-.07-.364-20.81-4 .07.147 8.374-7.999.14-.146-8.375-4 .07.364 20.81zM77.41 54.678c1.333-.023 2.46-.512 3.381-1.465.921-.954 1.37-2.098 1.347-3.43-.024-1.334-.512-2.46-1.466-3.382-.953-.92-2.097-1.37-3.43-1.347-1.416.025-2.574.587-3.471 1.686l-7.126-3.563a3.54 3.54 0 0 0 .168-1.128 3.54 3.54 0 0 0-.207-1.122l6.997-3.81c.977 1.066 2.143 1.588 3.496 1.564 1.354-.024 2.492-.512 3.413-1.466.92-.954 1.37-2.097 1.346-3.43-.023-1.333-.511-2.46-1.465-3.381-.954-.921-2.097-1.37-3.43-1.347-1.333.023-2.46.512-3.381 1.465-.921.954-1.37 2.098-1.347 3.43.007.376.076.75.207 1.122l-6.935 3.81c-1.018-1.066-2.205-1.587-3.559-1.564-1.354.024-2.491.513-3.412 1.466-.921.954-1.37 2.097-1.347 3.43.024 1.334.512 2.46 1.466 3.382.954.92 2.118 1.37 3.493 1.345 1.374-.024 2.531-.586 3.47-1.686l7.064 3.565a3.54 3.54 0 0 0-.168 1.128c.023 1.333.512 2.46 1.466 3.381.953.921 2.097 1.37 3.43 1.347ZM188.004 279.713c.437-.007.81-.17 1.117-.488.307-.318.456-.706.448-1.164l-.363-20.81 1.625-.028c.416-.007.789-.17 1.116-.488.328-.318.488-.696.48-1.134a1.488 1.488 0 0 0-.519-1.116c-.339-.306-.716-.456-1.133-.449l-11.936.209c-1.333.023-2.546.367-3.638 1.032a7.209 7.209 0 0 0-2.58 2.67c-.626 1.116-.927 2.34-.904 3.673.023 1.333.367 2.546 1.032 3.639a7.209 7.209 0 0 0 2.67 2.579c1.116.626 2.34.928 3.673.904l.688-.012.166 9.499c.008.458.17.84.488 1.148.318.307.696.456 1.133.449.438-.008.81-.17 1.117-.488.307-.318.457-.706.449-1.165l-.335-19.184a1.522 1.522 0 0 1 .48-1.165c.327-.318.7-.481 1.116-.488.417-.008.795.152 1.134.48.339.327.512.7.52 1.116l.334 19.185c.008.458.171.84.489 1.147.318.307.696.457 1.133.45ZM282.248 464.998c2.895-.05 5.56-.816 7.992-2.296a16.04 16.04 0 0 0 5.741-5.945c1.395-2.483 2.067-5.162 2.017-8.036-.05-2.875-.816-5.529-2.296-7.961a16.04 16.04 0 0 0-5.945-5.741c-2.483-1.395-5.162-2.067-8.036-2.017-2.875.05-5.529.816-7.961 2.296a16.04 16.04 0 0 0-5.741 5.945c-1.395 2.483-2.067 5.172-2.016 8.067.05 2.896.816 5.55 2.296 7.962a16.192 16.192 0 0 0 5.913 5.71c2.462 1.395 5.14 2.067 8.036 2.016Zm-3.66-7.375-5.692-14.528 1.872-.157c.25-.046.413-.216.491-.509a1.18 1.18 0 0 0-.077-.842c-.13-.269-.32-.401-.57-.397l-1.31.086c-1.04.101-1.852.157-2.436.167l-.938-.046c1.257-1.98 2.928-3.572 5.011-4.776 2.084-1.203 4.354-1.826 6.812-1.869 1.833-.032 3.589.27 5.267.908a14.709 14.709 0 0 1 4.485 2.673c-.627-.073-1.207.104-1.741.53-.575.51-.854 1.203-.84 2.077.009.459.121.936.338 1.432.173.33.452.826.839 1.486l.32.432c.6.99.915 2.297.944 3.921.016.959-.33 2.59-1.04 4.894-.284.905-.57 1.757-.856 2.556l-.214.589-5.11-13.35c.376-.007.708-.055.999-.143l.31-.13c.249-.047.412-.237.49-.572a1.7 1.7 0 0 0-.048-.968c-.11-.31-.29-.443-.539-.397l-1.373.087c-.999.1-1.81.156-2.435.167-.84.015-1.961-.018-3.364-.099l-.389-.023c-.25-.037-.425.112-.523.447a1.815 1.815 0 0 0-.014 1c.089.332.258.496.508.491l1.44.1 2.157 5.401-2.775 9.362Zm10.815 3.687 4.47-12.517v-.063c.317-.88.532-1.676.645-2.386.186-1.295.16-2.754-.076-4.375 1.16 2.064 1.763 4.324 1.806 6.782.046 2.625-.548 5.052-1.78 7.282-1.232 2.23-2.92 3.99-5.065 5.277Zm-13.426.735c-2.437-1.125-4.405-2.84-5.903-5.148-1.5-2.308-2.273-4.857-2.322-7.648-.036-2.083.326-4.007 1.087-5.77l7.138 18.566Zm6.272 1.203a11.977 11.977 0 0 1-3.697-.498l3.676-11.441 4.32 11.114c-1.408.524-2.841.8-4.3.825ZM616.248 31.998c2.895-.05 5.56-.816 7.992-2.296a16.04 16.04 0 0 0 5.741-5.945c1.395-2.483 2.067-5.162 2.017-8.036-.05-2.875-.816-5.529-2.296-7.961a16.04 16.04 0 0 0-5.945-5.741c-2.483-1.395-5.162-2.067-8.036-2.017-2.875.05-5.529.816-7.961 2.296a16.04 16.04 0 0 0-5.741 5.945c-1.395 2.483-2.067 5.172-2.016 8.067.05 2.896.816 5.55 2.296 7.962a16.192 16.192 0 0 0 5.913 5.71c2.462 1.395 5.14 2.067 8.036 2.016Zm-3.66-7.375-5.692-14.528 1.872-.157c.25-.046.413-.216.491-.509a1.18 1.18 0 0 0-.077-.842c-.13-.269-.32-.401-.57-.397l-1.31.086c-1.04.101-1.852.157-2.436.167l-.938-.046c1.257-1.98 2.928-3.572 5.011-4.776 2.084-1.203 4.354-1.826 6.812-1.869 1.833-.032 3.589.27 5.267.908a14.709 14.709 0 0 1 4.485 2.673c-.627-.073-1.207.104-1.741.53-.575.51-.854 1.203-.84 2.077.009.459.121.936.338 1.432.173.33.452.826.839 1.486l.32.432c.6.99.915 2.297.944 3.921.016.959-.33 2.59-1.04 4.894-.284.905-.57 1.757-.856 2.556l-.214.589-5.11-13.35c.376-.007.708-.055.999-.143l.31-.13c.249-.047.412-.237.49-.572a1.7 1.7 0 0 0-.048-.968c-.11-.31-.29-.443-.539-.397l-1.373.087c-.999.1-1.81.156-2.435.167-.84.015-1.961-.018-3.364-.099l-.389-.023c-.25-.037-.425.112-.523.447a1.815 1.815 0 0 0-.014 1c.089.332.258.496.508.491l1.44.1 2.157 5.401-2.775 9.362Zm10.815 3.687 4.47-12.517v-.063c.317-.88.532-1.676.645-2.386.186-1.295.16-2.754-.076-4.375 1.16 2.064 1.763 4.324 1.806 6.782.046 2.625-.548 5.052-1.78 7.282-1.232 2.23-2.92 3.99-5.065 5.277Zm-13.426.735c-2.437-1.125-4.405-2.84-5.903-5.148-1.5-2.308-2.273-4.857-2.322-7.648-.036-2.083.326-4.007 1.087-5.77l7.138 18.566Zm6.272 1.203a11.977 11.977 0 0 1-3.697-.498l3.676-11.441 4.32 11.114c-1.408.524-2.841.8-4.3.825ZM1504.554 615.643c.211.184.77-.003 1.678-.56.742-.43 1.628-1.029 2.656-1.797.822-.64 1.377-1.107 1.663-1.404l4.421-4.578 3.942 3.807 2.825-2.925a4.412 4.412 0 0 1-.706-2.832 4.424 4.424 0 0 1 1.172-2.677l1.23-1.209a3.891 3.891 0 0 1 2.57-1.295 4.566 4.566 0 0 1 2.856.638l2.886-2.989-10.363-9.945-2.887 2.925c.599.865.855 1.809.769 2.831-.087 1.023-.498 1.915-1.235 2.678l-1.167 1.209c-.737.762-1.615 1.195-2.634 1.296-1.019.1-1.95-.112-2.793-.64l-2.885 2.99 3.942 3.806-4.422 4.515c-.287.297-.735.888-1.344 1.774-.733 1.013-1.3 1.898-1.704 2.655-.525.968-.682 1.544-.47 1.727ZM1724.353 471.33a7.235 7.235 0 0 0 3.531-.061 6.49 6.49 0 0 0 3.063-1.804l2.394-2.48a6.723 6.723 0 0 0 1.727-3.124 6.886 6.886 0 0 0-.062-3.562 6.723 6.723 0 0 0-1.835-3.062 6.723 6.723 0 0 0-3.124-1.727 6.886 6.886 0 0 0-3.562.062 6.723 6.723 0 0 0-3.062 1.835l-2.395 2.48a6.49 6.49 0 0 0-1.696 3.124 7.235 7.235 0 0 0 .062 3.53l6.508-6.74c.655-.678 1.462-1.025 2.42-1.042.958-.016 1.777.303 2.455.958.678.655 1.025 1.461 1.042 2.42.017.957-.302 1.776-.957 2.454l-6.509 6.74Zm-6.717 3.712c.479-.03.882-.192 1.21-.49l8.412-8.71c.328-.34.487-.749.479-1.228a1.61 1.61 0 0 0-.553-1.21 1.652 1.652 0 0 0-1.258-.446c-.478.03-.882.192-1.21.49l-8.35 8.71c-.327.339-.486.748-.478 1.227.008.479.182.882.521 1.21.34.327.748.476 1.227.447Zm-4.058 7.478c1.193.271 2.37.25 3.531-.061 1.161-.312 2.192-.935 3.093-1.867l2.395-2.48a6.49 6.49 0 0 0 1.695-3.124 6.767 6.767 0 0 0-.124-3.53l-6.508 6.74c-.654.72-1.45 1.088-2.388 1.105-.937.016-1.755-.313-2.455-.989-.7-.675-1.057-1.492-1.074-2.45-.017-.958.323-1.777 1.02-2.456l6.508-6.74a7.361 7.361 0 0 0-3.562.063 6.49 6.49 0 0 0-3.031 1.803l-2.457 2.48a6.723 6.723 0 0 0-1.727 3.125 6.886 6.886 0 0 0 .062 3.562 6.805 6.805 0 0 0 1.867 3.093c.911.88 1.963 1.455 3.155 1.726ZM1423.862 36.33l-.06-3.436c1.078-.31 2.07-.765 2.977-1.365l2.543 2.456 3.315-3.433-2.542-2.394c.567-.968.986-2.017 1.258-3.147l3.5-.061-.083-4.75-3.5.062a10.316 10.316 0 0 0-1.303-3.04l2.393-2.543-3.433-3.315-2.457 2.48a9.54 9.54 0 0 0-3.022-1.197l-.06-3.5-4.812.085.06 3.499c-1.16.312-2.195.768-3.1 1.367l-2.482-2.457-3.315 3.433 2.543 2.456a9.467 9.467 0 0 0-1.259 3.085l-3.437.06.083 4.75 3.437-.06a11.72 11.72 0 0 0 1.366 3.039l-2.456 2.543 3.433 3.315 2.456-2.543c.969.567 1.997.986 3.085 1.259l.06 3.437 4.812-.084Zm-2.59-8.705c-1.333.023-2.477-.426-3.43-1.347-.954-.92-1.442-2.048-1.466-3.381-.023-1.333.426-2.477 1.347-3.43.92-.954 2.048-1.442 3.381-1.466 1.333-.023 2.477.426 3.43 1.347.954.92 1.443 2.048 1.466 3.381.023 1.333-.426 2.477-1.347 3.43-.92.954-2.048 1.443-3.381 1.466ZM1537.05 428.415l15.718-16.277-.195-11.186-11.186.196-15.718 16.276 11.381 10.99Zm9.255-17.727a3.069 3.069 0 0 1-2.266-.898c-.636-.614-.962-1.369-.978-2.264-.015-.896.284-1.662.898-2.298.614-.635 1.369-.961 2.265-.977.895-.015 1.661.284 2.297.898.636.614.961 1.369.977 2.264.016.896-.284 1.662-.898 2.297-.614.636-1.379.962-2.295.978ZM62.65 390.598c2.87-.3 5.499-1.305 7.886-3.014 1.685-1.363 2.933-2.676 3.744-3.94.163-.212.376-.538.64-.98.263-.443.476-.77.639-.98l-.512-.68c-.342-.493-.62-.843-.831-1.047-1.75-2.387-3.98-4.15-6.687-5.29-2.708-1.141-5.497-1.54-8.366-1.199a16.23 16.23 0 0 0-8.008 3.203c-1.767 1.406-3.34 3.246-4.717 5.52.217.455.665 1.093 1.346 1.915 1.75 2.386 3.97 4.16 6.657 5.322 2.602 1.08 5.339 1.47 8.209 1.17Zm-.092-10.626a1.958 1.958 0 0 1-1.447-.568 1.958 1.958 0 0 1-.62-1.427c-.009-.562.19-1.056.6-1.48.368-.38.834-.577 1.396-.586.563-.01 1.045.18 1.448.568.403.389.609.865.619 1.427.01.563-.18 1.045-.569 1.448a1.958 1.958 0 0 1-1.427.618Zm-1.44 8.84c-2.457.042-4.79-.51-6.998-1.66a14.732 14.732 0 0 1-5.429-4.812c1.91-2.784 4.377-4.702 7.4-5.755-1.019 1.268-1.515 2.714-1.486 4.339.02 1.166.31 2.255.87 3.267a6.041 6.041 0 0 0 2.322 2.366c.99.566 2.078.838 3.265.818a6.778 6.778 0 0 0 3.267-.87 6.324 6.324 0 0 0 2.366-2.323c.587-.99.87-2.088.849-3.296l-.004-.188a5.959 5.959 0 0 0-.509-2.304 6.7 6.7 0 0 0-1.316-1.977c3.059.947 5.591 2.778 7.597 5.493a14.732 14.732 0 0 1-5.257 4.999 14.392 14.392 0 0 1-6.936 1.902ZM1566.004 214.713c.437-.007.81-.17 1.117-.488.307-.318.456-.706.448-1.164l-.363-20.81 1.625-.028c.416-.007.788-.17 1.116-.488.328-.318.488-.696.48-1.134a1.488 1.488 0 0 0-.519-1.116c-.339-.306-.716-.456-1.133-.449l-11.936.209c-1.333.023-2.546.367-3.638 1.032a7.209 7.209 0 0 0-2.58 2.67c-.626 1.116-.927 2.34-.904 3.673.023 1.333.367 2.546 1.032 3.639a7.209 7.209 0 0 0 2.67 2.579c1.116.626 2.34.928 3.673.904l.688-.012.166 9.499c.008.458.17.84.488 1.148.318.307.696.456 1.133.449.438-.008.81-.17 1.117-.488.307-.318.457-.706.449-1.165l-.335-19.184a1.522 1.522 0 0 1 .48-1.165c.327-.318.7-.481 1.116-.488.417-.008.795.152 1.134.48.339.327.512.7.52 1.116l.334 19.185c.008.458.171.84.489 1.147.318.307.696.457 1.133.45ZM149.222 561.67c.459-.007.841-.17 1.148-.488.307-.318.457-.706.449-1.164l-.195-11.186a1.571 1.571 0 0 0-.49-1.148 1.571 1.571 0 0 0-1.164-.448l-1.624.028-.083-4.75c-.031-1.79-.683-3.3-1.955-4.528-1.271-1.228-2.782-1.827-4.532-1.797-1.75.031-3.238.682-4.466 1.954-1.228 1.271-1.827 2.803-1.795 4.594l3.187-.055c-.016-.917.283-1.693.897-2.329a3.069 3.069 0 0 1 2.233-.977 3.069 3.069 0 0 1 2.266.899c.636.614.962 1.379.978 2.295l.083 4.75-11.186.195c-.458.008-.841.17-1.148.489a1.571 1.571 0 0 0-.449 1.164l.196 11.186c.008.458.17.84.489 1.148.317.307.706.456 1.164.448l15.997-.28Zm-6.43-3.075-3.249.057.565-3.448a2.467 2.467 0 0 1-1.016-.889 2.355 2.355 0 0 1-.397-1.274c-.011-.667.208-1.233.658-1.7.45-.466 1.009-.705 1.675-.716.667-.012 1.233.207 1.7.658.466.45.705 1.008.716 1.675.008.458-.11.887-.352 1.288-.243.4-.571.708-.984.923l.685 3.426ZM1647.41 356.678c1.333-.023 2.46-.512 3.381-1.465.921-.954 1.37-2.098 1.347-3.43-.024-1.334-.512-2.46-1.466-3.382-.953-.92-2.097-1.37-3.43-1.347-1.416.025-2.574.587-3.471 1.686l-7.126-3.563a3.54 3.54 0 0 0 .168-1.128 3.54 3.54 0 0 0-.207-1.122l6.997-3.81c.977 1.066 2.143 1.588 3.496 1.564 1.354-.024 2.492-.512 3.413-1.466.92-.954 1.37-2.097 1.346-3.43-.023-1.333-.511-2.46-1.465-3.381-.954-.921-2.097-1.37-3.43-1.347-1.333.023-2.46.512-3.381 1.465-.921.954-1.37 2.098-1.347 3.43.007.376.076.75.207 1.122l-6.935 3.81c-1.018-1.066-2.205-1.587-3.559-1.564-1.354.024-2.491.513-3.412 1.466-.921.954-1.37 2.097-1.347 3.43.024 1.334.512 2.46 1.466 3.382.954.92 2.118 1.37 3.493 1.345 1.374-.024 2.531-.586 3.47-1.686l7.064 3.565a3.54 3.54 0 0 0-.168 1.128c.023 1.333.512 2.46 1.466 3.381.953.921 2.097 1.37 3.43 1.347ZM1682.248 42.998c2.895-.05 5.56-.816 7.992-2.296a16.04 16.04 0 0 0 5.741-5.945c1.395-2.483 2.067-5.162 2.017-8.036-.05-2.875-.816-5.529-2.296-7.961a16.04 16.04 0 0 0-5.945-5.741c-2.483-1.395-5.162-2.067-8.036-2.017-2.875.05-5.529.816-7.961 2.296a16.04 16.04 0 0 0-5.741 5.945c-1.395 2.483-2.067 5.172-2.016 8.067.05 2.896.816 5.55 2.296 7.962a16.192 16.192 0 0 0 5.913 5.71c2.462 1.395 5.14 2.067 8.036 2.016Zm-3.66-7.375-5.692-14.528 1.872-.157c.25-.046.413-.216.491-.509a1.18 1.18 0 0 0-.077-.842c-.13-.269-.32-.401-.57-.397l-1.31.086c-1.04.101-1.852.157-2.436.167l-.938-.046c1.257-1.98 2.928-3.572 5.011-4.776 2.084-1.203 4.354-1.826 6.812-1.869 1.833-.032 3.589.27 5.267.908a14.709 14.709 0 0 1 4.485 2.673c-.627-.073-1.207.104-1.741.53-.575.51-.854 1.203-.84 2.077.009.459.121.936.338 1.432.173.33.452.826.839 1.486l.32.432c.6.99.915 2.297.944 3.921.016.959-.33 2.59-1.04 4.894-.284.905-.57 1.757-.856 2.556l-.214.589-5.11-13.35c.376-.007.708-.055.999-.143l.31-.13c.249-.047.412-.237.49-.572a1.7 1.7 0 0 0-.048-.968c-.11-.31-.29-.443-.539-.397l-1.373.087c-.999.1-1.81.156-2.435.167-.84.015-1.961-.018-3.364-.099l-.389-.023c-.25-.037-.425.112-.523.447a1.815 1.815 0 0 0-.014 1c.089.332.259.496.508.491l1.44.1 2.157 5.401-2.775 9.362Zm10.815 3.687 4.47-12.517v-.063c.317-.88.532-1.676.645-2.386.186-1.295.16-2.754-.076-4.375 1.16 2.064 1.763 4.324 1.806 6.782.046 2.625-.548 5.052-1.78 7.282-1.232 2.23-2.92 3.99-5.065 5.277Zm-13.426.735c-2.437-1.125-4.405-2.84-5.903-5.148-1.5-2.308-2.273-4.857-2.322-7.648-.036-2.083.326-4.007 1.087-5.77l7.138 18.566Zm6.272 1.203a11.977 11.977 0 0 1-3.697-.498l3.676-11.441 4.32 11.114c-1.408.524-2.841.8-4.3.825Z"/></g></svg>
