<svg xmlns="http://www.w3.org/2000/svg" width="1371" height="444"><g fill="none" fill-rule="nonzero" opacity=".388"><path fill="#F0F0F1" d="M97.665 328.69c2.816-.808 3.876-2.428 3.178-4.86-.697-2.433-1.357-4.253-1.98-5.46 2.035-14.162 16.594-57.134 43.676-128.914 11.793 12.137 26.333 15.727 43.617 10.771 17.284-4.956 35.934-16.747 55.95-35.373 20.016-18.625 35.795-38.738 47.337-60.337 11.542-21.6 15.44-38.929 11.696-51.988-3.745-13.06-10.643-23.829-20.696-32.309-10.052-8.479-21.465-14.213-34.238-17.201-26.314-5.756-51.89-5.073-76.728 2.049-24.839 7.122-49.18 18.397-73.022 33.824C72.613 54.32 53.574 70.31 39.337 86.862c-14.236 16.553-24.896 32.773-31.98 48.66-7.083 15.887-9.064 29.272-5.944 40.155 3.12 10.883 9.358 18.378 18.71 22.485 9.353 4.108 17.935 5.042 25.745 2.802 7.81-2.239 15.307-6.536 22.49-12.892 7.185-6.355 13.298-13.304 18.34-20.847 5.043-7.542 9.518-15.13 13.426-22.763 3.908-7.633 6.856-14.02 8.846-19.163 1.989-5.143 2.892-8.035 2.708-8.675-.183-.64-.595-.868-1.235-.685-.64.184-1.71 1.045-3.209 2.583-20.47 21.388-42.297 39.979-65.48 55.772-7.204 4.837-11.703 7.512-13.495 8.026-1.793.514-2.964-.19-3.515-2.11-.55-1.92 1.54-6.954 6.27-15.1 4.731-8.145 12.305-18.215 22.722-30.208 10.417-11.994 22.526-24.126 36.327-36.397 13.801-12.271 30.704-24.115 50.709-35.532 20.004-11.417 39.288-19.788 57.853-25.111 18.565-5.323 36.5-8.25 53.807-8.778 17.307-.529 27.172 3.432 29.595 11.882 2.937 10.243-.16 23.116-9.293 38.621-9.133 15.505-21.011 30.134-35.635 43.888-14.623 13.754-29.86 26.09-45.712 37.01-15.852 10.919-28.899 17.847-39.141 20.784-2.305.66-3.714.095-4.228-1.698-.22-.768-.185-1.61.107-2.525l30.509-66.112c2.592-5.454 10.628-20.921 24.105-46.401.731-1.318.84-2.873.325-4.666-.514-1.792-2.043-3.017-4.586-3.673-2.544-.656-4.84-.69-6.889-.103-2.048.587-4.827 2.493-8.337 5.716-16.633 16.409-40.169 55.857-70.608 118.347-30.439 62.49-44.387 102.515-41.846 120.076.185 1.61.644 3.695 1.378 6.255 2.497 8.707 6.665 14.786 12.504 18.238 5.84 3.452 10.168 4.775 12.985 3.967Zm224.468-73.926a54.981 54.981 0 0 0 13.661-5.996c13.092-8.465 31.258-29.192 54.498-62.183 8.88-12.522 18.362-26.326 28.446-41.41 10.085-15.086 16.872-25.484 20.36-31.196a1601.134 1601.134 0 0 1 8.084-13.125c1.9-3.039 2.482-5.839 1.748-8.4-.734-2.56-2.51-4.406-5.329-5.538L418.987 118.5c-16.153 20.982-34.547 42.606-55.18 64.873-20.635 22.267-35.177 34.612-43.627 37.035-4.354 1.248-7.668-2.097-9.944-10.035-3.525-12.29 1.676-26.53 15.601-42.716 17.18-19.336 35.298-41.92 54.355-67.754 19.058-25.833 34.96-51.8 47.705-77.901 12.453-25.186 17.835-40.724 16.147-46.614l-3.022-3.29c-1.832-2.523-4.414-4.762-7.746-6.716-3.331-1.955-6.533-2.491-9.606-1.61-3.073.88-6.346 2.512-9.82 4.894-22.048 16.853-41.78 36.228-59.194 58.126-17.415 21.898-30.989 42.694-40.721 62.39-9.733 19.694-17.673 38.876-23.82 57.543-6.149 18.667-9.948 34.167-11.4 46.5-1.452 12.332-1.407 21.187.135 26.564 5.58 19.46 12.507 31.053 20.78 34.778 4.063 1.606 7.613 2.39 10.65 2.35 3.037-.04 6.988-.757 11.853-2.152Zm9.817-123.778c-.512.147-.86-.1-1.044-.74-.183-.64.053-1.747.71-3.32 5.073-14.203 15.674-34.978 31.803-62.327C379.547 37.25 393.02 17.314 403.84 4.79l5.649-4.944.604.658c1.028 3.584-10.139 25.77-33.5 66.553-23.36 40.785-38.242 62.095-44.643 63.93Zm142.286 80.163c5.377-1.542 10.187-3.614 14.43-6.216 13.09-8.465 31.256-29.192 54.497-62.183 8.88-12.522 18.361-26.326 28.446-41.41 10.085-15.086 16.872-25.484 20.36-31.196a1601.134 1601.134 0 0 1 8.084-13.125c1.9-3.039 2.482-5.839 1.748-8.4-.734-2.56-2.51-4.406-5.33-5.538-36.07 47.2-70.244 86.513-102.524 117.938-2.632 2.418-4.524 3.792-5.677 4.122-1.152.33-1.912-.144-2.279-1.425-2.35-8.194 9.572-34.752 35.765-79.673 8.731-14.974 12.84-23.358 12.325-25.15-1.248-4.353-8.017-4.767-20.309-1.243-6.401 1.836-9.581 5.242-9.54 10.218-3.468 8.2-12.52 22.296-27.156 42.288-14.635 19.993-27.82 37.075-39.551 51.246-4.423 4.871-7.659 7.6-9.707 8.188-2.049.587-3.33-.015-3.844-1.808-.514-1.792.058-5.836 1.717-12.131 1.66-6.295 5.237-14.596 10.734-24.901 5.497-10.306 10.072-18.754 13.725-25.343 3.653-6.59 5.112-11.165 4.378-13.726-.734-2.56-2.548-4.535-5.44-5.923-2.892-1.387-5.746-1.677-8.563-.87-7.608 2.46-17.658 15.733-30.149 39.822-12.491 24.088-20.501 46.892-24.03 68.41-1.491 9.296-1.43 16.76.186 22.394 2.717 9.474 9.197 12.743 19.44 9.806 3.84-1.101 8.255-4.307 13.245-9.618 4.99-5.31 9.266-10.693 12.828-16.148 3.562-5.456 7.956-12.604 13.18-21.446 5.224-8.842 8.476-13.446 9.756-13.813 1.537-.44 2.378-.405 2.525.107.147.512.147.997.001 1.455-.145.457-.273.979-.382 1.564-.11.586-.228 1.382-.355 2.388-.127 1.007-.599 4.675-1.416 11.006-.818 6.331-.822 10.905-.015 13.722 3.892 13.571 10.19 19.109 18.897 16.612Zm52.653 132.884c11.813-6.158 23.192-16.003 34.138-29.534 10.946-13.53 19.798-26.876 26.554-40.037 6.757-13.16 13.101-27.52 19.032-43.076 5.931-15.557 9.717-26.272 11.358-32.147 1.641-5.874 4.66-15.4 9.057-28.577 4.396-13.177 13.274-37.545 26.632-73.106 13.359-35.56 20.832-54.677 22.421-57.35 1.59-2.672 2.035-5.225 1.338-7.658-.698-2.432-3.37-4.506-8.02-6.222-4.465-2.044-7.467-2.847-9.003-2.406-1.536.44-2.524.862-2.963 1.265-4.541-4.24-12.391-6.007-23.55-5.301-17.338 7.188-33.016 18.473-47.033 33.854-14.018 15.382-24.642 30.76-31.873 46.135-7.23 15.375-12.669 29.266-16.316 41.674-3.647 12.408-4.718 21.236-3.213 26.486s4.839 9.628 10.002 13.135c5.162 3.508 11.2 4.27 18.114 2.288 6.914-1.982 14.921-8.366 24.022-19.15 9.1-10.785 15.377-19.097 18.83-24.937 3.452-5.84 6.091-10.406 7.918-13.701 1.826-3.295 3.123-5.053 3.892-5.273.256-.073-.163 1.848-1.257 5.764-.401 1.5-.785 2.58-1.15 3.24-.365.659-.602 1.28-.712 1.866l-5.369 10.27c-9.642 18.56-17.51 36.058-23.606 52.493-3.43 9.297-13.6 31.335-30.508 66.112-15.926 29.507-28.786 50.376-38.58 62.607-4.167 4.797-7.019 7.416-8.555 7.857-1.536.44-2.451.148-2.745-.876-2.13-7.426 3.317-22.497 16.34-45.214s28.38-44.787 46.069-66.21c2.047-2.526 2.96-4.173 2.74-4.942-.22-.768-1.355-.858-3.404-.27-13.571 3.89-31.366 19.87-53.386 47.938-22.019 28.068-30.899 49.528-26.64 64.38 3.377 11.778 10.811 18.376 22.302 19.792 6.039.763 11.746.373 17.124-1.169Zm46.68-202.52c-1.025.295-1.647.057-1.867-.71-.808-2.818 2.404-10.944 9.636-24.38 7.232-13.435 17.427-28.136 30.585-44.102 13.157-15.966 25.99-27.267 38.497-33.902 1.025-.293 1.61-.184 1.757.328.514 1.792-4.262 10.506-14.328 26.14-10.066 15.633-21.668 31.708-34.806 48.223-13.139 16.515-22.964 25.983-29.475 28.404ZM743.163-33.898c6.146-1.762 11.877-5.692 17.196-11.79 5.318-6.097 8.716-10.674 10.195-13.73 1.48-3.058 2.712-5.766 3.697-8.127.986-2.362 1.093-4.886.322-7.575-.77-2.689-3.573-5.696-8.406-9.02-1.062-.805-2.873-.84-5.434-.105-5.89 1.688-12.397 7.503-19.522 17.445-7.126 9.94-9.588 18.752-7.385 26.434 1.395 4.865 4.508 7.021 9.337 6.468Zm-24.258 174.89c5.378-1.542 10.187-3.614 14.43-6.216 13.09-8.465 31.257-29.192 54.497-62.183 8.88-12.522 18.362-26.326 28.446-41.411 10.085-15.085 16.872-25.483 20.36-31.195a1601.156 1601.156 0 0 1 8.084-13.125c1.9-3.039 2.483-5.839 1.748-8.4-.734-2.56-2.51-4.406-5.329-5.538-36.07 47.2-74.45 90.212-115.138 129.037-3.912 2.785-6.765 4.434-8.557 4.948-3.073.881-5.013-.086-5.82-2.903-.809-2.817-.702-6.311.318-10.484.76-9.917 4.177-22.882 10.255-38.896 6.077-16.015 10.84-27.426 14.292-34.235 3.451-6.81 6.026-11.843 7.725-15.101 1.698-3.259 2.364-5.528 1.997-6.808-.368-1.28-1.43-2.085-3.186-2.412-5.453-.654-10.868-.21-16.245 1.333-5.378 1.542-9.967 4.382-13.768 8.52-2.706 2.161-7.126 10.426-13.26 24.794-6.133 14.367-11.496 30.454-16.09 48.26-4.593 17.806-5.715 30.806-3.366 39 6.021 20.997 18.89 28.669 38.607 23.015Zm183.989-46.938c10.242-2.937 25.367-18.082 45.375-45.434 20.007-27.353 34.577-48.781 43.71-64.286 9.133-15.505 16.658-28.401 22.576-38.689 1.717-2.71 2.209-5.344 1.475-7.905-.735-2.56-2.511-4.407-5.33-5.538-10.854 13.366-23.344 29.487-37.468 48.363C959.109-.56 947.67 14.15 938.916 24.697c-8.753 10.547-16.52 18.732-23.303 24.557-6.782 5.824-11.645 9.158-14.59 10.003-2.945.844-4.748.114-5.409-2.19-1.248-4.354-1.948-9.695-2.1-16.025.18-2.269.873-5.17 2.077-8.702a573.168 573.168 0 0 1 3.312-9.47c1.003-2.782 2.801-6.9 5.394-12.355s4.93-10.35 7.011-14.689c2.082-4.338 5.287-10.8 9.614-19.384A2417.69 2417.69 0 0 0 932.4-46.593c.657-1.575.692-3.386.105-5.434-.588-2.049-2.345-3.346-5.273-3.892l-11.636.01c-.915-.291-2.589-.088-5.021.61-2.433.697-5.075 2.84-7.925 6.429-14.726 21.127-33.967 46.32-57.723 75.578l-1.59 1.703c-.256.073-.458-.146-.605-.658-.147-.512.857-3.294 3.011-8.346l17.353-48.206c.766-2.16.892-4.136.379-5.928-.735-2.56-3.764-4.186-9.089-4.876-5.324-.69-9.011-.742-11.06-.155-2.816.808-5.565 5.476-8.246 14.004-2.682 8.528-5.837 19.27-9.465 32.227-3.629 12.957-7.634 23.39-12.018 31.297-4.524 13.213-13.765 31.243-27.72 54.09-.693 2.415-.673 4.903.061 7.464 2.203 7.682 7.53 10.311 15.98 7.888 3.073-.881 5.45-2.256 7.131-4.123 10.456-9.926 32.638-39.842 66.546-89.748 1.17-1.72 1.81-2.389 1.92-2.005.11.384-.273 1.949-1.149 4.694l-10.018 27.398c-3.649 10.468-4.335 19.671-2.06 27.61 6.022 20.997 18.89 28.669 38.608 23.015Z"/><path fill="#F1F1F1" d="M708.734 443.365c2.65-.71 3.667-2.21 3.054-4.497-.613-2.289-1.201-4.003-1.765-5.142 2.137-13.222 16.465-53.203 42.984-119.942 10.84 11.552 24.39 15.15 40.647 10.793 16.258-4.356 33.906-15.087 52.944-32.192 19.038-17.105 34.134-35.672 45.29-55.699 11.155-20.027 15.087-36.182 11.796-48.466-3.292-12.284-9.572-22.476-18.842-30.577-9.27-8.1-19.858-13.653-31.763-16.659-24.535-5.817-48.484-5.596-71.847.664-23.364 6.26-46.329 16.416-68.896 30.465-22.567 14.05-40.648 28.704-54.242 43.964-13.595 15.26-23.837 30.266-30.726 45.02-6.89 14.753-8.963 27.248-6.22 37.485 2.743 10.236 8.458 17.353 17.144 21.35 8.687 3.998 16.703 5.012 24.05 3.044 7.346-1.969 14.433-5.868 21.26-11.7 6.828-5.83 12.663-12.234 17.506-19.21 4.842-6.978 9.154-14.006 12.937-21.086 3.782-7.08 6.646-13.01 8.592-17.792 1.946-4.78 2.838-7.472 2.677-8.074-.162-.602-.543-.823-1.146-.662-.602.162-1.617.95-3.045 2.365-19.508 19.684-40.24 36.727-62.197 51.13-6.82 4.409-11.074 6.84-12.76 7.29-1.686.453-2.772-.225-3.256-2.031-.484-1.807 1.555-6.483 6.115-14.03 4.561-7.547 11.814-16.848 21.76-27.902 9.945-11.055 21.477-22.212 34.595-33.472 13.117-11.26 29.13-22.069 48.04-32.427 18.909-10.36 37.095-17.878 54.557-22.557 17.462-4.68 34.297-7.125 50.504-7.337 16.207-.212 25.375 3.656 27.505 11.604 2.581 9.635-.529 21.633-9.33 35.996-8.8 14.362-20.157 27.86-34.068 40.494-13.911 12.633-28.374 23.93-43.388 33.891-15.015 9.961-27.34 16.232-36.974 18.814-2.167.58-3.477.028-3.929-1.658-.194-.723-.146-1.51.142-2.362l29.634-61.378c2.516-5.062 10.289-19.407 23.32-43.035.705-1.221.831-2.675.38-4.361-.452-1.686-1.863-2.857-4.233-3.513-2.37-.656-4.519-.725-6.445-.209-1.927.516-4.56 2.254-7.897 5.214-15.836 15.085-38.508 51.622-68.018 109.611-29.51 57.989-43.218 95.222-41.127 111.7.147 1.51.543 3.469 1.188 5.877 2.194 8.19 5.996 13.947 11.405 17.274 5.409 3.326 9.438 4.635 12.088 3.925Zm229.63-226.877c5.781-1.549 11.21-5.133 16.287-10.753 5.077-5.62 8.333-9.848 9.767-12.685 1.434-2.837 2.632-5.352 3.593-7.546.96-2.193 1.103-4.555.425-7.084-.678-2.529-3.251-5.389-7.72-8.58-.981-.77-2.676-.832-5.084-.187-5.54 1.485-11.726 6.821-18.557 16.009-6.832 9.188-9.28 17.395-7.344 24.62 1.227 4.577 4.104 6.645 8.633 6.206Zm-25.56 163.29c5.058-1.355 9.593-3.216 13.606-5.582 12.39-7.709 32.39-66.505-6.325-30.832-3.708 2.542-6.405 4.039-8.09 4.49-2.89.775-4.691-.162-5.4-2.812-.71-2.65-.554-5.918.47-9.806.872-9.27 4.282-21.349 10.232-36.238 5.95-14.889 10.595-25.491 13.936-31.808 3.342-6.317 5.834-10.986 7.476-14.007 1.643-3.022 2.303-5.135 1.98-6.34-.322-1.204-1.303-1.974-2.942-2.309-5.092-.7-10.168-.373-15.226.982-5.058 1.355-9.4 3.939-13.025 7.75-2.568 1.979-6.84 9.641-12.814 22.988-5.976 13.348-11.259 28.316-15.849 44.906s-5.852 28.739-3.787 36.446c5.292 19.75 17.211 27.141 35.758 22.172Zm58.865-24.419c16.86-4.517 38.163-14.614 63.909-30.29 2.632-1.738 6.116-3.188 10.451-4.35 4.336-1.16 8.3-1.061 11.891.3 3.592 1.36 5.99 1.88 7.194 1.557 1.927-.516 2.632-1.738 2.116-3.665-1.356-5.058-10.08-13.046-26.17-23.966-3.36-1.94-8.894-1.876-16.601.189-7.708 2.065-15.827 5.725-24.358 10.98-8.53 5.254-13.458 8.06-14.783 8.414-1.325.355-2.02.412-2.084.171 5.096-9.884 15.82-24.052 32.174-42.503 16.354-18.452 32.601-35.132 48.742-50.041 2.022-2.09 2.774-4.1 2.258-6.026-.516-1.927-6.424-6.153-17.724-12.677-3.73-2.356-12.398-1.711-26.007 1.935-13.609 3.646-30.277 10.565-50.006 20.756-3.595 1.996-4.925 4.74-3.99 8.233.936 3.493 6.067 9.153 15.393 16.98 2.748 1.587 5.267 2.074 7.555 1.46 2.288-.613 13.93-6.056 34.928-16.329l1.349-.748c-2.116 3.665-13.178 14.89-33.185 33.674-16.911 15.89-29.552 29.41-37.924 40.56-8.37 11.149-11.524 20.577-9.459 28.285 1.291 4.817 5.007 9.049 11.147 12.696 6.14 3.647 10.535 5.115 13.184 4.405Zm104.636-30.402c16.86-4.518 38.163-14.614 63.908-30.29 2.632-1.738 6.116-3.188 10.452-4.35 4.335-1.161 8.299-1.061 11.89.3 3.592 1.36 5.99 1.88 7.194 1.557 1.927-.516 2.632-1.738 2.116-3.665-1.355-5.058-10.079-13.046-26.17-23.966-3.36-1.94-8.893-1.876-16.6.189-7.708 2.065-15.827 5.725-24.358 10.98-8.531 5.254-13.46 8.059-14.784 8.414-1.325.355-2.02.412-2.084.171 5.096-9.885 15.821-24.052 32.175-42.504 16.353-18.451 32.6-35.131 48.742-50.04 2.021-2.091 2.774-4.1 2.257-6.027-.516-1.926-6.424-6.152-17.724-12.676-3.73-2.356-12.398-1.712-26.007 1.935-13.608 3.646-30.277 10.565-50.005 20.756-3.596 1.996-4.926 4.74-3.99 8.233.936 3.492 6.066 9.152 15.392 16.98 2.749 1.587 5.267 2.073 7.555 1.46 2.288-.613 13.931-6.056 34.929-16.329l1.348-.748c-2.116 3.664-13.178 14.89-33.185 33.674-16.91 15.89-29.552 29.41-37.923 40.56-8.372 11.149-11.525 20.577-9.46 28.284 1.291 4.818 5.007 9.05 11.147 12.697 6.14 3.646 10.535 5.115 13.185 4.405Zm109.286-25.39c7.226-1.936 15.566-8.624 25.022-20.063 9.455-11.44 15.93-20.274 19.424-26.503 3.494-6.228 6.355-11.448 8.582-15.659.706-1.221 1.239-1.88 1.6-1.977.361-.097.639.216.833.938l3.305 23.897c2 7.467 4.352 12.387 7.053 14.761 2.701 2.374 6.34 2.948 10.916 1.722 4.577-1.226 14.363-10.948 29.36-29.164 6.223-7.605 13.163-16.629 20.82-27.07 7.658-10.442 14.425-19.871 20.302-28.287a4731.96 4731.96 0 0 0 18.292-26.392c6.317-9.18 10.538-15.345 12.663-18.495a3211.78 3211.78 0 0 0 5.4-8.03c1.474-2.202 1.89-4.508 1.244-6.916-.646-2.41-2.278-4.166-4.898-5.271-42.293 53.153-74.142 88.922-95.547 107.307-.745-4.705.532-11.501 3.83-20.388 1.97-5.174 3.932-9.895 5.886-14.162 1.955-4.267 5.24-11.278 9.854-21.033 4.614-9.756 8.611-18.442 11.991-26.06 2.598-3.794 3.574-6.895 2.928-9.304-.645-2.408-1.868-4.081-3.668-5.019-1.8-.937-3.455-1.333-4.965-1.187-3.423-2.18-6.099-3.012-8.026-2.496-1.927.517-3.772 2.302-5.535 5.356-4.327-5.553-8.812-7.836-13.452-6.85-12.043 3.226-24.968 11.594-38.773 25.103-13.806 13.51-25.67 28.24-35.594 44.194-9.924 15.954-17.916 31.649-23.977 47.084-6.061 15.435-8.253 26.284-6.575 32.547 1.678 6.262 4.414 10.692 8.208 13.29 3.794 2.597 6.674 3.955 8.642 4.073 1.968.118 3.586.136 4.855.054Zm17.848-44.667c-.481.13-.787-.047-.916-.529-1.097-4.094 2.149-13.418 9.737-27.972 7.588-14.554 17.324-29.038 29.21-43.452 11.885-14.414 22.403-22.847 31.556-25.3.723-.193 1.132-.11 1.23.252.096.36-.208 1.152-.914 2.374l-15.488 23.124c-10.085 15.352-20.953 30.914-32.603 46.685-11.65 15.771-18.921 24.044-21.812 24.818Z"/></g></svg>
