<svg xmlns="http://www.w3.org/2000/svg" width="21" height="22"><g fill="none" fill-rule="evenodd"><path fill="#CF4944" fill-rule="nonzero" d="M4.792 20.866c2.143-.949 4.362-2.204 6.658-3.765 2.358-1.623 3.827-2.924 4.409-3.904.398-.673.398-1.515 0-2.525-.337-.888-.934-1.776-1.791-2.664.429-.306.903-.336 1.423-.092.307.123.766.444 1.378.965.49.428.873.704 1.148.826.398.215.766.238 1.102.07.337-.17.597-.498.78-.988.185-.49.185-.903 0-1.24-.213-.49-.688-.842-1.423-1.056-.398-.123-1.071-.23-2.02-.322l-.551-.045a6.658 6.658 0 0 0 2.02-.919c.858-.55 1.301-1.133 1.332-1.745.03-.55-.23-1.071-.78-1.561-.552-.49-1.095-.704-1.63-.643-.537.061-1.003.429-1.401 1.102-.245.398-.52 1.04-.827 1.929l-.184.505c-.122-1.745-.505-2.893-1.148-3.444-.398-.337-.803-.49-1.217-.46-.413.031-.765.215-1.056.552-.29.336-.451.719-.482 1.148 0 .275.122.581.367.918.153.184.444.46.873.827.55.49.903.872 1.056 1.148.245.459.245.933 0 1.423-.949-.735-1.883-1.24-2.801-1.515-1.01-.276-1.837-.23-2.48.138-.55.367-1.179 1.04-1.883 2.02 1.317 1.378 2.526 2.434 3.628 3.169a.487.487 0 0 1 .207.344.594.594 0 0 1-.092.39.492.492 0 0 1-.322.23.46.46 0 0 1-.39-.092c-1.102-.735-2.327-1.79-3.674-3.168-.55.826-1.071 1.699-1.56 2.617 1.224 1.225 2.31 2.174 3.26 2.847a.43.43 0 0 1 .23.322.482.482 0 0 1-.07.39.53.53 0 0 1-.344.207.626.626 0 0 1-.413-.046c-.919-.643-1.975-1.562-3.169-2.756-1.133 2.205-1.96 4.21-2.48 6.016-.55 1.99-.581 3.215-.092 3.674.551.49 2.021.214 4.409-.827Z"/></g></svg>
