<svg xmlns="http://www.w3.org/2000/svg" width="16" height="16" viewBox="0 0 16 16"><path fill="#D55227" fill-rule="nonzero" d="M7.984 16c1.448 0 2.787-.36 4.016-1.078A8.02 8.02 0 0 0 14.922 12 7.786 7.786 0 0 0 16 8c0-1.438-.36-2.77-1.078-4A8.02 8.02 0 0 0 12 1.078 7.786 7.786 0 0 0 8 0C6.562 0 5.23.36 4 1.078A8.02 8.02 0 0 0 1.078 4 7.815 7.815 0 0 0 0 8.016c0 1.448.36 2.78 1.078 4a8.096 8.096 0 0 0 2.906 2.906 7.732 7.732 0 0 0 4 1.078ZM6.22 12.281 3.5 4.97l.938-.063c.125-.02.208-.104.25-.25a.59.59 0 0 0-.032-.422c-.062-.135-.156-.203-.281-.203l-.656.032c-.521.041-.927.062-1.219.062l-.469-.031A7.157 7.157 0 0 1 4.578 1.75 6.942 6.942 0 0 1 8 .875c.917 0 1.792.167 2.625.5a7.354 7.354 0 0 1 2.219 1.375 1.143 1.143 0 0 0-.875.25c-.292.25-.438.594-.438 1.031 0 .23.052.469.156.719.084.167.22.417.407.75l.156.219c.292.5.438 1.156.438 1.968 0 .48-.188 1.292-.563 2.438-.14.422-.281.82-.422 1.195l-.14.367L9.124 4.97c.188 0 .354-.021.5-.063l.156-.062c.125-.021.209-.115.25-.282a.85.85 0 0 0-.015-.484c-.052-.156-.141-.224-.266-.203l-.688.031c-.5.042-.906.063-1.218.063-.401 0-.93-.024-1.586-.072l-.29-.022c-.124-.02-.213.052-.265.219a.908.908 0 0 0-.016.5c.042.166.125.25.25.25l.72.062 1.03 2.719-1.468 4.656Zm5.375 1.938L13.938 8v-.031c.166-.438.28-.834.343-1.188.104-.646.104-1.375 0-2.187A7.055 7.055 0 0 1 15.125 8a7.14 7.14 0 0 1-.953 3.625 6.924 6.924 0 0 1-2.578 2.594Zm-6.719.25a6.92 6.92 0 0 1-2.906-2.625A7.11 7.11 0 0 1 .875 8c0-1.042.198-2 .594-2.875l3.406 9.344ZM8 15.125c-.646 0-1.26-.094-1.844-.281l1.938-5.688 2.062 5.594A6.436 6.436 0 0 1 8 15.125Z"/></svg>
