<svg xmlns="http://www.w3.org/2000/svg" width="490" height="363"><g fill="#FFF" fill-rule="nonzero"><path d="M162.555 362.916c11.132 0 17.898-6.766 18.553-15.278v-.291c-10.986-4.584-15.424-13.969-16.443-16.297-.29-.655-.655-1.6-.655-2.256 0-1.236.874-2.182 1.965-2.182 1.018 0 1.746.51 2.182 1.455 4.002 9.894 13.533 17.388 25.1 17.388 19.79 0 33.613-14.914 33.613-41.47 0-26.555-13.824-41.47-33.613-41.47-11.64 0-20.953 6.258-25.245 17.098-.51 1.31-1.091 1.964-2.183 1.964-1.237 0-2.037-.946-2.037-2.182 0-2.91 4.147-9.75 8.585-13.605-2.546-1.892-6.111-3.274-9.822-3.274-11.35 0-18.843 7.275-18.843 17.533v64.824c0 10.768 7.785 18.043 18.843 18.043Zm26.92-45.762c-1.529 0-2.183-1.091-2.183-2.474V292.71c0-1.455.654-2.474 2.182-2.474s2.183 1.019 2.183 2.474v21.971c0 1.383-.655 2.474-2.183 2.474Zm59.876 27.937c11.495 0 18.77-8.003 18.77-19.498v-55.436c-5.13 1.693-11.4 2.592-18.807 2.698-8.714 0-14.983-.395-18.806-1.187v53.925c0 11.495 7.493 19.498 18.843 19.498ZM323.996 344c9.385 0 16.152-5.966 16.152-15.206 0-7.493-4.511-14.696-14.915-15.496-3.565 5.093-8.949 8.949-10.84 10.113-.728.436-1.674 1.091-2.547 1.091-1.164 0-2.182-.873-2.182-2.037 0-.873.436-1.528 1.164-1.964 4.438-2.838 8.075-5.748 10.695-9.677l9.967-14.987c4.001-5.966 7.275-12.223 7.275-16.079 0-9.385-6.548-15.787-16.078-15.787h-35.14c-9.386 0-16.152 5.966-16.152 15.205 0 7.93 5.093 16.224 18.843 16.224 4.875 0 8.294-.509 12.296-2.182.8-.291 1.455-.51 1.964-.51 1.164 0 2.11.946 2.11 2.11 0 .946-.582 1.674-1.382 2.038-2.983 1.31-8.585 3.2-16.588 2.764l-8.585 12.514c-4.001 5.82-7.275 12.222-7.275 16.078 0 9.386 6.547 15.788 16.078 15.788h35.14Zm70.717 0c9.385 0 16.151-5.966 16.151-15.206 0-7.493-4.51-14.696-14.914-15.496-3.565 5.093-8.949 8.949-10.84 10.113-.728.436-1.674 1.091-2.547 1.091-1.164 0-2.182-.873-2.182-2.037 0-.873.436-1.528 1.164-1.964 4.438-2.838 8.075-5.748 10.694-9.677l9.968-14.987c4.001-5.966 7.275-12.223 7.275-16.079 0-9.385-6.548-15.787-16.079-15.787h-35.14c-9.385 0-16.15 5.966-16.15 15.205 0 7.93 5.092 16.224 18.842 16.224 4.875 0 8.294-.509 12.296-2.182.8-.291 1.455-.51 1.964-.51 1.164 0 2.11.946 2.11 2.11 0 .946-.582 1.674-1.382 2.038-2.983 1.31-8.585 3.2-16.588 2.764l-8.585 12.514c-4.002 5.82-7.276 12.222-7.276 16.078 0 9.386 6.548 15.788 16.079 15.788h35.14Zm76.028 1.455c11.35 0 18.843-7.494 18.843-18.043v-29.974c0-21.172-14.478-34.922-36.886-34.922-22.263 0-39.505 11.058-39.505 25.39 0 9.24 7.42 14.479 15.642 14.479 7.784 0 14.405-5.748 14.841-14.042.146-1.891.874-2.619 2.183-2.619 1.31 0 2.11.873 2.11 2.983 0 9.094-8.221 18.043-19.062 18.043-3.273 0-6.984-.727-9.821-2.255-3.056 4.001-4.657 8.075-4.657 14.114 0 15.933 10.986 26.846 25.464 26.846 12.005 0 19.426-8.44 23.645-19.061.655-1.528 1.455-1.82 2.256-1.82 1.018 0 2.037.801 2.037 2.11 0 .437-.146.946-.437 1.82-1.455 3.855-4.802 9.457-7.93 12.804 2.037 2.401 7.057 4.147 11.277 4.147Zm-17.388-26.482c-1.528 0-2.183-1.092-2.183-2.474v-8.876c0-1.455.655-2.474 2.183-2.474 1.528 0 2.182 1.019 2.182 2.474v8.876c0 1.382-.654 2.474-2.182 2.474ZM18.843 267.916c11.132 0 17.898-6.766 18.552-15.278v-.291c-10.985-4.584-15.423-13.97-16.442-16.297-.29-.655-.655-1.6-.655-2.256 0-1.236.873-2.182 1.965-2.182 1.018 0 1.746.51 2.182 1.455 4.002 9.894 13.532 17.388 25.1 17.388 19.79 0 33.613-14.914 33.613-41.47 0-26.555-13.824-41.47-33.613-41.47-11.64 0-20.953 6.258-25.245 17.098-.51 1.31-1.092 1.964-2.183 1.964-1.237 0-2.037-.946-2.037-2.182 0-2.91 4.147-9.75 8.585-13.605-2.546-1.892-6.111-3.274-9.822-3.274C7.493 167.516 0 174.79 0 185.049v64.824c0 10.768 7.785 18.043 18.843 18.043Zm26.92-45.762c-1.529 0-2.183-1.091-2.183-2.474V197.71c0-1.455.654-2.474 2.182-2.474s2.183 1.019 2.183 2.474v21.971c0 1.383-.655 2.474-2.183 2.474Zm59.876 27.937c11.495 0 18.77-8.003 18.77-19.498v-67.952c0-11.495-7.494-19.498-18.77-19.498-11.35 0-18.844 8.003-18.844 19.498v67.952c0 11.495 7.494 19.498 18.844 19.498Zm82.139.364c11.35 0 18.843-8.076 18.843-19.57V187.45c0-11.495-7.42-19.57-18.625-19.57-10.84 0-18.116 8.075-18.116 19.57v28.593c0 1.455-.654 2.473-2.182 2.473s-2.183-1.018-2.183-2.473V187.45c0-11.495-7.275-19.57-18.188-19.57-11.132 0-18.553 8.075-18.553 19.57v32.303c0 19.935 10.186 30.702 25.319 30.702 6.766 0 12.732-2.546 17.46-7.13 2.765-2.619 4.948-6.257 6.767-10.185.509-1.092 1.31-1.746 2.4-1.746 1.02 0 1.892.945 1.892 1.891 0 .8-.145 1.31-.364 1.892-.873 2.182-3.346 6.984-7.493 11.131 2.983 2.474 7.348 4.147 13.023 4.147Zm58.93 17.461c26.192 0 41.543-10.258 41.543-27.21 0-11.35-4.22-20.007-13.023-24.372-6.548 3.928-16.442 5.965-22.918 5.965-4.438 0-9.676-.582-11.931-1.31-.873-.29-1.6-1.163-1.6-2.11 0-1.236.945-2.109 2.255-2.109 1.527 0 4.656 1.164 11.276 1.164 16.807 0 32.667-9.24 32.667-24.009 0-2.255-.291-4.438-.873-5.893-2.838 1.892-7.057 3.202-10.622 3.202-3.856 0-6.912-1.019-6.912-2.91 0-1.165.946-2.038 2.11-2.038 1.31 0 2.255.582 4.656.582 8.367 0 17.316-7.857 17.316-16.951 0-7.203-5.166-13.678-14.115-13.678-9.167 0-13.604 7.203-13.75 13.678-5.311-1.82-10.04-2.401-15.06-2.401-22.626 0-37.104 9.53-37.104 24.3 0 8.075 3.71 14.478 10.258 18.479-5.675 2.4-9.167 7.203-9.167 13.168 0 11.568 12.732 18.334 35.431 18.334 9.603 0 15.86-1.964 17.46-1.964 1.238 0 2.183.946 2.183 2.11s-.727 1.819-2.11 2.182c-2.691.728-8.875 2.038-17.533 2.038-12.44 0-21.899-1.82-29.538-5.82-3.565 2.255-5.893 5.82-5.893 10.621 0 10.404 11.35 16.952 34.994 16.952Zm.946-67.734c-1.528 0-2.182-1.091-2.182-2.473v-10.331c0-1.456.654-2.474 2.182-2.474s2.183 1.018 2.183 2.474v10.33c0 1.383-.655 2.474-2.183 2.474Zm63.587-22.48c12.077 0 19.353-8.076 19.353-18.48 0-10.258-7.276-18.625-19.353-18.625-12.077 0-19.425 8.367-19.425 18.625 0 10.404 7.348 18.48 19.425 18.48Zm0 72.39c11.495 0 18.77-8.004 18.77-19.499v-43.87c0-3.929-.872-7.421-2.473-10.331-4.001 3.492-9.603 5.675-16.297 5.675-6.693 0-12.295-2.183-16.37-5.748-1.6 2.983-2.473 6.475-2.473 10.404v43.87c0 11.495 7.494 19.498 18.843 19.498Zm82.503 0c11.131 0 18.552-8.076 18.552-19.571v-32.303c0-19.935-10.185-30.702-25.318-30.702-6.766 0-12.732 2.546-17.461 7.13-2.765 2.619-4.947 6.256-6.766 10.185-.51 1.091-1.31 1.746-2.401 1.746-1.019 0-1.892-.946-1.892-1.891 0-.8.146-1.31.364-1.892.873-2.183 3.347-6.984 7.494-11.131-2.983-2.474-7.348-4.147-13.023-4.147-11.35 0-18.843 8.075-18.843 19.57v43.435c0 11.495 7.42 19.57 18.625 19.57 10.84 0 18.115-8.075 18.115-19.57v-28.593c0-1.455.655-2.473 2.183-2.473 1.528 0 2.183 1.018 2.183 2.473v28.593c0 11.495 7.275 19.57 18.188 19.57ZM219.214 1.89c41.611 8.845 68.153 49.716 59.308 91.327-8.845 41.611-49.715 68.153-91.326 59.308-41.612-8.844-68.153-49.715-59.309-91.326 8.845-41.612 49.716-68.153 91.327-59.308Zm-2.08 9.782c-36.206-7.696-71.77 15.399-79.465 51.606-7.696 36.207 15.398 71.77 51.606 79.466 36.207 7.696 71.77-15.399 79.466-51.606 7.696-36.207-15.399-71.77-51.606-79.466Z"/><path d="M216.2 16.074c33.775 7.179 55.318 40.353 48.139 74.128-7.18 33.776-40.353 55.32-74.129 48.14-33.775-7.18-55.319-40.353-48.14-74.129 7.18-33.775 40.354-55.319 74.13-48.14Zm16.725 73.898c-1.59-.338-3.282.432-4.128 1.914-6.542 11.703-18.217 16.598-31.634 13.746-13.545-2.879-21.874-12.16-23.308-25.424-.17-1.698-1.403-3.09-2.993-3.428-2.035-.432-4.117.92-4.563 3.018-.689 3.243 1.597 12.502 7.016 19.835 5.307 7.242 14.304 11.813 22.253 13.503 6.041 1.284 11.907 1.202 17.29-.047l.013-.004 4.107 6.263c1.716 2.558 4.243 4.425 7.296 5.074 6.295 1.338 12.477-2.732 13.815-9.027.622-2.925.085-6.03-1.604-8.715l-4.088-6.349.636-.796c1.473-1.903 2.561-3.67 2.833-4.95.42-1.971-.651-4.126-2.94-4.613Zm-4.149 14.205 3.405 5.243c1.001 1.542 1.3 3.267.948 4.92-.797 3.752-4.481 5.76-7.788 5.058-1.717-.365-3.235-1.352-4.173-2.88l-3.24-5.076c1.742-.693 3.461-1.59 5.067-2.579 1.76-1.088 3.845-2.771 5.781-4.686Zm-22.909-39.496c-5.277-1.122-10.43 2.17-11.565 7.51-.433 2.036.792 4.09 2.954 4.55 2.035.433 4.117-.92 4.55-2.954a2.054 2.054 0 0 1 2.467-1.603c1.144.244 1.909 1.337 1.665 2.481-.432 2.035.856 4.103 2.955 4.55 2.098.446 4.116-.92 4.549-2.955 1.135-5.341-2.297-10.457-7.575-11.58Zm20.758-9.479c-5.278-1.122-10.43 2.17-11.566 7.511-.433 2.035.792 4.09 2.954 4.55 2.035.432 4.117-.92 4.55-2.955a2.054 2.054 0 0 1 2.467-1.602c1.144.243 1.909 1.336 1.666 2.48-.433 2.036.855 4.104 2.954 4.55 2.098.446 4.117-.92 4.55-2.954 1.135-5.342-2.297-10.458-7.575-11.58Zm-35.928-7.637c-5.278-1.121-10.43 2.17-11.566 7.511-.433 2.035.792 4.09 2.954 4.55 2.035.432 4.117-.92 4.55-2.955a2.054 2.054 0 0 1 2.467-1.602c1.144.243 1.909 1.336 1.666 2.48-.433 2.036.855 4.104 2.954 4.55 2.098.446 4.117-.92 4.55-2.954 1.135-5.342-2.297-10.458-7.575-11.58Z"/></g></svg>
