<?xml version="1.0" encoding="UTF-8"?>
<svg width="243px" height="95px" viewBox="0 0 243 95" version="1.1" xmlns="http://www.w3.org/2000/svg" xmlns:xlink="http://www.w3.org/1999/xlink">
    <!-- Generator: Sketch 62 (91390) - https://sketch.com -->
    <title>logo-plugin-pizza-red</title>
    <desc>Created with Sketch.</desc>
    <g id="Page-3-with-vector-chef" stroke="none" stroke-width="1" fill="none" fill-rule="evenodd">
        <g id="Tablet" transform="translate(-769.000000, -1007.000000)" fill="#AD1B16" fill-rule="nonzero">
            <g id="logo-plugin-pizza-red" transform="translate(891.585815, 1050.846029) rotate(-16.000000) translate(-891.585815, -1050.846029) translate(773.585815, 999.346029)">
                <path d="M8.91228104,51.477706 C9.42997161,51.477706 9.68881689,51.2541578 9.68881689,50.8070614 C9.68881689,50.359965 9.6652855,50.0187598 9.61822272,49.7834459 C10.6536039,47.4773698 15.2186934,40.8885808 23.3134913,30.0170789 C24.7253747,32.6525945 27.0196851,33.9703523 30.1964227,33.9703523 C33.3731602,33.9703523 37.1146511,32.8761427 41.4208954,30.6877235 C45.7271396,28.4993043 49.3862706,25.852023 52.3982885,22.7458796 C55.4103063,19.6397362 56.9163152,16.8865637 56.9163152,14.486362 C56.9163152,12.0861603 56.269202,9.92127245 54.9749756,7.99169853 C53.6807492,6.0621246 52.0217862,4.5325843 49.9980868,3.40307761 C45.8094995,1.14406424 41.4326611,0.0145575544 36.8675715,0.0145575544 C32.302482,0.0145575544 27.6197355,0.744030623 22.8193321,2.20297676 C18.0189287,3.6619229 14.0068268,5.45030848 10.7830265,7.56813352 C7.55922616,9.68595856 4.95900764,11.9214405 2.98237094,14.2745795 C1.00573424,16.6277184 0.017415887,18.8043719 0.017415887,20.80454 C0.017415887,22.8047081 0.711591871,24.3813112 2.09994384,25.5343492 C3.48829581,26.6873873 4.90017917,27.2639064 6.33559391,27.2639064 C7.77100866,27.2639064 9.25348619,26.8991698 10.7830265,26.1696968 C12.3125668,25.4402237 13.6891531,24.5577966 14.9127853,23.5224155 C16.1364176,22.4870343 17.2659242,21.4163561 18.3013054,20.3103808 C19.3366865,19.2044055 20.1485194,18.26315 20.7368042,17.4866141 C21.3250889,16.7100783 21.6192313,16.2629819 21.6192313,16.1453249 C21.6192313,16.027668 21.5604028,15.9688395 21.4427458,15.9688395 C21.3250889,15.9688395 21.1015407,16.0629651 20.7721012,16.2512162 C16.2540745,18.8867318 11.6419222,20.9810254 6.93564434,22.5340971 C5.4766982,23.0047249 4.58250541,23.2400388 4.25306596,23.2400388 C3.92362651,23.2400388 3.75890679,23.0635534 3.75890679,22.7105825 C3.75890679,22.3576117 4.35895721,21.6046072 5.55905807,20.4515692 C6.75915892,19.2985311 8.53577881,17.9572419 10.8889177,16.4277016 C13.2420567,14.8981613 15.889338,13.4274495 18.8307616,12.0155661 C21.7721853,10.6036827 25.2195338,9.41534758 29.1728072,8.45056062 C33.1260806,7.48577366 36.8087431,7.00338018 40.2207945,7.00338018 C43.632846,7.00338018 46.8213492,7.37988241 49.7863043,8.13288686 C52.7512593,8.88589132 54.2337368,10.0389294 54.2337368,11.5920011 C54.2337368,13.4745122 53.0806988,15.5099774 50.7746226,17.6983966 C48.4685465,19.8868158 45.7389053,21.7928584 42.5856991,23.4165242 C39.432493,25.0401901 36.2439897,26.393245 33.0201894,27.4756889 C29.796389,28.5581328 27.2432333,29.0993547 25.3607222,29.0993547 C24.9371572,29.0993547 24.7253747,28.934635 24.7253747,28.6051956 C24.7253747,28.4640072 24.7724374,28.3228189 24.866563,28.1816305 L24.866563,28.1816305 L33.267269,18.4396354 C33.9732106,17.6395681 36.0910357,15.4040862 39.6207441,11.7331894 C39.8089952,11.5449383 39.9031207,11.286093 39.9031207,10.9566536 C39.9031207,10.6272141 39.7031039,10.3448375 39.3030703,10.1095236 C38.9030367,9.87420967 38.5147688,9.75655272 38.1382666,9.75655272 C37.7617643,9.75655272 37.197011,9.94480384 36.4440065,10.3213061 C32.8201726,12.2979428 26.9020282,17.8513506 18.6895733,26.9815297 C10.4771184,36.1117087 6.15910849,42.22987 5.73554349,45.3360133 C5.68848071,45.61839 5.66494932,45.9948922 5.66494932,46.46552 C5.66494932,48.0656545 6.07674863,49.3010524 6.90034726,50.1717138 C7.72394588,51.0423752 8.39459048,51.477706 8.91228104,51.477706 Z M50.6334343,49.8540401 C51.5276271,49.8540401 52.3982885,49.7363831 53.2454185,49.5010693 C55.8809341,48.701002 59.9753958,46.0654864 65.5288037,41.5945224 C67.6466287,39.9002624 69.9291735,38.0177513 72.376438,35.946989 C74.8237025,33.8762268 76.4826654,32.440812 77.3533268,31.6407448 C78.2239882,30.8406775 78.8946328,30.2288614 79.3652606,29.8052964 C79.8358884,29.3817314 80.0712023,28.934635 80.0712023,28.4640072 C80.0712023,27.9933794 79.8594198,27.5933458 79.4358548,27.2639064 L79.4358548,27.2639064 L73.7177272,31.4289623 C69.9527049,34.2056662 65.7758833,36.9823701 61.1872624,39.7590741 C56.5986415,42.535778 53.5277952,43.92413 51.9747235,43.92413 C51.1746562,43.92413 50.7746226,43.1946569 50.7746226,41.7357108 C50.7746226,39.4766974 52.3512257,37.3118096 55.5044319,35.2410473 C59.3635797,32.7937828 63.5404013,29.8405935 68.0348967,26.3814793 C72.529392,22.922365 76.4944311,19.2867654 79.9300139,15.4746803 C83.2714712,11.8037836 84.9421999,9.42711327 84.9421999,8.34466937 L84.9421999,8.34466937 L84.589229,7.63872769 C84.4009779,7.12103712 84.0715385,6.61511225 83.6009107,6.12095308 C83.1302829,5.6267939 82.6125923,5.37971431 82.047839,5.37971431 C81.4830856,5.37971431 80.8477381,5.49737126 80.1417965,5.73268515 C75.5767069,7.52107074 71.2822284,9.85067828 67.2583608,12.7215078 C63.2344932,15.5923373 59.9165673,18.4631668 57.3045831,21.3339963 C54.6925989,24.2048258 52.4100542,27.0756552 50.4569488,29.9464847 C48.5038435,32.8173142 47.1037259,35.2645787 46.2565959,37.2882782 C45.4094658,39.3119777 44.9859008,40.8179866 44.9859008,41.8063049 C44.9859008,45.3830761 45.597717,47.6891523 46.8213492,48.7245334 C47.4331653,49.1951612 47.9979187,49.5010693 48.5156092,49.6422576 C49.0332998,49.7834459 49.7392415,49.8540401 50.6334343,49.8540401 Z M58.3281986,29.3111372 C58.234073,29.3111372 58.1870102,29.2523088 58.1870102,29.1346518 C58.1870102,29.0169949 58.2811358,28.8405094 58.4693869,28.6051956 C60.0224586,26.4403077 62.8344596,23.4282899 66.90539,19.5691421 C70.9763203,15.7099942 74.2354177,12.9803531 76.6826822,11.3802186 L76.6826822,11.3802186 L77.8827831,10.8154652 L77.9533772,10.9566536 C77.9533772,11.6155325 74.9766565,14.8393328 69.023215,20.6280546 C63.0697735,26.4167763 59.504768,29.3111372 58.3281986,29.3111372 Z M78.5887248,49.8540401 C79.5770431,49.8540401 80.4947673,49.7363831 81.3418973,49.5010693 C83.9774129,48.701002 88.0718746,46.0654864 93.6252825,41.5945224 C95.7431076,39.9002624 98.0256523,38.0177513 100.472917,35.946989 C102.920181,33.8762268 104.579144,32.440812 105.449806,31.6407448 C106.320467,30.8406775 106.991112,30.2288614 107.461739,29.8052964 C107.932367,29.3817314 108.167681,28.934635 108.167681,28.4640072 C108.167681,27.9933794 107.955899,27.5933458 107.532334,27.2639064 C99.1080962,33.5232559 91.3898005,38.5354418 84.3774465,42.3004641 C83.8126932,42.5828408 83.4244253,42.7240291 83.2126428,42.7240291 C83.0008603,42.7240291 82.894969,42.6063722 82.894969,42.3710583 C82.894969,40.8650494 86.2128949,36.9353074 92.8487467,30.5818323 C95.0606973,28.4640072 96.1666726,27.240375 96.1666726,26.9109355 C96.1666726,26.1108683 95.0371659,25.7108347 92.7781525,25.7108347 C91.601583,25.7108347 90.8956414,26.1343997 90.6603275,26.9815297 C89.6720091,28.2051619 87.4482928,30.1582672 83.9891786,32.8408456 C80.5300644,35.523424 77.4592181,37.7824374 74.7766397,39.6178857 C73.7883213,40.2297019 73.105911,40.5356099 72.7294088,40.5356099 C72.3529066,40.5356099 72.1646555,40.3708902 72.1646555,40.0414508 C72.1646555,39.7120113 72.4587978,39.0531324 73.0470826,38.0648141 C73.6353673,37.0764957 74.647217,35.8410978 76.0826318,34.3586202 C77.5180465,32.8761427 78.7063817,31.6642762 79.6476373,30.7230206 C80.5888928,29.781765 81.0595206,29.0758233 81.0595206,28.6051956 C81.0595206,28.1345678 80.8477381,27.7110028 80.4241731,27.3345005 C80.0006081,26.9579983 79.5299803,26.7697472 79.0122898,26.7697472 C77.6004064,26.81681 75.2472675,28.5816642 71.952873,32.0643098 C68.6584785,35.5469554 66.1876826,39.029601 64.5404853,42.5122466 C63.8345437,44.0182555 63.4815728,45.2889506 63.4815728,46.3243317 C63.4815728,48.0656545 64.4228284,48.9363159 66.3053395,48.9363159 C67.0112812,48.9363159 67.9172397,48.6068765 69.023215,47.9479976 C70.1291903,47.2891187 71.1175087,46.583177 71.9881701,45.8301725 C72.8588315,45.0771681 73.9530411,44.077084 75.2707989,42.8299204 C76.5885567,41.5827568 77.3650925,40.9591749 77.6004064,40.9591749 C77.8827831,40.9591749 78.0239714,41.0062377 78.0239714,41.1003633 C78.0239714,41.1944888 78.00044,41.2768487 77.9533772,41.3474429 C77.9063145,41.418037 77.8592517,41.5003969 77.8121889,41.5945224 C77.7651261,41.688648 77.7062977,41.8180706 77.6357035,41.9827904 C77.5651093,42.1475101 77.306264,42.7475605 76.8591676,43.7829417 C76.4120712,44.8183228 76.188523,45.5948586 76.188523,46.1125492 C76.188523,48.6068765 76.9885903,49.8540401 78.5887248,49.8540401 Z M81.0595206,74.9855639 C83.3655968,74.5149361 85.7775642,73.3971951 88.2954228,71.6323409 C90.8132815,69.8674867 92.9664036,68.0320383 94.7547892,66.1259958 C96.5431748,64.2199533 98.3197947,62.0903625 100.084649,59.7372236 C101.849503,57.3840847 103.014307,55.7486531 103.57906,54.8309289 C104.143814,53.9132047 105.120366,52.4424929 106.508718,50.4187934 C107.89707,48.395094 110.591414,44.6889001 114.59175,39.300212 C118.592087,33.9115238 120.792271,31.0289287 121.192305,30.6524264 C121.592339,30.2759242 121.792356,29.8641249 121.792356,29.4170285 C121.792356,28.9699321 121.439385,28.4875386 120.733443,27.969848 C120.074564,27.4050947 119.603936,27.122718 119.32156,27.122718 C119.039183,27.122718 118.850932,27.1462494 118.756806,27.1933122 C118.192053,26.2520566 116.944889,25.5696463 115.015315,25.1460813 C111.720921,25.5225836 108.508886,26.6756216 105.379211,28.6051956 C102.249537,30.5347695 99.696381,32.6290631 97.7197443,34.8880765 C95.7431076,37.1470899 94.1429731,39.2413835 92.9193408,41.1709574 C91.6957086,43.1005314 91.0838925,44.5477118 91.0838925,45.5124988 C91.0838925,46.4772857 91.4368633,47.3832442 92.142805,48.2303742 C92.8487467,49.0775042 93.837065,49.5010693 95.10776,49.5010693 C96.3784551,49.5010693 98.0491837,48.8068933 100.119946,47.4185413 C102.190708,46.0301893 103.66142,44.924214 104.532081,44.1006154 C105.402743,43.2770168 106.073387,42.6299036 106.544015,42.1592758 C107.014643,41.688648 107.320551,41.4533341 107.461739,41.4533341 C107.508802,41.4533341 107.344082,41.7592422 106.96758,42.3710583 C106.826392,42.6063722 106.708735,42.7710919 106.614609,42.8652175 C106.520484,42.959343 106.44989,43.0534686 106.402827,43.1475941 L106.402827,43.1475941 L104.990944,44.6300717 C102.449554,47.31265 100.261134,49.9011029 98.4256859,52.3954301 C97.3903048,53.8073135 94.5900695,57.0546452 90.02498,62.1374253 C85.8834554,66.3730754 82.6831865,69.2909677 80.4241731,70.8911021 C79.4829176,71.5029182 78.8711014,71.8088263 78.5887248,71.8088263 C78.3063481,71.8088263 78.1651597,71.7147007 78.1651597,71.5264496 C78.1651597,70.1616291 79.8241227,67.8673186 83.1420486,64.6435183 C86.4599745,61.4197179 90.1426369,58.4194658 94.1900359,55.6427619 C94.6606636,55.3133224 94.8959775,55.0780085 94.8959775,54.9368202 C94.8959775,54.7956318 94.7077264,54.7250377 94.3312242,54.7250377 C91.8368969,54.7250377 88.0365776,56.5722517 82.9302661,60.2666799 C77.8239546,63.961108 75.2707989,67.1731426 75.2707989,69.9027838 C75.2707989,72.0676716 76.2120544,73.5501491 78.0945656,74.3502164 C79.0828839,74.7737814 80.0712023,74.9855639 81.0595206,74.9855639 Z M98.8492509,42.8652175 C98.6609998,42.8652175 98.5668743,42.7946233 98.5668743,42.653435 C98.5668743,42.1357444 99.5081298,40.9121122 101.390641,38.9825382 C103.273152,37.0529643 105.720417,35.0527962 108.732434,32.982034 C111.744452,30.9112717 114.474093,29.6170453 116.921358,29.0993547 C117.109609,29.0993547 117.203735,29.1464175 117.203735,29.2405431 C117.203735,29.5699825 115.968337,30.8171461 113.497541,32.982034 C111.026745,35.1469218 108.273572,37.3118096 105.238023,39.4766974 C102.202474,41.6415852 100.072883,42.7710919 98.8492509,42.8652175 Z M136.193566,21.3339963 C137.323072,21.3339963 138.487876,20.9457283 139.687977,20.1691925 C140.888078,19.3926566 141.688145,18.7808405 142.088179,18.3337441 C142.488212,17.8866477 142.829418,17.4866141 143.111794,17.1336433 C143.394171,16.7806724 143.535359,16.3571074 143.535359,15.8629482 C143.535359,15.3687891 143.20592,14.7216759 142.547041,13.9216086 C142.405853,13.7333575 142.099944,13.639232 141.629317,13.639232 C140.546873,13.639232 139.158521,14.3098766 137.464261,15.6511657 C135.770001,16.9924549 134.922871,18.3690412 134.922871,19.7809246 C134.922871,20.6751174 135.346436,21.1928079 136.193566,21.3339963 Z M123.55721,49.8540401 C124.545528,49.8540401 125.463252,49.7363831 126.310382,49.5010693 C128.945898,48.701002 133.04036,46.0654864 138.593767,41.5945224 C140.711593,39.9002624 142.994137,38.0177513 145.441402,35.946989 C147.888666,33.8762268 149.547629,32.440812 150.418291,31.6407448 C151.288952,30.8406775 151.959597,30.2288614 152.430224,29.8052964 C152.900852,29.3817314 153.136166,28.934635 153.136166,28.4640072 C153.136166,27.9933794 152.924384,27.5933458 152.500819,27.2639064 C144.076581,33.5232559 135.464093,38.9590068 126.663353,43.5711591 C125.863286,43.8535358 125.298533,43.9947242 124.969093,43.9947242 C124.40434,43.9947242 124.121963,43.7358789 124.121963,43.2181883 C124.121963,42.7004977 124.310214,42.112213 124.686716,41.4533341 C125.298533,39.8061369 126.510399,37.7706717 128.322316,35.3469386 C130.134233,32.9232055 131.499054,31.2171798 132.416778,30.2288614 C133.334502,29.2405431 134.016912,28.51107 134.464009,28.0404422 C134.911105,27.5698144 135.134653,27.2168436 135.134653,26.9815297 C135.134653,26.7462158 134.993465,26.5579647 134.711088,26.4167763 C133.816895,26.0402741 132.87564,25.852023 131.887322,25.852023 C130.899003,25.852023 129.981279,26.1108683 129.134149,26.6285589 C128.569396,26.8638727 127.416358,28.0522079 125.675035,30.1935643 C123.933712,32.3349208 122.239452,34.8057166 120.592255,37.605952 C118.945057,40.4061873 118.121459,42.5593094 118.121459,44.0653183 C118.121459,47.9244662 119.933376,49.8540401 123.55721,49.8540401 Z M157.089439,50.8423584 C158.971951,50.8423584 162.278111,49.0069101 167.00792,45.3360133 C171.737729,41.6651166 175.255672,38.7354586 177.561748,36.5470394 C179.867824,34.3586202 181.773867,32.5349376 183.279876,31.0759914 C183.703441,30.6994892 183.915223,30.2759242 183.915223,29.8052964 C183.915223,29.3346686 183.703441,28.934635 183.279876,28.6051956 C180.785548,30.3465184 177.879422,32.4761091 174.561496,34.9939677 C171.24357,37.5118264 168.584523,39.453166 166.584355,40.8179866 C164.584187,42.1828072 162.866396,43.1946569 161.430981,43.8535358 C159.995566,44.5124147 159.007248,44.8418542 158.466026,44.8418542 C157.924804,44.8418542 157.654193,44.6300717 157.654193,44.2065067 C157.654193,43.4064394 157.795381,42.4651838 158.077758,41.3827399 C158.218946,41.0062377 158.477791,40.5473756 158.854294,40.0061537 C159.230796,39.4649317 159.572001,38.9825382 159.877909,38.5589732 C160.183817,38.1354082 160.689742,37.5235921 161.395684,36.7235249 C162.101625,35.9234576 162.736973,35.2057503 163.301726,34.5704027 C163.86648,33.9350552 164.725375,32.9937997 165.878413,31.746636 C167.031451,30.4994724 168.055067,29.3817314 168.94926,28.393413 C169.137511,28.1580992 169.231636,27.8521911 169.231636,27.4756889 C169.231636,27.0991866 168.996322,26.7932786 168.525695,26.5579647 L168.525695,26.5579647 L166.549058,25.9932113 C166.40787,25.8990858 166.113727,25.852023 165.666631,25.852023 C165.219534,25.852023 164.666547,26.0873369 164.007668,26.5579647 C160.47796,29.4287942 155.983464,32.7702515 150.524182,36.5823365 L150.524182,36.5823365 L150.171211,36.794119 C150.124148,36.794119 150.100617,36.7470563 150.100617,36.6529307 C150.100617,36.5588051 150.406525,36.1352401 151.018341,35.3822357 L151.018341,35.3822357 L156.312904,28.0404422 C156.548218,27.7110028 156.665874,27.3815633 156.665874,27.0521239 C156.665874,26.5814961 156.230544,26.1579311 155.359882,25.7814288 C154.489221,25.4049266 153.865639,25.2166755 153.489137,25.2166755 C152.971446,25.2166755 152.27727,25.8755544 151.406609,27.1933122 C150.535948,28.51107 149.477035,30.1817986 148.229871,32.2054981 C146.982708,34.2291976 145.794373,35.8058007 144.664866,36.9353074 C143.252983,38.9590068 140.805718,41.5709911 137.323072,44.77126 C137.087759,45.1477622 136.970102,45.5713272 136.970102,46.041955 C136.970102,47.4538384 137.746637,48.1597801 139.299709,48.1597801 C139.864462,48.1597801 140.33509,48.0421231 140.711593,47.8068092 C142.970606,46.6302398 148.194574,42.6299036 156.383498,35.8058007 C156.665874,35.5704868 156.807063,35.4881269 156.807063,35.5587211 C156.807063,35.6293153 156.665874,35.8763948 156.383498,36.2999599 L156.383498,36.2999599 L153.347949,40.4650158 C152.218442,42.0651502 151.653689,43.5946905 151.653689,45.0536367 C151.653689,48.9127845 153.465606,50.8423584 157.089439,50.8423584 Z" id="Plugin"></path>
                <path d="M107.516082,101.750712 C108.000681,101.750712 108.242981,101.541454 108.242981,101.122937 C108.242981,100.70442 108.220953,100.385025 108.176899,100.164753 C109.146096,98.0060856 113.419377,91.838465 120.996739,81.6618908 C122.318372,84.1289391 124.466026,85.3624632 127.4397,85.3624632 C130.413374,85.3624632 133.915702,84.3381976 137.946682,82.2896665 C141.977663,80.2411353 145.402895,77.7630734 148.222379,74.8554808 C151.041863,71.9478882 152.451605,69.3707039 152.451605,67.1239278 C152.451605,64.8771516 151.845856,62.8506477 150.634359,61.0444159 C149.422862,59.2381842 147.869944,57.8064151 145.975603,56.7491087 C142.054758,54.6344959 137.957696,53.5771895 133.684416,53.5771895 C129.411136,53.5771895 125.02772,54.2600332 120.534168,55.6257206 C116.040615,56.991408 112.284975,58.6654765 109.267246,60.647926 C106.249517,62.6303755 103.81551,64.7229611 101.965224,66.9256828 C100.114938,69.1284045 99.1897945,71.165922 99.1897945,73.0382355 C99.1897945,74.9105489 99.8395974,76.3863724 101.139203,77.465706 C102.438809,78.5450396 103.760442,79.0847065 105.104102,79.0847065 C106.447762,79.0847065 107.835477,78.7432846 109.267246,78.0604409 C110.699015,77.3775972 111.987607,76.5515765 113.133023,75.582379 C114.278438,74.6131815 115.335744,73.6109431 116.304942,72.5756639 C117.274139,71.5403847 118.034078,70.659296 118.584759,69.9323979 C119.135439,69.2054997 119.410779,68.7869826 119.410779,68.6768465 C119.410779,68.5667105 119.355711,68.5116424 119.245575,68.5116424 C119.135439,68.5116424 118.926181,68.5997513 118.6178,68.775969 C114.388574,71.2430173 110.07124,73.2034396 105.665796,74.6572359 C104.300109,75.0977802 103.463075,75.3180524 103.154694,75.3180524 C102.846312,75.3180524 102.692122,75.1528483 102.692122,74.82244 C102.692122,74.4920318 103.253816,73.7871608 104.377204,72.7078272 C105.500592,71.6284936 107.163647,70.3729422 109.366369,68.9411731 C111.56909,67.509404 114.047152,66.132703 116.800554,64.81107 C119.553956,63.489437 122.780944,62.3770625 126.481516,61.4739467 C130.182088,60.5708308 133.629348,60.1192728 136.823294,60.1192728 C140.017241,60.1192728 143.001929,60.4717083 145.777358,61.1765792 C148.552787,61.8814502 149.940502,62.9607838 149.940502,64.4145801 C149.940502,66.1767574 148.861168,68.0821117 146.702501,70.1306428 C144.543834,72.179174 141.988677,73.9633786 139.03703,75.4832565 C136.085383,77.0031345 133.100695,78.2696994 130.082966,79.2829514 C127.065237,80.2962034 124.675284,80.8028294 122.913107,80.8028294 C122.516617,80.8028294 122.318372,80.6486388 122.318372,80.3402578 C122.318372,80.2080945 122.362427,80.0759312 122.450535,79.9437679 L122.450535,79.9437679 L130.314252,70.8245002 C130.975068,70.0755748 132.957518,67.9829892 136.2616,64.5467434 C136.437818,64.3705257 136.525927,64.1282263 136.525927,63.8198452 C136.525927,63.5114642 136.338696,63.2471376 135.964233,63.0268654 C135.58977,62.8065933 135.226321,62.6964572 134.873886,62.6964572 C134.52145,62.6964572 133.992797,62.8726749 133.287926,63.2251104 C129.895735,65.0753966 124.35589,70.2738198 116.668391,78.8203799 C108.980892,87.36694 104.938898,93.0940163 104.542408,96.0016089 C104.498354,96.2659355 104.476327,96.618371 104.476327,97.0589153 C104.476327,98.5567661 104.861803,99.7131949 105.632755,100.528202 C106.403708,101.343209 107.031484,101.750712 107.516082,101.750712 Z M157.07732,73.5338478 C158.134627,73.5338478 159.224974,73.1703988 160.348362,72.4435006 C161.47175,71.7166024 162.220675,71.1438948 162.595138,70.7253777 C162.969601,70.3068606 163.288995,69.9323979 163.553322,69.6019896 C163.817648,69.2715814 163.949812,68.8750915 163.949812,68.4125199 C163.949812,67.9499484 163.641431,67.3441999 163.024669,66.5952746 C162.892505,66.4190568 162.606152,66.330948 162.165607,66.330948 C161.152355,66.330948 159.852749,66.9587236 158.26679,68.214275 C156.68083,69.4698263 155.88785,70.7584185 155.88785,72.0800515 C155.88785,72.9170858 156.28434,73.4016845 157.07732,73.5338478 Z M145.248705,100.230835 C146.173848,100.230835 147.032909,100.120698 147.825889,99.9004263 C150.292937,99.1515009 156.394476,90.0322332 148.156297,94.3495677 C147.407372,94.6138943 146.878719,94.7460576 146.570338,94.7460576 C146.041685,94.7460576 145.777358,94.5037582 145.777358,94.0191594 C145.777358,93.5345606 145.953576,92.9838802 146.306011,92.3671182 C146.878719,90.825213 148.01312,88.9198587 149.709216,86.6510554 C151.405312,84.3822521 152.68289,82.7852789 153.541952,81.8601358 C154.401013,80.9349927 155.039803,80.2521489 155.45832,79.8116046 C155.876837,79.3710603 156.086095,79.040652 156.086095,78.8203799 C156.086095,78.6001077 155.953932,78.42389 155.689605,78.2917267 C154.852571,77.9392912 153.971483,77.7630734 153.046339,77.7630734 C152.121196,77.7630734 151.262135,78.0053728 150.469155,78.4899716 C149.940502,78.7102438 148.861168,79.8226182 147.231154,81.8270949 C145.60114,83.8315717 144.015181,86.1444294 142.473275,88.7656682 C140.93137,91.386907 140.160418,93.4023973 140.160418,94.8121392 C140.160418,98.4246028 141.856513,100.230835 145.248705,100.230835 Z M156.410859,98.7554211 C159.49467,98.7554211 163.591732,98.0064957 168.702046,96.508645 C169.2307,96.3324273 169.891516,96.2443184 170.684496,96.2443184 C171.477476,96.2443184 172.149306,96.4425633 172.699986,96.8390532 C173.250667,97.2355431 173.636143,97.4337881 173.856415,97.4337881 C174.20885,97.4337881 174.385068,97.2575704 174.385068,96.9051349 C174.385068,95.9799918 173.26168,94.2178145 171.014904,91.6186029 C170.530305,91.1340041 169.583135,90.8917047 168.173393,90.8917047 C166.763651,90.8917047 165.210732,91.1450177 163.514637,91.6516437 C161.818541,92.1582697 160.849344,92.4115827 160.607044,92.4115827 C160.364745,92.4115827 160.243595,92.3895555 160.243595,92.345501 C161.565228,90.8917047 164.04329,88.9643233 167.677781,86.5633566 C171.312271,84.16239 174.84764,82.0587908 178.283886,80.252559 C178.72443,79.9882324 178.944702,79.6798514 178.944702,79.3274159 C178.944702,78.9749805 178.129695,77.9837557 176.499681,76.3537417 C175.971028,75.781034 174.462163,75.4946802 171.973088,75.4946802 C169.484012,75.4946802 166.323107,75.9131973 162.490371,76.7502316 C161.7855,76.9264493 161.433065,77.3339528 161.433065,77.9727421 C161.433065,78.6115314 162.049827,79.8120147 163.283351,81.574192 C163.679841,81.9706819 164.087344,82.1689269 164.505862,82.1689269 C164.924379,82.1689269 167.160141,81.772437 171.213149,80.9794572 L171.213149,80.9794572 L171.477476,80.9133755 C170.948822,81.4420287 168.547856,82.8517706 164.274576,85.1426011 C160.662112,87.0809962 157.886683,88.8101327 155.948288,90.3300107 C154.009893,91.8498887 153.040695,93.3146986 153.040695,94.7244404 C153.040695,95.6055291 153.48124,96.4976314 154.362328,97.4007473 C155.243417,98.3038632 155.926261,98.7554211 156.410859,98.7554211 Z M175.657312,98.3517803 C178.741122,98.3517803 182.838184,97.602855 187.948499,96.1050042 C188.477152,95.9287865 189.137968,95.8406776 189.930948,95.8406776 C190.723928,95.8406776 191.395758,96.0389226 191.946439,96.4354125 C192.497119,96.8319024 192.882595,97.0301473 193.102867,97.0301473 C193.455303,97.0301473 193.631521,96.8539296 193.631521,96.5014941 C193.631521,95.576351 192.508133,93.8141737 190.261356,91.2149621 C189.776758,90.7303633 188.829587,90.4880639 187.419846,90.4880639 C186.010104,90.4880639 184.457185,90.7413769 182.761089,91.2480029 C181.064993,91.7546289 180.095796,92.0079419 179.853497,92.0079419 C179.611197,92.0079419 179.490047,91.9859147 179.490047,91.9418603 C180.81168,90.4880639 183.289742,88.5606825 186.924233,86.1597159 C190.558724,83.7587492 194.094092,81.65515 197.530338,79.8489183 C197.970882,79.5845917 198.191155,79.2762106 198.191155,78.9237751 C198.191155,78.5713397 197.376147,77.5801149 195.746133,75.9501009 C195.21748,75.3773933 193.708616,75.0910394 191.21954,75.0910394 C188.730465,75.0910394 185.569559,75.5095566 181.736824,76.3465908 C181.031953,76.5228085 180.679517,76.930312 180.679517,77.5691013 C180.679517,78.2078906 181.296279,79.4083739 182.529803,81.1705513 C182.926293,81.5670412 183.333797,81.7652861 183.752314,81.7652861 C184.170831,81.7652861 186.406594,81.3687962 190.459601,80.5758164 L190.459601,80.5758164 L190.723928,80.5097348 C190.195275,81.038388 187.794308,82.4481298 183.521028,84.7389604 C179.908565,86.6773554 177.133135,88.406492 175.19474,89.9263699 C173.256345,91.4462479 172.287148,92.9110578 172.287148,94.3207997 C172.287148,95.2018883 172.727692,96.0939906 173.608781,96.9971065 C174.489869,97.9002224 175.172713,98.3517803 175.657312,98.3517803 Z M195.46828,99.0162545 C196.789913,99.0162545 198.51905,98.2563155 200.65569,96.7364376 C202.79233,95.2165596 204.301194,94.0050627 205.182283,93.1019468 C206.063372,92.1988309 206.79027,91.438892 207.362977,90.8221299 C207.539195,90.6459122 207.660345,90.5578033 207.726426,90.5578033 C207.792508,90.5578033 207.825549,90.6238849 207.825549,90.7560482 L207.825549,90.7560482 L207.296896,94.9852739 C207.296896,96.3509613 207.473113,97.2981316 207.825549,97.8267848 C208.177984,98.355438 208.772719,98.6197646 209.609754,98.6197646 C210.446788,98.6197646 212.561401,97.4082677 215.953592,94.9852739 C217.363334,93.9720219 218.960307,92.7495114 220.744512,91.3177423 C222.528716,89.8859732 224.114676,88.5863674 225.50239,87.4189249 C226.890105,86.2514824 228.332888,85.0289719 229.830738,83.7513933 C231.328589,82.4738147 232.330828,81.6147533 232.837454,81.1742089 C233.34408,80.7336646 233.77361,80.3592019 234.126046,80.0508209 C234.478481,79.7424399 234.654699,79.3679772 234.654699,78.9274328 C234.654699,78.4868885 234.456454,78.1124258 234.059964,77.8040448 C224.412043,84.940863 217.341307,89.5886057 212.847754,91.747273 C212.935863,90.9102388 213.464516,89.8088779 214.433714,88.4431905 C215.006422,87.6502107 215.557102,86.9343261 216.085755,86.2955368 C216.614408,85.6567476 217.495497,84.6104548 218.729021,83.1566585 C219.962545,81.7028621 221.041879,80.4032564 221.967022,79.2578411 C222.583784,78.7291879 222.892165,78.2445891 222.892165,77.8040448 C222.892165,77.3635004 222.760002,77.0220786 222.495675,76.7797792 C222.231349,76.5374798 221.967022,76.3943029 221.702696,76.3502485 C221.218097,75.8215953 220.79958,75.5572687 220.447144,75.5572687 C220.094709,75.5572687 219.698219,75.7775408 219.257674,76.2180852 C218.773076,75.0726699 218.112259,74.4779351 217.275225,74.4338806 C215.072503,74.4338806 212.484305,75.2709149 209.510631,76.9449833 C206.536957,78.6190518 203.838623,80.5904877 201.415629,82.859291 C198.992635,85.1280944 196.911063,87.4409521 195.170913,89.7978643 C193.430763,92.1547765 192.560688,93.9059402 192.560688,95.0513555 C192.560688,96.1967708 192.825014,97.0778594 193.353668,97.6946215 C193.882321,98.3113836 194.311851,98.6748327 194.64226,98.7849687 C194.972668,98.8951048 195.248008,98.9722001 195.46828,99.0162545 Z M200.556567,92.2098445 C200.468459,92.2098445 200.424404,92.1657901 200.424404,92.0776812 C200.424404,91.3287559 201.404615,89.8859732 203.365038,87.7493331 C205.32546,85.6126931 207.649331,83.5861892 210.336652,81.6698213 C213.023972,79.7534535 215.204667,78.7952695 216.878735,78.7952695 C217.010898,78.7952695 217.07698,78.8283104 217.07698,78.894392 C217.07698,78.9604737 216.988871,79.0816234 216.812653,79.2578411 L216.812653,79.2578411 L213.112081,82.495842 C210.689087,84.6545092 208.122916,86.8131764 205.413569,88.9718437 C202.704221,91.1305109 201.085221,92.2098445 200.556567,92.2098445 Z" id="Pizza" transform="translate(166.922247, 77.663951) rotate(1.000000) translate(-166.922247, -77.663951) "></path>
            </g>
        </g>
    </g>
</svg>