<svg xmlns="http://www.w3.org/2000/svg" width="292" height="222" viewBox="0 0 292 222"><g fill="#006732" fill-rule="nonzero"><path d="M16.495 179.108c.619-.087.89-.398.816-.933-.076-.535-.161-.939-.257-1.212.85-2.932 5.203-11.58 13.057-25.942 2.131 2.915 5.096 4.105 8.896 3.571 3.799-.533 8.09-2.471 12.872-5.812s8.713-7.122 11.793-11.343 4.419-7.767 4.015-10.637c-.403-2.871-1.54-5.351-3.413-7.441a17.284 17.284 0 0 0-6.723-4.652c-5.39-1.997-10.814-2.612-16.273-1.845-5.46.767-10.938 2.427-16.433 4.978-5.496 2.552-9.994 5.365-13.493 8.44-3.5 3.074-6.234 6.185-8.202 9.331C1.18 138.758.365 141.527.7 143.92c.336 2.392 1.432 4.161 3.286 5.307 1.854 1.145 3.64 1.598 5.356 1.356 1.717-.24 3.429-.926 5.135-2.056a23.012 23.012 0 0 0 4.494-3.86 48.585 48.585 0 0 0 3.513-4.41c1.052-1.498 1.865-2.76 2.438-3.787.573-1.028.85-1.612.83-1.753-.02-.14-.1-.2-.24-.181-.142.02-.393.17-.756.45-4.96 3.912-10.124 7.192-15.491 9.84-1.666.808-2.696 1.24-3.09 1.295-.394.055-.62-.128-.68-.55-.06-.422.532-1.424 1.773-3.004 1.242-1.581 3.141-3.484 5.698-5.708 2.557-2.225 5.476-4.43 8.757-6.612 3.28-2.183 7.203-4.184 11.77-6.002 4.565-1.818 8.888-3.014 12.969-3.588 4.08-.573 7.957-.659 11.63-.256 3.672.402 5.639 1.532 5.9 3.389.316 2.251-.72 4.88-3.11 7.884-2.391 3.005-5.335 5.743-8.833 8.215a82.78 82.78 0 0 1-10.758 6.463c-3.673 1.836-6.636 2.912-8.887 3.229-.507.071-.788-.09-.843-.484a.917.917 0 0 1 .097-.53l8.41-13.064c.71-1.075 2.867-4.105 6.471-9.088.194-.257.263-.582.207-.976-.055-.394-.342-.698-.86-.912-.518-.215-1.002-.29-1.452-.227-.45.063-1.094.383-1.931.96-4.002 2.973-10.147 10.61-18.434 22.91-8.287 12.299-12.422 20.342-12.407 24.128-.009.345.026.8.105 1.362.27 1.914.97 3.322 2.1 4.225 1.132.903 2.007 1.31 2.627 1.224Zm49.623-8.955c1.07-.15 2.09-.437 3.064-.86 3.018-1.4 7.472-5.24 13.362-11.521a391.62 391.62 0 0 0 7.24-7.905c2.579-2.888 4.322-4.884 5.228-5.987a341.637 341.637 0 0 1 2.098-2.533c.492-.586.698-1.16.619-1.723-.08-.563-.4-1.005-.962-1.328l-6.138 5.942c-4.036 3.954-8.565 7.976-13.586 12.069-5.021 4.092-8.46 6.268-10.318 6.53-.956.134-1.557-.672-1.803-2.416-.38-2.702 1.142-5.556 4.565-8.563 4.204-3.575 8.703-7.809 13.497-12.701 4.794-4.893 8.925-9.907 12.393-15.044 3.379-4.951 4.978-8.075 4.796-9.37l-.541-.784c-.312-.588-.791-1.137-1.437-1.65-.646-.511-1.307-.72-1.982-.625-.676.095-1.416.343-2.22.743a71.774 71.774 0 0 0-14.234 10.524c-4.33 4.11-7.815 8.1-10.456 11.973-2.642 3.872-4.889 7.69-6.742 11.45-1.853 3.762-3.117 6.925-3.79 9.487-.672 2.563-.926 4.435-.76 5.617.601 4.278 1.72 6.933 3.358 7.965.81.46 1.538.731 2.18.813.643.082 1.5.048 2.569-.103Zm5.75-25.861c-.113.016-.179-.047-.199-.187-.02-.141.063-.368.249-.681 1.493-2.85 4.35-6.925 8.57-12.225 4.22-5.3 7.659-9.112 10.317-11.437l1.34-.877.108.157c.111.788-2.907 5.144-9.054 13.068-6.147 7.923-9.924 11.984-11.331 12.182Zm27.683 21.163c1.182-.166 2.26-.461 3.233-.885 3.018-1.4 7.472-5.24 13.362-11.52a391.619 391.619 0 0 0 7.24-7.906c2.579-2.887 4.321-4.883 5.228-5.986a341.616 341.616 0 0 1 2.098-2.533c.492-.586.698-1.16.619-1.723-.08-.563-.4-1.006-.962-1.329-9.023 8.902-17.41 16.194-25.165 21.875-.627.433-1.068.667-1.321.702-.254.036-.4-.087-.44-.368-.253-1.801 3.055-7.059 9.923-15.773 2.29-2.904 3.406-4.553 3.351-4.947-.134-.957-1.552-1.246-4.254-.866-1.407.198-2.18.823-2.32 1.875-.976 1.63-3.307 4.34-6.993 8.13-3.686 3.789-6.979 7.007-9.878 9.653-1.08.897-1.844 1.378-2.295 1.441-.45.064-.703-.102-.758-.496-.055-.394.186-1.231.723-2.512.537-1.281 1.54-2.929 3.007-4.943a395.256 395.256 0 0 1 3.653-4.947c.967-1.284 1.412-2.207 1.333-2.77-.08-.563-.404-1.034-.974-1.413s-1.164-.525-1.783-.438c-1.681.294-4.199 2.8-7.553 7.519-3.355 4.718-5.724 9.299-7.109 13.74-.591 1.92-.8 3.5-.626 4.738.293 2.082 1.565 2.965 3.817 2.649.844-.119 1.872-.665 3.084-1.639a25.077 25.077 0 0 0 3.19-3.031 124.555 124.555 0 0 0 3.421-4.14c1.367-1.713 2.19-2.59 2.472-2.629.338-.047.515-.015.53.098a.525.525 0 0 1-.043.307 2.787 2.787 0 0 0-.127.32c-.04.12-.089.284-.146.493-.056.21-.265.97-.626 2.284-.36 1.313-.497 2.28-.41 2.899.419 2.983 1.585 4.34 3.5 4.07Zm7.18 29.64c2.678-.95 5.375-2.692 8.09-5.226 2.714-2.534 4.98-5.09 6.799-7.671 1.818-2.58 3.585-5.426 5.3-8.536 1.715-3.111 2.834-5.263 3.355-6.456.52-1.192 1.442-3.115 2.762-5.769 1.32-2.653 3.92-7.538 7.798-14.655 3.878-7.117 6.025-10.935 6.44-11.452.415-.518.585-1.044.51-1.578-.075-.535-.578-1.053-1.51-1.553-.882-.565-1.493-.824-1.83-.776-.338.047-.56.107-.664.18-.833-1.031-2.44-1.638-4.819-1.82-3.876 1.004-7.524 2.923-10.942 5.756-3.419 2.834-6.12 5.768-8.105 8.802-1.984 3.034-3.546 5.807-4.685 8.32-1.139 2.514-1.627 4.347-1.465 5.501.162 1.154.736 2.178 1.723 3.073.987.894 2.24 1.235 3.76 1.021 1.52-.213 3.4-1.324 5.644-3.333 2.243-2.008 3.816-3.578 4.719-4.71a129.702 129.702 0 0 0 2.08-2.66c.484-.641.81-.974.979-.998.056-.008-.09.386-.437 1.18-.13.306-.242.523-.34.65a1.336 1.336 0 0 0-.205.374l-1.44 2.01c-2.588 3.636-4.77 7.1-6.546 10.39-1 1.864-3.804 6.218-8.41 13.064-4.24 5.762-7.577 9.79-10.01 12.082-1.023.89-1.703 1.36-2.04 1.407-.338.047-.523-.042-.555-.267-.23-1.632 1.37-4.655 4.795-9.068 3.427-4.413 7.327-8.62 11.7-12.621.508-.474.75-.795.726-.963-.024-.17-.26-.222-.711-.159-2.983.42-7.218 3.267-12.704 8.544-5.485 5.277-7.999 9.547-7.54 12.812.364 2.589 1.739 4.204 4.124 4.844 1.254.34 2.471.428 3.653.261Zm15.876-41.404c-.225.032-.35-.037-.373-.206-.087-.619.833-2.24 2.76-4.865 1.927-2.624 4.517-5.427 7.772-8.41 3.254-2.983 6.3-4.99 9.14-6.02.226-.031.346.01.362.122.055.394-1.213 2.093-3.804 5.097-2.59 3.005-5.52 6.056-8.786 9.156-3.266 3.1-5.624 4.808-7.071 5.126Zm41.043-32.027c1.35-.19 2.678-.85 3.983-1.98 1.305-1.13 2.159-1.997 2.562-2.599.403-.602.744-1.138 1.023-1.607.278-.47.376-1 .293-1.591-.083-.591-.586-1.31-1.509-2.156-.2-.201-.582-.262-1.145-.183-1.294.182-2.842 1.217-4.643 3.106-1.8 1.889-2.582 3.678-2.345 5.366.15 1.07.744 1.618 1.78 1.644Zm-10.319 36.232c1.182-.166 2.26-.46 3.233-.884 3.018-1.4 7.472-5.24 13.362-11.52a391.622 391.622 0 0 0 7.24-7.906c2.579-2.888 4.321-4.883 5.228-5.986a341.634 341.634 0 0 1 2.098-2.534c.492-.585.698-1.16.619-1.723-.08-.562-.4-1.005-.962-1.328-9.023 8.902-18.41 16.85-28.16 23.845-.909.473-1.56.736-1.954.792-.676.095-1.057-.167-1.144-.787-.087-.619.04-1.354.379-2.205.455-2.073 1.562-4.711 3.321-7.914 1.76-3.203 3.106-5.473 4.037-6.81a351.198 351.198 0 0 1 2.08-2.96c.456-.639.664-1.098.625-1.38-.04-.281-.24-.483-.602-.604a8.7 8.7 0 0 0-3.472-.2 6.26 6.26 0 0 0-3.162 1.39c-.636.377-1.815 1.992-3.538 4.846-1.722 2.853-3.333 6.093-4.833 9.719-1.499 3.626-2.122 6.339-1.869 8.14.649 4.615 3.14 6.619 7.474 6.01Zm40.269-4.454c2.251-.316 5.897-3.067 10.936-8.252 5.04-5.185 8.755-9.28 11.145-12.285a958.466 958.466 0 0 0 5.919-7.504c.443-.522.625-1.064.546-1.627-.079-.563-.4-1.005-.961-1.328-2.69 2.502-5.808 5.537-9.353 9.106s-6.399 6.337-8.562 8.306c-2.162 1.968-4.047 3.467-5.652 4.496-1.606 1.03-2.733 1.59-3.38 1.68-.648.092-1.007-.116-1.078-.623-.134-.957-.124-2.106.032-3.448.106-.474.338-1.066.697-1.777.36-.71.687-1.345.981-1.903.295-.558.797-1.374 1.507-2.45.71-1.075 1.349-2.04 1.918-2.895.568-.855 1.437-2.125 2.606-3.81a515.854 515.854 0 0 0 3.11-4.527c.185-.313.246-.695.183-1.145-.063-.45-.396-.776-.999-.979l-2.458-.343c-.185-.089-.545-.096-1.08-.02-.534.075-1.156.45-1.865 1.123-3.739 4.026-8.552 8.778-14.44 14.255l-.387.312c-.056.008-.092-.044-.108-.157-.016-.112.279-.67.884-1.674l5.098-9.67c.226-.434.311-.847.256-1.241-.08-.563-.671-.997-1.776-1.3-1.104-.304-1.882-.425-2.332-.361-.62.087-1.339.991-2.158 2.714a234.243 234.243 0 0 0-2.957 6.528c-1.152 2.63-2.308 4.715-3.469 6.256-1.348 2.657-3.836 6.192-7.463 10.605a2.836 2.836 0 0 0-.209 1.579c.238 1.689 1.285 2.402 3.142 2.141.676-.095 1.219-.314 1.63-.66 2.504-1.786 8.079-7.448 16.725-16.986.298-.329.453-.451.465-.367.012.085-.115.404-.382.958l-2.93 5.491c-1.082 2.104-1.5 4.028-1.255 5.773.649 4.615 3.14 6.618 7.474 6.01ZM142.203 221.483c.58-.071.84-.358.779-.86-.062-.501-.135-.88-.22-1.138.843-2.73 5.058-10.752 12.643-24.066 1.948 2.762 4.703 3.925 8.268 3.487 3.565-.437 7.612-2.18 12.142-5.23 4.53-3.048 8.272-6.523 11.224-10.423 2.952-3.9 4.262-7.197 3.931-9.89-.33-2.694-1.355-5.034-3.073-7.02a16.18 16.18 0 0 0-6.216-4.464c-5.012-1.957-10.078-2.622-15.2-1.993-5.123.63-10.277 2.093-15.462 4.391-5.186 2.299-9.441 4.858-12.767 7.679-3.325 2.82-5.935 5.687-7.829 8.6-1.894 2.912-2.703 5.49-2.427 7.735.276 2.244 1.272 3.918 2.988 5.02 1.717 1.103 3.38 1.555 4.991 1.357 1.611-.197 3.224-.81 4.84-1.84a21.541 21.541 0 0 0 4.27-3.54 45.48 45.48 0 0 0 3.359-4.07c1.01-1.384 1.79-2.552 2.344-3.505.553-.952.821-1.494.805-1.626-.016-.132-.09-.19-.222-.174-.132.016-.37.153-.714.41-4.706 3.58-9.593 6.565-14.66 8.956-1.572.729-2.543 1.116-2.913 1.161-.37.046-.579-.13-.627-.526-.049-.396.52-1.323 1.708-2.783 1.188-1.459 2.997-3.208 5.427-5.249 2.43-2.04 5.197-4.055 8.303-6.045 3.106-1.99 6.81-3.798 11.113-5.425 4.303-1.627 8.37-2.676 12.198-3.146 3.828-.47 7.458-.487 10.889-.05 3.43.436 5.253 1.526 5.467 3.268.259 2.113-.754 4.555-3.04 7.329-2.287 2.773-5.087 5.288-8.401 7.544a77.488 77.488 0 0 1-10.174 5.873c-3.469 1.658-6.259 2.617-8.371 2.877-.475.058-.736-.097-.781-.467a.858.858 0 0 1 .1-.495l8.084-12.089c.682-.995 2.75-3.795 6.205-8.4.185-.237.255-.54.21-.91-.045-.37-.309-.66-.79-.868-.481-.209-.933-.288-1.356-.236-.422.052-1.03.341-1.823.867-3.794 2.718-9.67 9.764-17.626 21.14-7.958 11.377-11.96 18.837-12.007 22.38a8.11 8.11 0 0 0 .076 1.278c.22 1.795.853 3.124 1.897 3.988 1.044.863 1.857 1.26 2.438 1.188Zm55.256-41.118c1.267-.155 2.52-.752 3.76-1.788 1.24-1.037 2.053-1.834 2.44-2.39.388-.557.715-1.053.984-1.488.268-.435.368-.93.3-1.484-.068-.555-.527-1.235-1.377-2.042-.184-.192-.54-.256-1.068-.19-1.215.148-2.68 1.092-4.396 2.83-1.717 1.739-2.478 3.4-2.283 4.985.123 1.003.67 1.525 1.64 1.567Zm-10.25 33.743a11.594 11.594 0 0 0 3.04-.776c2.848-1.26 8.82-13.09-.42-6.702-.86.427-1.473.663-1.843.709-.634.077-.986-.174-1.058-.755-.07-.58.06-1.267.391-2.058.46-1.933 1.539-4.384 3.238-7.353 1.7-2.97 2.996-5.071 3.89-6.307a328.742 328.742 0 0 1 1.995-2.737c.437-.59.639-1.017.607-1.281-.033-.264-.217-.456-.554-.575a8.143 8.143 0 0 0-3.246-.245 5.86 5.86 0 0 0-2.982 1.25c-.601.342-1.731 1.835-3.39 4.477-1.66 2.643-3.22 5.649-4.682 9.018-1.463 3.369-2.09 5.898-1.883 7.588.532 4.33 2.83 6.246 6.897 5.747Zm13.163-3.412c3.696-.454 8.497-1.954 14.403-4.502.607-.289 1.387-.492 2.337-.609.95-.116 1.785.022 2.504.417.718.394 1.21.575 1.473.542.423-.051.608-.289.556-.711-.136-1.11-1.742-3.056-4.818-5.841-.652-.51-1.823-.66-3.513-.453-1.69.207-3.514.74-5.472 1.596-1.959.857-3.083 1.304-3.374 1.34-.29.035-.439.026-.445-.026 1.37-1.938 4.057-4.613 8.06-8.026 4.003-3.413 7.932-6.454 11.785-9.125.489-.382.708-.784.656-1.207-.052-.422-1.175-1.49-3.369-3.204-.718-.609-2.569-.73-5.552-.364-2.984.367-6.711 1.333-11.182 2.9-.82.316-1.182.856-1.088 1.622.094.766 1.01 2.114 2.748 4.045.534.417 1.051.594 1.553.533.502-.062 3.123-.866 7.865-2.413l.307-.118c-.556.711-3.226 2.754-8.011 6.13-4.045 2.854-7.118 5.336-9.218 7.443-2.1 2.107-3.046 4.006-2.838 5.695.13 1.057.789 2.061 1.978 3.014 1.189.953 2.074 1.394 2.655 1.322Zm23.011-3.316c3.697-.454 8.498-1.955 14.403-4.503.608-.289 1.387-.491 2.337-.608.951-.117 1.785.022 2.504.416.718.394 1.21.575 1.474.543.422-.052.607-.29.556-.712-.137-1.109-1.743-3.056-4.818-5.84-.653-.51-1.824-.661-3.513-.454-1.69.208-3.515.74-5.473 1.597-1.959.857-3.083 1.303-3.374 1.339-.29.035-.438.027-.445-.026 1.37-1.937 4.057-4.612 8.06-8.025 4.004-3.413 7.932-6.455 11.785-9.126.49-.382.708-.784.656-1.206-.052-.423-1.175-1.49-3.368-3.205-.718-.609-2.57-.73-5.553-.363-2.984.366-6.711 1.333-11.182 2.9-.819.315-1.182.856-1.088 1.621.095.766 1.01 2.114 2.748 4.045.534.417 1.052.595 1.553.533.502-.062 3.124-.866 7.865-2.413l.308-.118c-.556.711-3.227 2.755-8.012 6.13-4.045 2.855-7.117 5.336-9.217 7.443-2.1 2.107-3.046 4.006-2.839 5.696.13 1.056.79 2.06 1.978 3.013 1.19.953 2.074 1.394 2.655 1.323Zm23.845-2.12c1.585-.194 3.545-1.36 5.883-3.496 2.337-2.136 3.968-3.81 4.891-5.023.923-1.212 1.683-2.23 2.279-3.054.185-.237.317-.36.396-.37.08-.01.129.065.148.223l-.01 5.148c.2 1.637.55 2.746 1.051 3.328.5.582 1.252.811 2.255.688 1.004-.123 3.36-1.887 7.07-5.29a139.332 139.332 0 0 0 5.203-5.102 324.032 324.032 0 0 0 5.13-5.374 1009.568 1009.568 0 0 0 7.873-8.565l1.379-1.536c.377-.422.533-.896.468-1.425-.064-.528-.357-.947-.878-1.259-10.514 9.975-18.306 16.587-23.375 19.836-.017-1.016.454-2.414 1.415-4.194a49.942 49.942 0 0 1 1.664-2.817c.54-.844 1.442-2.228 2.707-4.152a256.104 256.104 0 0 0 3.307-5.15c.662-.725.96-1.35.895-1.879-.065-.528-.273-.918-.626-1.17-.352-.25-.69-.384-1.013-.398-.66-.562-1.2-.817-1.622-.765-.423.052-.866.374-1.329.967-.75-1.302-1.629-1.917-2.639-1.847-2.64.324-5.62 1.708-8.938 4.153a50.437 50.437 0 0 0-8.833 8.28c-2.57 3.077-4.725 6.156-6.464 9.237-1.739 3.081-2.524 5.309-2.356 6.682.17 1.373.616 2.39 1.34 3.051.725.662 1.293 1.034 1.705 1.118.412.083.754.135 1.024.155Zm5.098-8.907c-.106.013-.165-.034-.178-.14-.11-.897.852-2.77 2.888-5.62 2.035-2.85 4.523-5.621 7.462-8.314 2.94-2.693 5.412-4.162 7.419-4.409.158-.02.242.01.252.09.01.08-.078.237-.263.475l-3.96 4.426a221.004 221.004 0 0 1-8.275 8.895c-2.93 2.987-4.711 4.519-5.345 4.597ZM183.016 121.393c-.084-.092-.195-.425-.25-.74-.213-1.34-.841-2.745-1.766-3.965a35.17 35.17 0 0 0-1.322-1.59c-1.507-1.72-2.542-2.987-2.7-3.282-.37-.703-.323-1.322.167-2.09l.277-.434-.194-.509c-.342-.896-1.146-1.876-1.849-2.237-.554-.277-1.23-.471-2.31-.638-2.654-.425-4.854-1.424-7.267-3.3-1.747-1.34-10.724-10.447-11.51-11.667-.804-1.248-.98-2.468-.555-3.855.37-1.22 4.567-9.06 4.845-9.06.138 0 .009 2.265-.167 2.866-.083.277-.508 1.322-.943 2.311-1.239 2.82-1.359 3.208-1.359 4.299-.009.795.028 1.026.25 1.636.434 1.165 2.977 5.279 3.457 5.593 1.008.647 3.014 2.265 4.096 3.31 3.633 3.476 6.379 5.01 10.465 5.861 1.433.296 1.877.462 2.598 1.017.656.49 1.035 1.119 1.59 2.635.582 1.58.952 2.154 1.6 2.477.406.204.535.213 2.098.204 2.172-.019 4.567-.25 14.791-1.47 1.073-.13 1.565-.2 2.108-.231.543-.031 1.454.17 1.454 1.298 0 .684-.748 1.055-1.096 1.135-.35.08-2.087.312-4.185.617-2.108.306-4.53.657-5.4.786-.859.12-2.874.416-4.464.647-1.581.231-2.903.416-2.931.416-.028 0 .453.758 1.072 1.674 1.322 1.997 1.535 2.403 1.71 3.226.14.684.075 1.322-.203 1.895-.194.426-.74 1.045-1.063 1.202-.36.194-.85.176-1.044-.037ZM147.876 119.147c-1.747-.102-3.383-.555-5.177-1.415-1.1-.536-2.662-1.534-3.448-2.21-.277-.23-.546-.425-.61-.425-.065 0-.342.306-.62.666-.748 1.017-1.59 1.858-2.135 2.154-.398.222-.601.268-1.045.268-.767-.01-1.405-.277-2.736-1.174-1.627-1.09-1.905-1.257-2.358-1.377-.545-.148-1.072 0-1.876.517-.906.583-1.452.74-2.552.74-.786 0-1.11-.046-2.126-.333-2.117-.6-2.69-.675-5.224-.666-2.033 0-2.412.028-3.697.25-2.293.398-4.05.324-6.01-.268-1.627-.5-3.485-1.525-4.095-2.274-.305-.37-.425-.629-.296-.629.019 0 .906.333 1.96.749 2.727 1.063 3.393 1.23 4.881 1.23 1.22.009 1.988-.084 1.84-.213-.065-.065-4.816-1.96-5.436-2.173-.13-.046-.157-.11-.102-.314.037-.139.074-.259.084-.277.018-.01.212.046.434.12.222.083.897.25 1.498.379 2.302.49 3.494.961 4.363 1.72l.407.36.86-.416c2.551-1.239 5.279-1.239 9.226 0 1.239.388 1.738.388 2.56-.01.62-.304.98-.748 2.358-2.902 1.193-1.85 1.627-2.358 2.311-2.737.453-.258.555-.277 1.415-.268.508 0 1.442.037 2.08.084 1.026.064 1.239.046 1.932-.13.425-.102.97-.305 1.202-.444.582-.342 1.451-1.174 1.83-1.765.352-.546.722-.786.87-.564.046.074.083.48.083.915 0 1.46-.416 2.44-1.443 3.42-1.35 1.286-2.93 1.72-5.842 1.6-1.378-.056-1.47-.046-1.85.148-.221.11-.387.23-.36.259.102.092 3.42 1.599 3.458 1.562.018-.019.065-.268.092-.564l.056-.518.36.352c1.036.998 1.1 2.44.157 3.633-.194.25-.36.48-.36.508 0 .074.887-.286 1.331-.545.841-.49 1.34-1.442 1.396-2.681.019-.416.037-.823.037-.906.01-.083.12-.277.25-.435.185-.222.314-.286.573-.286.407 0 .823.24 2.348 1.359 2.515 1.84 4.909 2.866 7.377 3.17 1.063.13 1.73.12 2.82-.046 2.006-.305 3.698-1.007 4.622-1.932.74-.74 1.23-1.479 2.635-3.938 1.553-2.727 1.877-3.17 3.005-4.15.952-.833.961-.833 1.165-.666l.212.166-.333.453c-.175.25-.647.934-1.044 1.516a32.242 32.242 0 0 1-.888 1.257c-.37.407-.138.37.592-.11 1.553-1.027 2.024-1.267 2.866-1.489.841-.213 2.422-.065 2.782.259.056.046-.194.083-.582.083-1.673 0-3.032.721-4.364 2.32-.305.352-.97 1.295-1.497 2.1-1.137 1.719-1.858 2.634-2.718 3.447-2.746 2.589-5.815 3.717-9.504 3.486Z"/><path d="M146.425 114.737a4.973 4.973 0 0 1-.85-.37c-.426-.268-1.184-1.119-1.406-1.58l-.176-.37h-1.497c-.832 0-1.507-.019-1.507-.038 0-.092.545-.85.712-.998.23-.213 2.616-.527 4.511-.6l1.387-.056.536.49c.287.259.527.517.527.554 0 .139-1.322 1.045-1.756 1.211-.232.084-.416.213-.416.278 0 .212.869.471 1.599.471.675-.009 1.09-.12 2.145-.6.869-.389 1.201-.518 1.201-.454 0 .12-.388.703-.637.971-.712.767-1.674 1.165-2.968 1.23-.693.027-.99 0-1.405-.14ZM123.147 112.232c-.842-.574-3.2-1.85-4.577-2.478-4.437-2.034-8.246-3.245-16.871-5.39a401.953 401.953 0 0 1-5.824-1.488c-1.147-.305-2.284-.61-2.524-.666-.333-.083-.647-.277-1.313-.841l-.878-.74.388-.35c.222-.186.582-.463.814-.602l.416-.25 3.67.01 3.67.01.462.35c.25.195.444.389.425.426-.027.037-.222.175-.443.295-.416.25-1.6.426-3.782.583-.499.028-.905.092-.905.139 0 .046.064.083.138.083.462 0 14.727 4.225 17.74 5.26 3.45 1.183 6.269 2.626 8.136 4.17.73.6 1.868 1.728 1.803 1.793-.019.018-.268-.12-.545-.314Z"/><path d="M114.78 111.668c-2.108-.416-7.257-1.332-8.477-1.516-1.96-.287-2.728-.564-3.31-1.202l-.231-.26 1.017.066c.564.037 1.645.101 2.422.147a42.38 42.38 0 0 0 3.097.028c3.125-.101 5.371.38 6.508 1.387.287.24.841 1.23.749 1.322-.083.092-1.377.11-1.775.028ZM82.534 111.085c-.813-.296-1.599-1.34-1.96-2.588-.24-.823-.157-1.877.195-2.598.536-1.091 1.756-1.978 3.235-2.339l.657-.157-.047-.416c-.138-1.424.574-3.208 1.775-4.447.574-.582.592-.592 1.202-.37l.222.093-.231.767c-.684 2.32-.925 2.968-1.618 4.382-.804 1.646-1.322 2.339-2.024 2.737-.407.23-.49.416-.638 1.506-.056.407-.12.832-.148.953-.037.203-.028.203.582-.111 2.737-1.378 5.63-1.507 9.55-.444.592.157.6.166.6.48v.315l-2.957.01c-2.497.008-3.042.036-3.513.166a8.07 8.07 0 0 0-2.469 1.248c-1.1.85-1.738 1.063-2.413.813ZM149.808 109.782a15.203 15.203 0 0 1-1.386-.278c-1.073-.305-3.68-.258-6.425.093l-.333.046.009-1.46c.01-1.655-.065-1.988-.721-3.57-.462-1.09-.472-1.044.25-1.238.323-.092.35-.083.563.194.204.278 1.378 2.34 1.794 3.162l.185.379 4.52-.019 4.512-.009.813-.24c1.286-.398 2.025-.814 3.255-1.85 1.46-1.22 2.838-1.82 4.4-1.885 1.775-.083 3.125.407 4.752 1.729.823.665 1.46.989 2.94 1.479.647.213 1.174.425 1.174.471 0 .148-.5.222-1.526.222-.906 0-1.072-.027-1.534-.24-.278-.13-.814-.518-1.183-.85-1.572-1.415-3.107-1.739-4.697-.999-.527.25-.832.508-1.969 1.655-1.821 1.849-2.958 2.57-4.863 3.078-.952.25-3.29.324-4.53.13ZM126.66 108.534c-3.384-.194-6.296-1.387-9.615-3.966-1.1-.86-2.08-1.71-4.188-3.689-4.391-4.095-6.564-5.76-9.319-7.146a22.206 22.206 0 0 0-4.298-1.609c-1.859-.48-2.83-.61-4.993-.665-2.135-.056-3.383.037-5.352.388-1.544.277-2.265.36-2.265.259 0-.046.203-.315.453-.592.573-.647 1.21-.99 2.829-1.516.702-.231 1.303-.435 1.34-.462.102-.065-1.202-6.25-1.414-6.703-.065-.12-.296-.333-.527-.453-.573-.314-2.062-1.507-2.348-1.886-.158-.212-.287-.554-.38-1.072-.342-1.766-.98-3.116-2.82-5.926-2.412-3.68-3.263-5.676-3.605-8.413-.379-3.097.527-5.602 2.533-6.98l.518-.35-.203-.232c-.342-.37-1.119-.823-1.692-.998-.767-.222-1.525-.13-2.921.333-1.544.517-3.125.915-5.723 1.442-2.366.48-3.07.527-3.753.268-.832-.315-1.442-.814-4.465-3.698-1.664-1.572-3.2-3.023-3.412-3.208l-.388-.351c-.151-.105-.226-.337-.226-.696 0-.539.141-.568.226-.7.057-.089.248-.372.573-.85.315-.472.804-1.138 1.1-1.498.73-.888 1.137-1.6 1.433-2.487.287-.842.333-1.822.185-3.91-.12-1.693-.166-1.508 2.182-9.828 1.47-5.251 2.764-8.81 4.317-11.926.897-1.793 1.553-2.755 2.737-3.938 1.118-1.128 1.96-1.738 3.365-2.44 1.128-.565 1.941-.842 4.585-1.563 3.282-.897 4.696-1.442 5.935-2.283 1.165-.795 3.125-2.506 4.207-3.652 1.617-1.72 2.57-2.358 3.855-2.598.998-.185 1.793.056 3.106.943 1.23.832 2.015 1.11 3.143 1.11 1.248 0 2.145-.352 4.576-1.794 1.405-.832 5.076-2.7 5.87-2.977.306-.102.74-.157 1.249-.157 1.377-.01 2.07.37 4.816 2.616 2.348 1.923 3.245 2.57 4.29 3.088 1.497.749 2.866 1.072 4.613 1.072 1.331 0 2.135.232 3.984 1.119.574.287.648.351.75.684.258.925.277.85-.297 1.017-.49.139-.61.139-2.107-.046-2.977-.37-4.447-.814-7.026-2.099-1.34-.675-2.912-1.553-3.513-1.969-.222-.148-.777-.592-1.22-.98-.971-.832-1.988-1.534-2.71-1.876-.434-.204-.647-.24-1.303-.24-1.008 0-1.322.147-4.132 1.913-5.288 3.337-5.695 3.54-7.294 3.652-1.424.092-2.58-.269-4.04-1.258-2.45-1.645-3.19-1.534-4.919.786-2.579 3.448-5.602 5.454-9.66 6.416-.684.166-1.73.416-2.32.555-3.643.896-6.333 3.106-8.034 6.61-.601 1.238-2.284 5.778-3.523 9.475-1.738 5.224-2.708 8.912-3.54 13.544-.278 1.507-.426 1.978-1.396 4.327l-.712 1.728.998.953c2.542 2.412 4.558 4.169 5.122 4.465.471.24 1.766.277 3.014.083.554-.083 1.932-.36 3.06-.61l2.061-.453 1.47-.85c.804-.472 1.451-.888 1.433-.925-.028-.037-.804-.056-1.729-.037-1.276.028-2.163.11-3.67.333-1.701.25-2.062.277-2.496.194-.647-.13-1.137-.462-1.414-.952-.786-1.396-.426-2.987.813-3.615.712-.351 4.669-1.276 7.396-1.72.665-.11 1.276-.212 1.368-.23.12-.029.185.055.259.369.055.231.222.536.36.684.213.231.333.277.666.277.222 0 .564-.083.767-.184.204-.102.389-.185.426-.185.037 0 .083.24.101.536.047.647.278 1.146.601 1.322.157.083.527.13 1.017.13.657-.01.768.018.712.138-.277.684-.333.952-.231 1.174.11.24.12.24.934.185l.832-.056v2.108c0 1.729-.028 2.136-.139 2.284-.12.148-.148.157-.222.037-.702-1.147-2.394-3.005-3.494-3.828-2.931-2.2-6.093-2.45-9.781-.767-.453.203-.85.388-.87.407-.184.13.555.166 3.486.166 3.365 0 3.393 0 3.827.213.555.277 1.932 1.571 2.922 2.764 1.312 1.572 1.941 1.941 3.559 2.062.693.055 1.239.148 1.636.295 1.563.564 3.106 2.099 3.93 3.902.332.712.637 1.664.582 1.821-.019.055-.222-.139-.463-.444-.998-1.248-2.274-2.58-2.893-2.995-.86-.592-1.424-.758-2.395-.721-.711.037-.84.074-1.728.518-.527.268-1.193.665-1.48.887-.6.48-1.22 1.359-1.433 2.043-.203.629-.268 2.376-.129 3.43.305 2.32.841 3.809 2.847 7.904a49.816 49.816 0 0 1 2.09 4.872c.471 1.257 1.174 1.868 2.015 1.757.684-.093 2.219-1.082 2.986-1.923.97-1.073 1.276-1.895 1.526-4.123.11-.906.295-2.247.425-2.986.296-1.71.98-4.715 1.072-4.715.065 0 .111.573.102 1.155-.046 2.108-.259 7.091-.37 8.46-.296 3.817-.268 4.779.167 6.655.526 2.275 2.237 5.446 3.818 7.11 1.109 1.155 2.126 1.7 3.67 1.987.564.102 1.035.278 1.692.61.508.26.933.444.961.426.018-.028-.055-.176-.166-.324-.453-.647-1.535-3.18-2.025-4.77-.62-2.015-.878-3.8-.85-6.046.009-.573.027-.666.138-.573.157.13.38 1.063.518 2.135.12 1.017.434 1.683.98 2.062.222.157.407.323.407.36 0 .047-.084.194-.185.333a1.598 1.598 0 0 0-.24.592c-.056.296-.028.351.203.508.157.102.453.176.73.176.25.01.48.046.49.083.018.028-.194.351-.48.712-.287.36-.51.675-.49.684.018.019.36.102.767.176.397.083.785.166.86.194.083.028-.028.203-.352.536l-.471.508.212.444c.352.758.814 1.526 1.34 2.247.759 1.017 2.543 2.755 4.133 4.021.767.601 1.877 1.489 2.478 1.97a43 43 0 0 1 2.403 2.126c2.228 2.117 3.948 3.365 6.24 4.53 1.877.961 5.307 2.181 6.906 2.468.537.102.601.176.481.555l-.092.323-.842-.018a43.52 43.52 0 0 1-1.996-.074Z"/><path d="M108.078 108.071c-.333-.046-2.22-.425-4.207-.86-4.28-.933-5.13-1.109-6.471-1.358-1.747-.315-6.416-1.017-6.786-1.017-.453 0-.887.157-2.2.795-.582.277-1.082.49-1.119.462-.074-.074-.943-2.496-.906-2.524.019-.018.555-.13 1.211-.259.648-.12 1.193-.24 1.202-.25.047-.036.694-5.398.694-5.675 0-.176-.037-.222-.158-.185-.72.203-2.348.453-3.013.462-.758.01-.832-.01-.999-.213-.13-.157-.175-.36-.175-.749 0-.49.046-.61.582-1.488 1.174-1.923 1.451-2.32 1.6-2.265.083.028.184.055.23.055.047 0 .084.435.084.971v.97l.259.066c.138.046.582.074.989.074.591 0 .832-.047 1.202-.222.573-.287 1.377-1.1 1.802-1.85.176-.304.342-.563.37-.563.028.01.12.065.213.138.166.12.166.167-.065 1.212-.13.6-.222 1.109-.194 1.127.028.028 1.137.268 2.468.546 1.34.268 2.552.518 2.7.555.166.037.25.018.23-.037-.018-.056-.637-.583-1.377-1.184-.74-.591-1.35-1.128-1.359-1.183-.018-.065.037-.185.102-.277.12-.158.157-.148.62.147 1.063.675 2.745 1.581 5.49 2.959 4.799 2.394 6.814 3.54 8.894 5.029.897.647 1.11.832 1.036.906-.019.018-.37-.176-.777-.435-1.433-.887-2.672-1.423-4.345-1.867-1.941-.518-6.074-1.525-9.753-2.367-.435-.101-1.35-.314-2.034-.471-1.535-.351-1.72-.314-2.505.462-.934.943-1.34 2.099-1.258 3.55.065.97.296 1.535.758 1.821.398.25.564.296 2.589.75 1.507.332 9.947 2.31 13.728 3.216.842.194 1.59.389 1.674.416.13.056.453.518.453.647 0 .074-.712.056-1.48-.037ZM196.901 106.222c-2.607-.563-4.197-1.94-4.983-4.298-.203-.629-.212-.75-.222-3.883v-3.236l-.342-1.202c-1.072-3.716-.786-7.46.897-11.648.268-.656.693-1.618.943-2.126 1.054-2.09 1.766-3.957 2.237-5.88.564-2.265.601-2.727.62-6.878l.009-3.79.434-2.404c.389-2.145.444-2.598.49-4.17.037-1.275.028-1.784-.055-1.83-.176-.11-1.036.425-1.627 1.017-.934.934-1.47 2.163-1.46 3.365 0 .703.166 1.267.461 1.59.148.167.13.194-.268.61-1.451 1.489-2.089 3.402-1.812 5.464.194 1.498.25 1.313-1.497 4.928l-.389.813-.277-.166c-.157-.084-.462-.36-.684-.601-.601-.666-.777-1.322-.777-2.922 0-2.634-.388-5.528-1.201-9.069-.73-3.134-1.22-4.788-2.025-6.822-.111-.268-.194-.5-.194-.518 0-.028.536-.24.61-.24.083 0 1.285 2.006 1.756 2.958 1.054 2.098 1.674 3.901 2.238 6.517.351 1.609.776 4.447.906 6.093.046.61.074.712.166.554.065-.12.093-.711.083-1.83l-.027-1.655.406-.887c.537-1.184.786-1.997 1.304-4.29.499-2.256.665-2.764 1.155-3.587 1.267-2.135 2.635-3.125 3.606-2.625.887.462 1.192 1.886.924 4.345-.175 1.59-.37 5.935-.425 9.106-.055 3.614-.176 4.881-.638 6.702-.333 1.294-.462 1.664-1.433 4.077-1.377 3.42-2.856 7.609-3.087 8.746-.333 1.654-.278 3.124.23 6.61.25 1.7.296 2.265.352 4.973.065 3.014.065 3.06.305 3.56.416.887 1.017 1.377 2.385 1.941.38.157 1.082.5 1.553.758.814.453.814.453 1.34.97a.537.537 0 0 1 0 .676c-.073.074-.613.322-.715.304-.027 0-.828-.027-1.272-.12ZM133.343 103.06c-1.793-.138-3.845-.785-6.323-1.978-1.34-.647-1.775-.813-2.487-.943l-.869-.157-.074-.36c-.046-.204-.13-.426-.185-.5-.157-.184-.582-.092-1.155.24-.26.158-.49.269-.509.241-.018-.018-.009-.333.028-.702.046-.37.065-.684.037-.703-.018-.018-.324.074-.693.203-.786.287-.832.287-.832.074 0-.314-.537-1.017-1.036-1.35-1.23-.84-3.17-1.266-4.9-1.09-.554.055-1.081.148-1.183.203-.25.13-.25-.055.01-.6.37-.777 1.1-1.249 1.95-1.249.555 0 3.624.546 4.992.888 2.302.582 4.096 1.257 7.239 2.736 4.484 2.117 4.881 2.247 6.702 2.247 1.202 0 1.424-.028 2.127-.25 1.913-.61 3.217-1.877 3.651-3.54.194-.759.176-2.136-.046-3.098-.342-1.507-.203-2.8.453-4.215.268-.564.444-.823.666-.953.166-.101.323-.175.342-.147.018.018-.12.35-.324.748-.342.712-.351.74-.342 1.748.01.961.028 1.09.49 2.496.638 1.969.703 2.45.564 4.049-.055.712-.092 1.294-.074 1.313.019.018.592-1.137 1.267-2.57 5.5-11.547 5.796-12.324 5.778-15.411 0-1.36-.028-1.627-.26-2.45-.304-1.128-.85-2.274-1.7-3.56-.647-.98-.99-1.682-1.544-3.189-.398-1.063-.592-1.525-.657-1.525-.055 0-1.96 1.497-2.69 2.108l-.49.406v.62c0 1.423-.416 2.542-1.257 3.43-.823.86-1.701 1.201-3.134 1.201-1.045 0-2.09-.25-3.319-.776-1.7-.74-2.283-.832-3.393-.546l-.6.148-.74-.397c-.398-.222-.749-.416-.768-.435-.027-.018.074-.157.222-.305.148-.148.24-.296.222-.323-.028-.019-.434.157-.897.388-.942.48-1.664.6-2.403.407-.435-.12-.49-.25-.176-.38.111-.046 1.304-.73 2.653-1.506a137.13 137.13 0 0 1 2.46-1.415c.009 0-.158.721-.38 1.581-.221.87-.388 1.58-.379 1.59.047.056 3.088-.453 3.661-.61 1.406-.397 1.914-.194 2.025.777l.055.554.675.028c1.34.055 2.903-.36 3.606-.952.786-.666.924-1.812.407-3.347-.49-1.451-1.165-2.644-2.802-4.927-1.257-1.775-1.71-2.912-1.636-4.086.065-.897.388-1.664 1.23-2.931.37-.564.785-1.322.933-1.692.296-.804.925-2.09 1.119-2.311.083-.092.48-.324.897-.527 1.59-.777 2.588-2.09 3.041-3.984.222-.953.268-1.655.157-2.506-.25-1.886-1.035-3.393-2.764-5.306-1.377-1.526-1.886-2.45-2.015-3.652-.074-.73-.305-.943-1.452-1.34-1.081-.37-1.941-.87-2.708-1.572-1.775-1.609-3.18-4.511-4.096-8.459-.148-.638-.36-1.414-.471-1.71-.472-1.276-1.368-2.302-2.44-2.81-.306-.149-.953-.454-1.434-.685-.48-.23-1.377-.786-1.987-1.22-.61-.444-1.165-.832-1.24-.87-.1-.064-.1-.1 0-.276.075-.111.176-.185.223-.176.055.018 1.756.897 3.78 1.95 2.025 1.064 3.699 1.914 3.717 1.896.019-.028-.028-.389-.101-.823-.648-3.892-.24-6.425 1.368-8.394.554-.684.74-.805.628-.398-.046.148-.11.518-.148.832-.073.694-.064.694 1.082.333.98-.305 1.396-.518 1.646-.841.296-.37.203-.786-.5-2.46-.591-1.395-.84-2.32-.915-3.401-.037-.583 0-.574.435.101.148.231.693.925 1.202 1.553 1.516 1.84 1.978 2.737 2.061 4.013.065.887-.065 1.377-.518 1.978-.443.592-1.155 1.082-2.024 1.377-.592.213-.925.26-1.979.296-.702.028-1.275.065-1.275.084 0 .018.101.563.23 1.21.408 2.127.435 2.358.51 4.836.082 2.699.11 2.865.767 4.53.878 2.218 2.32 4.677 3.244 5.519.287.268 1.064.86 1.71 1.322 2.33 1.627 2.728 2.45 1.859 3.818-.148.24-.277.462-.277.49 0 .027.527.62 1.183 1.312 2.172 2.34 3.088 3.541 3.735 4.872.36.758.388.888.453 1.85.101 1.654.407 2.468 1.6 4.187.98 1.415 1.293 1.942 1.562 2.626.268.665.295 1.1.129 1.923-.093.425-.139.508-.296.49-.397-.047-1.34-.222-1.47-.268-.203-.084-.194 0 .231 1.322.99 3.097.86 4.465-.656 7.155-.102.185-.25.666-.324 1.063a17.7 17.7 0 0 1-.323 1.424c-.25.961-.25.98.259 1.239.61.314.86.582 1.756 1.95 1.119 1.71 1.766 2.663 2.376 3.513.656.915 1.276 2.164 1.544 3.143.277 1.008.296 3.569.037 4.762-.583 2.717-1.128 4.132-3.05 7.904-1.267 2.477-5.844 11.02-5.991 11.186-.047.055-.074-.647-.065-1.775.01-1.035-.01-1.886-.037-1.895-.028-.019-.259.296-.527.693-1.812 2.709-4.354 3.92-7.646 3.652Zm9.726-33.456c.943-.878 1.71-1.618 1.71-1.646a4.868 4.868 0 0 0-.397-.49c-.324-.36-.62-.536-1.905-1.127-.832-.389-1.525-.694-1.544-.684-.009.018.084.462.204.998.12.536.222 1.063.222 1.183 0 .111.046.204.101.204.056 0 .592-.213 1.202-.472.61-.268 1.128-.453 1.165-.425.102.11-.203.675-.582 1.054-.463.462-1.184.712-2.32.813l-.759.065.527 1.054c.287.582.555 1.054.601 1.054.037 0 .841-.712 1.775-1.581Zm-4.715-4.012c.49-1.701 1.84-1.747 4.669-.157.48.268.906.499.952.508.139.028.878-1.414 1.183-2.293.398-1.164.472-2.533.185-3.642-.305-1.239-.665-1.72-1.664-2.228-.333-.166-.508-.194-.97-.157-.796.065-2.608.48-3.107.702-1.294.592-2.219 1.701-2.542 3.07-.194.85-.194.85.213.656.35-.185 1.506-.573 2.227-.758.666-.176 1.655-.13 2.238.083.62.231 1.266.777 1.7 1.424.352.518.361.61.028.407-.896-.583-2.579-.712-3.956-.305-1.036.305-2.644.915-2.69 1.017-.019.064 1.294 2.163 1.368 2.181.009 0 .083-.23.166-.508Z"/><path d="M134.314 99.15c-.462-.314-.508-.527-.24-1.044.268-.518.36-.546 1.747-.564.841-.01.999.018 1.128.157.092.092.157.194.157.222 0 .12-2.154 1.46-2.339 1.46-.065 0-.268-.101-.453-.23ZM177.191 96.968a36.066 36.066 0 0 0-.148-.86c-.138-.831-.11-1.636.102-2.671.546-2.681 1.858-4.927 4.465-7.618 1.84-1.904 1.97-2.117 2.589-4.345.24-.887.776-2.043 1.202-2.616.416-.545 1.368-1.48 1.95-1.895.638-.453 1.406-.85 2.404-1.248.869-.342 1.119-.37.786-.065-.444.388-4.715 5.038-4.715 5.13 0 .047.065.14.139.204.11.093.212.037.591-.277.287-.25.518-.37.61-.333.287.111.25.333-.157.814-3.457 4.132-4.853 5.972-5.824 7.654-.582 1.008-1.701 3.384-2.709 5.732-.6 1.396-1.128 2.58-1.164 2.626-.037.046-.093-.065-.12-.232ZM163.703 93.862c-.037-.037-.064-1.146-.055-2.459 0-1.313-.01-2.403-.028-2.422-.037-.037-5.371-1.276-5.917-1.377-.194-.037-.35-.102-.35-.14 0-.045.175-.147.397-.23.545-.213 1.423-.888 1.895-1.46 1.072-1.332 1.322-3.2.897-6.777-.065-.61-.111-1.119-.093-1.147.065-.064.85.62 1.183 1.036 1.147 1.414 1.248 3.319.315 6.148l-.222.674.333.278c.453.37 1.368.823 1.682.823.647 0 1.119-.38 1.674-1.341.203-.351.86-1.396 1.46-2.311 1.544-2.367 1.942-3.227 2.126-4.595.093-.749 0-1.932-.194-2.403-.12-.287-.582-.537-1.017-.537-.166 0-.73-.148-1.266-.332l-.962-.324-.665.638c-.712.684-.943.841-1.433.952-.398.093-1.202-.074-1.276-.25-.102-.277.462-.98 1.498-1.84.582-.49 1.165-1.016 1.285-1.183.462-.6.638-1.488.425-2.061-.12-.296-.028-.416.24-.314.12.046.426.536.86 1.377.36.712.767 1.47.888 1.692l.222.388.795-1.636c.434-.897.813-1.637.84-1.637.029 0 .13.047.223.093.148.074.166.139.092.333-.046.12-.212.72-.37 1.322-.268 1.026-.277 1.11-.138 1.479.074.212.157.425.185.462.064.111.637-.102.887-.323.38-.333 3.042-3.282 3.042-3.366 0-.046-.222-.305-.5-.573-1.137-1.11-2.644-1.72-5.056-2.061-1.258-.176-1.886-.176-2.71 0-1.534.323-2.458 1.396-3.198 3.698-.5 1.58-1.775 3.771-2.514 4.335-.768.592-.953.435-.832-.748.092-.87.462-1.868 1.84-4.928 1.284-2.847 1.608-3.291 2.717-3.716.915-.342 4.724-.435 7.035-.167 1.202.148 2.663 1.008 3.43 2.043.62.823.906.943 1.692.684.185-.055.25.028.629.796.24.471.425.943.406 1.044-.046.287-.813.712-1.359.758-.25.019-.6.093-.785.167-1.285.536-2.81 2.126-3.199 3.328-.139.434-.102 1.183.194 3.688.185 1.544.24 1.83.36 1.794.204-.065 2.746-.814 4.9-1.452 2.792-.832 3.81-.84 5.02-.073.49.314.509.425.056.268-.426-.148-1.701-.13-2.348.037-.305.074-1.396.554-2.423 1.063-2.653 1.313-3.448 1.608-4.631 1.71-.564.046-1.433-.074-1.877-.268-.12-.056-.48.305-1.525 1.535a280.47 280.47 0 0 1-2.33 2.662c-.6.666-1.063 1.276-1.248 1.655-.277.573-.296.647-.36 2.219-.037.896-.12 2.006-.185 2.459-.12.786-.14.832-.36.86-.121.018-.26 0-.297-.047ZM143.097 87.909c.055-.758-.12-1.24-.546-1.553-.148-.111-.712-.352-1.257-.527-2.672-.888-4.54-2.33-5.5-4.253-.5-1.017-.537-1.405-.213-2.422.148-.444.268-.814.286-.832.01-.019.555.268 1.211.647 2.746 1.562 3.402 1.803 4.697 1.71 1.155-.083 1.063.083 1.063-1.876 0-.98.037-1.701.083-1.701.157 0 .758.767 1.035 1.312.518 1.017.74 2.238.74 4.04-.01 1.415-.231 2.986-.592 4.03-.24.694-.84 1.942-.97 2.026-.047.027-.065-.232-.037-.601ZM107.948 87.835c-.11-.167-.961-2.469-1.072-2.866-.056-.222-.12-1.036-.139-1.803-.028-1.1-.102-1.784-.36-3.236-.592-3.244-.601-3.596-.148-6.711.25-1.72.48-2.58.989-3.606.952-1.969 3.115-3.42 5.075-3.42 1.063 0 2.034.268 1.544.425-.092.028-.564.222-1.054.416-1.895.786-3.152 1.756-3.762 2.921l-.296.574.508.332c.62.416.97.823.97 1.119 0 .166-.249.49-.877 1.146-.481.5-.98 1.128-1.11 1.387-.554 1.09-.74 2.607-.453 3.605.342 1.193.352 1.322.194 1.96-.37 1.47-.295 2.94.26 5.131.23.906.323 1.48.323 1.997v.712h-.268c-.157 0-.296-.037-.324-.083ZM116.102 84.405c-.767-.925-1.516-2.274-1.84-3.328-.175-.546-.222-.906-.222-1.71 0-1.295.148-1.6 1.156-2.376.38-.287.721-.527.749-.527.028-.01-.074.73-.213 1.636-.444 2.746-.342 3.531.795 6.12.231.536.426.98.426.99 0 .147-.278-.112-.851-.805ZM124.469 82.602c-1.064-.286-1.914-.823-2.83-1.793-.295-.305-.573-.564-.61-.564-.037 0-.184.12-.332.277-.712.74-1.627.73-2.21-.028-.656-.86-.656-1.544-.01-2.265.5-.554 1.221-.952 2.571-1.396l1.035-.35.111-.898c.13-1.035.37-1.553.823-1.765.324-.148 1.562-.195 1.646-.056.027.046-.056.38-.176.758-.13.37-.231.832-.231 1.026 0 .814.527 1.396 1.396 1.554.647.11 3.707.277 5.13.277 1.859 0 2.663.24 3.43 1.035.49.5.675.943.675 1.6 0 .693-.258 1.183-.813 1.534-.703.444-.962.49-4.225.73-.758.056-1.941.185-2.616.278-1.442.213-2.099.222-2.764.046ZM87.896 77.24c.139-.85.074-1.997-.148-2.68-.295-.898-.61-1.49-1.608-2.978-1.988-2.986-2.515-4.696-2.034-6.711l.157-.666.074.823c.194 2.246.85 3.772 3.005 7.044 2.061 3.134 2.2 3.846 1.026 5.066l-.546.564.074-.462Z"/><path d="M173.67 77.388c-.315-.046-.37-.092-.37-.277 0-.185.388-.5 2.31-1.877a705.258 705.258 0 0 1 3.745-2.662c1.571-1.1 1.72-1.276 2.107-2.496.444-1.387.49-2.358.167-3.513-.583-2.1-1.442-3.523-3.153-5.224-1.192-1.192-2.2-1.95-4.021-3.041-1.581-.943-2.727-1.498-3.31-1.618-.684-.139-2.524-.12-3.947.037-.657.074-1.23.139-1.267.139-.36 0 .786.878 1.646 1.257.286.13 1.21.416 2.043.647.832.222 1.812.527 2.172.666.712.268.916.48.472.48-.139 0-.721.102-1.285.213l-1.026.203 1.673 1.609c2.422 2.33 3.236 2.755 5.103 2.672l.962-.047-.648.26c-1.044.406-1.72 1.007-2.135 1.904-.268.591-.5 1.728-.425 2.117.055.314-.12.277-.407-.083-.573-.712-.74-1.498-.564-2.598.074-.49.065-.555-.111-.75-.25-.276-1.97-1.885-4.058-3.808-1.609-1.488-1.655-1.525-2.81-2.062-1.86-.887-2.386-1.442-2.377-2.542.01-.647.167-1.007.638-1.414.592-.527 1.119-.61 3.384-.536 2.117.055 3.651.258 4.631.6.823.287 1.923.888 2.506 1.378 3.457 2.884 4.973 4.29 5.602 5.223.5.74.934 1.766 1.11 2.626.12.564.212.822.304.841.232.046.416-.222.481-.703.046-.379.019-.517-.176-.878-.896-1.59-1.155-3.494-.776-5.667.157-.869.055-1.119-1.026-2.625-2.099-2.94-2.607-3.81-2.727-4.641-.093-.638.147-1.378.628-1.895.888-.962 2.053-1.184 3.236-.601.665.332 1.47 1.063 2.21 2.024.415.527.425.564.277.703-.148.139-.204.11-.712-.324-.86-.74-1.304-.906-2.376-.906h-.906v.832c0 1.036.018 1.063 1.507 3.31l1.128 1.692 1.183-.028c.647-.018 1.174-.01 1.174.018 0 .028-.148.13-.342.232-.555.305-1.368 1.174-1.682 1.812-.37.758-.509 1.571-.435 2.625.074.99.305 2.404.444 2.672.342.675.795.776 1.497.333l.444-.287-.462.536c-1.22 1.424-1.572 2.617-1.729 5.88l-.055 1.192.259-.046c.795-.157 1.303-.166 1.35-.027.11.277-.796.767-1.877 1.016-.879.204-2.182.832-2.959 1.424-.73.555-1.294 1.1-2.265 2.182-.406.453-.989.99-1.285 1.183-.804.518-1.858.768-2.69.638ZM182.507 74.458c-.259-.232-.471-.453-.471-.5 0-.194 1.127-.545 2.218-.684 1.886-.23 3.144-.36 3.18-.323.019.018.056.194.093.379l.065.332-.537.158c-.84.25-3.457.933-3.79.998-.259.046-.351 0-.758-.36ZM91.437 72.784c-.259-.046-2.246-.591-2.293-.628-.018-.01 0-.14.037-.269l.056-.25.72.066.722.055-.074-.305a39.164 39.164 0 0 0-.268-1.1c-.416-1.692-.222-2.136 1.636-3.717l.823-.711.055 1.775c.084 2.523-.018 3.938-.342 4.622-.268.564-.332.592-1.072.462ZM88.294 66.673V65.13l-.878-1.248c-.49-.685-.916-1.258-.962-1.276-.037-.01-.462.175-.943.416-.767.379-.952.434-1.58.471l-.722.037v-.638c0-.564.037-.693.268-1.007.573-.777 1.23-1.248 2.32-1.664.592-.222.833-.26 1.665-.26.804-.008 1.044.028 1.405.195.49.222.656.48 1.97 3.106.739 1.48.776 1.572.655 1.803-.203.397-.61.72-1.201.989-1.054.453-1.202.647-1.48 1.923-.046.185-.11.25-.286.25h-.231v-1.554ZM124.117 66.331c-.046-.018-.924-.101-1.941-.185-2.367-.184-4.234-.462-4.715-.693-.287-.139-1.211-.841-1.886-1.442-.018-.019.037-.139.12-.259l.148-.231.573.259c.324.148 1.036.48 1.581.74 1.664.804 2.69.98 3.994.702.61-.139.693-.13 1.544.055 1.137.26 1.137.26 1.026.694-.074.333-.213.444-.444.36ZM128.305 66.22c-.462-.12-.25-1.109.62-2.893.388-.804.73-1.655.785-1.942a2.624 2.624 0 0 0-.37-1.885 3.749 3.749 0 0 1-.277-.472c0-.028.176-.046.398-.046h.397l.213 1.118c.37 1.877.24 2.617-.86 4.919-.287.6-.518 1.127-.518 1.183 0 .083-.11.092-.388.018ZM125.837 64.492c-1.11-.906-2.986-1.85-4.493-2.238-.509-.138-.98-.166-2.173-.166-1.525 0-1.969.074-3.383.545-.157.047-.5-.268-2.127-1.987-1.063-1.128-1.941-2.108-1.96-2.182-.073-.314.343-.046 1.896 1.193 2.376 1.904 2.32 1.858 2.468 1.738.305-.25 1.58-.49 2.69-.49 2.533-.019 4.928.85 6.5 2.366.452.435 1.201 1.498 1.109 1.581-.019.019-.26-.138-.527-.36ZM108.854 63.336c-.018-.018-.037-.139-.037-.259v-.212h5.455v.508h-2.69c-1.48 0-2.71-.018-2.728-.037ZM125.375 61.432c-1.378-1.35-1.739-1.664-2.247-1.896-.758-.35-1.655-.443-2.339-.25-.98.297-.961.297-.6-.027.175-.166.545-.407.822-.527.425-.203.582-.23 1.211-.194.573.037.85.111 1.414.37 1.212.582 2.469 1.941 3.292 3.568.157.315.24.574.185.574-.056 0-.842-.73-1.738-1.618ZM94.081 62.763c-.083-.12-.148-.25-.148-.296 0-.037-.342-.915-.749-1.941-1.876-4.678-2.089-6.056-1.183-7.895.49-1.017 1.424-1.988 3.66-3.828 2.654-2.181 3.717-2.82 5.474-3.272.832-.213 1.118-.38 2.219-1.295 1.044-.869 1.405-1.072 2.699-1.571 1.193-.453 5.408-1.71 5.732-1.71.194 0 .434-.158.915-.583.795-.721 1.858-1.266 3.05-1.58.481-.13 1.84-.361 3.005-.518a78.87 78.87 0 0 0 2.589-.361c.259-.055 1.202-.148 2.098-.203 3.134-.222 6.629.212 9.781 1.22 1.202.379 3.171 1.11 3.282 1.211.139.13-1.239.01-4.539-.398a116.404 116.404 0 0 0-4.299-.453c-1.414-.083-3.393.01-4.382.222l-.554.111 2.126 1.415c1.803 1.202 2.403 1.673 2.135 1.673-.037 0-.795-.37-1.7-.823-2.867-1.433-4.124-1.802-6.074-1.802-1.812 0-3.347.388-5.15 1.294a12.84 12.84 0 0 1-1.803.693c-1.007.287-3.522 1.285-7.386 2.903-3.448 1.451-3.966 1.784-4.188 2.681-.12.48-.037.98.36 2.117.352.98.333 1.183-.203 2.995l-.37 1.24.444.868.453.878-.24.204c-.13.11-.61.471-1.063.804-1.803 1.304-2.164 1.58-2.164 1.664 0 .037.12.102.26.139.341.074.905.545 1.1.906.443.869-.102 2.2-1.147 2.764-.592.324-.99.416-2.256.527-.6.055-1.202.13-1.359.157-.212.046-.305.01-.425-.157Z"/><path d="M111.692 52.908c-.499-.61-.749-1.664-.564-2.422.084-.342.24-.62.638-1.063.75-.842 1.34-2.367.925-2.367-.047 0-.694.398-1.433.878-.74.481-1.36.879-1.378.879-.046 0 .25-.768.36-.916.241-.323 1.988-1.516 2.82-1.941 1.72-.85 3.19-.97 4.919-.38 3.374 1.166 6.545 2.95 8.301 4.697.87.86.906.925 1.156 1.664.139.426.24.786.222.805-.074.064-1.747-.25-2.912-.546-2.256-.582-3.171-.961-4.068-1.692-.37-.305-.397-.314-.758-.203-.213.065-.638.333-.952.61-.814.703-1.248.814-2.801.721-2.071-.13-2.256-.083-2.709.721-.314.564-.767.897-1.202.897-.212 0-.351-.083-.564-.342Z"/><path d="M133.482 52.834c-1.396-.351-3.078-1.414-5.62-3.54-3.125-2.626-5.964-3.847-9.939-4.281-.665-.074-1.84-.092-3.42-.055-2.182.046-3.033-.01-2.635-.148.074-.028.767-.167 1.525-.315 1.285-.24 1.553-.259 3.698-.25 2.57 0 3.19.093 5.085.722 1.877.628 3.272 1.47 6.101 3.66 2.395 1.859 3.365 2.525 4.355 3.024 1.433.712 2.607.749 4.918.157.527-.13.98-.213 1.008-.194.083.092-1.258.823-1.933 1.054-.84.295-2.32.379-3.143.166ZM66.513 50.717c-.092-.231.213-1.1.509-1.451.72-.87 3.06-1.47 4.77-1.211.508.073.536.092.324.175-.435.185-4.67 2.173-5.205 2.44-.296.158-.352.158-.398.047Z"/><path d="M129.304 47.195c-4.798-3.236-7.35-4.373-10.475-4.669-1.497-.139-3.245.056-4.604.509l-.185.064.185-.157c.305-.259 1.803-.943 2.45-1.118.749-.204 2.848-.24 3.606-.056 2.357.573 4.825 1.849 7.534 3.883 1.498 1.128 3.513 2.81 3.356 2.792-.019 0-.85-.564-1.867-1.248ZM68.233 46.353c-.721-.314-1.387-1.303-1.387-2.08 0-1.396 2.431-2.7 4.456-2.385.943.148 1.692.444 3.097 1.248.675.389 1.359.74 1.535.795.416.13.684-.046 1.238-.822.36-.5.463-.592.666-.564l.24.027-.027.879c-.037 1.017-.148 1.248-.712 1.46-.204.074-.694.139-1.11.139-.813 0-1.386-.166-2.82-.841-1.09-.509-1.719-.694-2.31-.703-.648 0-1.082.222-1.757.906l-.5.518h2.229c1.405 0 2.256.037 2.293.092.166.268-.074.425-1.082.73-2.607.777-3.374.897-4.05.601ZM69.961 40.243a3.643 3.643 0 0 1-.101-.324c-.046-.222-.028-.259.194-.314.148-.028.906-.213 1.692-.407.786-.194 1.562-.379 1.71-.416l.277-.065-.332-.175c-.185-.093-.481-.37-.657-.61-.397-.546-1.303-2.062-1.266-2.099.092-.056 1.738-.509 2.07-.564.527-.074 1.581.213 3.134.878.721.305 1.332.555 1.369.555.027 0 .037-.24.009-.536-.028-.342-.01-.62.065-.75.138-.276.72-.526 1.525-.655.36-.065.675-.14.712-.176.037-.028-.398-.342-.97-.703-1.258-.785-2.164-1.46-2.46-1.83-.203-.25-.61-1.257-.536-1.331.046-.037 5.87 2.893 6.906 3.485.48.277.961.6 1.081.721.111.12.333.536.49.924.157.389.324.786.38.879.055.101.073.194.046.222-.019.027-.703.194-1.507.37-.805.175-1.47.332-1.48.341-.018.01.102.426.26.925.156.5.267.915.249.924-.074.056-1.553.24-1.914.24-.508 0-1.729-.406-3.161-1.062-.62-.278-1.156-.509-1.193-.509-.037 0-.028.185.028.407.212.924-.157 1.442-1.165 1.618-.656.11-5.39.138-5.455.037Z"/><path d="M86.352 34.03c-.943-.536-2.579-1.507-3.651-2.145-2.469-1.479-3.67-2.144-4.567-2.505-.601-.24-.832-.286-1.535-.296-.712-.009-.906.028-1.34.231-.278.14-.666.37-.87.537-.277.221-.443.286-.757.286-.333 0-.407-.028-.407-.175 0-.509.462-1.285.961-1.59.472-.296.943-.37 2.173-.37 2.672 0 4.826.989 8.181 3.762.916.758 1.23.962 1.34.897a.486.486 0 0 0 .167-.176c.019-.046-.462-.499-1.054-1.007-1.479-1.248-3.078-2.866-3.882-3.93-.657-.868-.666-.887-.675-1.479-.01-.332-.01-.647-.01-.702.01-.074.26-.093.786-.074.601.018.943.092 1.498.305.398.157.73.268.749.25.018-.019-.204-.435-.48-.925-.278-.5-.51-.934-.51-.97 0-.038.315-.111.694-.158l.684-.083-.74-.906c-.406-.508-.73-.924-.711-.934.092-.083 1.183-.674 1.396-.776.323-.139 1.451-.148 2.459-.01.416.056.776.084.804.056.037-.037-1.22-1.886-1.507-2.219-.083-.083-.13-.185-.102-.212.037-.028 1.147-.157 2.487-.278 2.654-.25 2.58-.259 2.58.305 0 .435-.269.564-1.554.75l-1.118.156.684 1.202c.379.666.684 1.258.693 1.313 0 .092-.573.12-2.422.139l-2.422.027-.157.694c-.093.379-.157.693-.148.702.01.01.397.056.85.12.463.065 1.212.24 1.665.389.878.296 4.945 2.219 4.89 2.311-.074.12-.887.166-1.396.074-.296-.056-1.035-.305-1.646-.564-.869-.37-1.248-.48-1.756-.518-.416-.027-.61-.009-.555.047.056.055.61.443 1.248.869 1.923 1.294 2.82 2.283 3.218 3.531.314.99.323 1.11.009 1.535-.157.203-.296.379-.315.379-.018 0-1.396-.86-5.445-3.412-1.063-.665-1.95-1.192-1.978-1.174-.102.102.878 1.091 2.117 2.145.749.629 1.553 1.36 1.784 1.627.564.647 1.054 1.6 1.211 2.358.13.647.204 1.479.13 1.534-.019.019-.805-.407-1.748-.943ZM95.754 26.089l-.24-.37.471-.518c.26-.286.62-.6.805-.693.813-.425.97-.943.499-1.655-.148-.203-1.211-1.359-2.385-2.57-1.165-1.202-2.228-2.33-2.358-2.514-.194-.268-.23-.426-.23-.962 0-.952.12-1.007 1.478-.647 1.295.333 2.099.823 4.752 2.884.925.722 1.701 1.304 1.71 1.286.019-.019-.175-.509-.425-1.091-.443-1.054-.462-1.202-.11-1.211.064 0 .397.434.757.961.906 1.35 1.258 2.348 1.202 3.467l-.028.573-2.126-1.729a1264.48 1264.48 0 0 0-3.374-2.745c-.684-.564-1.294-1.054-1.35-1.1-.055-.038-.185.018-.305.147l-.203.213 1.617 1.405c2.33 2.025 2.478 2.2 2.876 3.458.379 1.174.443 1.95.194 2.32-.204.324-.87.693-1.858 1.036-.453.157-.897.314-.98.35-.102.047-.213-.036-.389-.295ZM104.75 23.029c-.786-.24-1.628-.99-2.312-2.062-.508-.785-1.23-1.682-3.023-3.744-.98-1.128-1.11-1.322-.952-1.368.24-.074.804.037 1.23.25.656.332 1.183.933 2.357 2.708 1.313 1.96 1.886 2.617 2.533 2.857.592.231.832.148 1.165-.379.277-.444.342-.629.62-1.812.295-1.294.86-2.034 1.645-2.145.407-.065.425-.083 2.967-3.152 1.415-1.701 2.598-3.088 2.635-3.088.037 0 .139.055.231.12.157.111.139.185-.314 1.119-.666 1.359-1.11 1.923-2.256 2.875-.536.453-.98.86-.98.906 0 .046.185.286.407.536.527.583.888 1.313.888 1.775 0 .287-.065.425-.305.666-.25.25-.407.314-.99.406-1.423.222-1.904.564-2.533 1.757-.453.869-.906 1.368-1.488 1.636-.472.222-1.073.278-1.526.139ZM117.11 21.56c-.666-.722-.842-1.175-.61-1.619.194-.37.85-1.09.915-1.017.074.074.222 3.079.157 3.079-.019 0-.231-.204-.462-.444ZM120.234 21.06c-.018-.065-.055-.49-.074-.952-.092-1.738-.795-2.737-2.607-3.698-.85-.444-1.192-.786-1.571-1.572-.97-1.997-.694-5.168.555-6.333.203-.194.332-.23.804-.23.675.009.656-.01 1.34 1.432.268.583.537 1.128.583 1.211.083.167-.139.453-.36.453-.056 0-.38-.212-.703-.471l-.601-.472-.084.232c-.194.499-.305 1.395-.268 2.07.074 1.211.407 1.71 2.82 4.216.518.545.97.99.998.99.028 0 .047-1.637.047-3.625l.009-3.633.222.434c.656 1.249.998 3.578.795 5.409-.148 1.368-.305 2.089-.666 3.032-.425 1.119-1.1 1.941-1.239 1.507ZM122.62 19.313l-.287-.296.277-.555c.61-1.193.647-1.433.721-4.41.056-2.413.084-2.773.24-3.161.102-.24.204-.463.232-.49.074-.065 1.257.61 1.535.869.268.259.342.693.277 1.71-.093 1.387-.416 2.33-1.424 4.077-.425.73-1.174 2.2-1.239 2.431-.027.074-.148.01-.332-.175Z"/><path d="M104.5 18.36c-.111-.221-.601-.924-1.091-1.571-1.193-1.572-1.387-1.988-1.387-3.033 0-.517.037-.84.12-.915.084-.092.111-.055.111.204 0 .48.37 1.137 1.211 2.117.99 1.155 1.304 1.82 1.36 2.838.027.434.009.767-.047.767-.046 0-.175-.185-.277-.407ZM106.062 11.723c-.517-.093-.647-.231-.499-.5.092-.166 4.262-1.83 4.354-1.738.111.111-.591 1.267-.98 1.609-.758.666-1.636.85-2.875.629Z"/></g></svg>
