<svg xmlns="http://www.w3.org/2000/svg" width="489" height="358"><g fill="#FFF" fill-rule="nonzero"><path d="M18.589 264.294c3.474 0 6.516-.623 9.126-1.87 2.61-1.245 4.67-2.896 6.18-4.951 1.51-2.056 2.454-4.317 2.832-6.783v-.062c-4.822-2.1-8.515-4.74-11.079-7.916-2.563-3.177-4.48-6.135-5.748-8.876-.46-1.018-.69-1.904-.69-2.659 0-.908.289-1.675.868-2.301.579-.627 1.297-.94 2.156-.94 1.518 0 2.56.717 3.123 2.151 1.23 3.048 3.057 5.864 5.48 8.448 2.422 2.584 5.31 4.652 8.662 6.205 3.353 1.553 6.931 2.329 10.736 2.329 6.258 0 11.789-1.603 16.592-4.809 4.802-3.206 8.538-7.883 11.206-14.031 2.668-6.149 4.003-13.505 4.003-22.07s-1.335-15.922-4.003-22.07c-2.668-6.149-6.404-10.826-11.206-14.032-4.803-3.205-10.334-4.808-16.592-4.808-5.856 0-10.963 1.463-15.32 4.39-4.357 2.928-7.591 7.05-9.702 12.367-.353.888-.769 1.55-1.246 1.988-.477.438-1.102.657-1.877.657-.903 0-1.645-.312-2.225-.936-.58-.624-.871-1.392-.871-2.304 0-1.066.369-2.405 1.107-4.017.738-1.611 1.727-3.289 2.967-5.032a33.262 33.262 0 0 1 4.014-4.69 18.578 18.578 0 0 0-4.06-1.77 15.237 15.237 0 0 0-4.433-.653c-3.684 0-6.926.73-9.725 2.189-2.8 1.46-4.976 3.505-6.531 6.136C.778 176.206 0 179.196 0 182.546v63.949c0 3.493.79 6.59 2.368 9.294 1.58 2.704 3.78 4.797 6.604 6.28 2.823 1.484 6.028 2.225 9.617 2.225Zm26.556-44.6c-1.08 0-1.89-.316-2.431-.948-.54-.631-.81-1.491-.81-2.58v-20.588c0-1.09.27-1.95.81-2.581s1.35-.947 2.43-.947 1.89.316 2.43.947c.54.631.81 1.492.81 2.581v20.587c0 1.09-.27 1.95-.81 2.581-.54.632-1.35.947-2.43.947Zm60.145 27.016c3.732 0 6.998-.813 9.797-2.44 2.799-1.627 4.952-3.888 6.46-6.783 1.506-2.894 2.26-6.232 2.26-10.012V160.44c0-3.732-.766-7.058-2.297-9.976-1.53-2.92-3.708-5.192-6.531-6.819-2.823-1.627-6.053-2.44-9.69-2.44-3.684 0-6.925.813-9.724 2.44-2.8 1.627-4.977 3.9-6.532 6.819-1.555 2.918-2.332 6.244-2.332 9.976v67.035c0 3.732.777 7.058 2.332 9.976 1.555 2.92 3.733 5.192 6.532 6.819 2.799 1.627 6.04 2.44 9.725 2.44Zm82.107.359c3.684 0 6.926-.813 9.725-2.44 2.8-1.627 4.976-3.912 6.532-6.855 1.555-2.942 2.332-6.28 2.332-10.012v-42.848c0-3.732-.747-7.07-2.242-10.012-1.495-2.943-3.603-5.227-6.324-6.854-2.721-1.627-5.843-2.44-9.365-2.44-3.39 0-6.392.813-9.008 2.44-2.616 1.627-4.64 3.911-6.072 6.854-1.431 2.943-2.147 6.28-2.147 10.012v27.663c0 1.086-.27 1.946-.81 2.579-.54.632-1.35.949-2.43.949s-1.89-.317-2.43-.95c-.54-.632-.811-1.492-.811-2.578v-27.663c0-3.732-.716-7.07-2.148-10.012-1.431-2.943-3.455-5.227-6.07-6.854-2.616-1.627-5.619-2.44-9.01-2.44-3.522 0-6.643.813-9.364 2.44-2.72 1.627-4.828 3.911-6.323 6.854s-2.242 6.28-2.242 10.012v31.867c0 6.381 1.05 11.854 3.149 16.417 2.1 4.564 4.98 8.017 8.643 10.359 3.662 2.341 7.822 3.512 12.478 3.512 3.38 0 6.507-.663 9.384-1.989 2.877-1.326 5.512-3.228 7.904-5.705 2.301-2.381 4.378-5.438 6.23-9.17.86-1.656 2.03-2.484 3.511-2.484.78 0 1.46.29 2.039.873.58.582.869 1.24.869 1.972 0 .797-.159 1.546-.477 2.246-.688 1.604-1.61 3.344-2.763 5.22-1.153 1.878-2.694 3.777-4.62 5.698 1.5 1.044 3.246 1.861 5.236 2.452 1.99.591 4.198.887 6.624.887Zm59.212 17.225c8.565 0 15.92-1.048 22.066-3.144 6.145-2.096 10.834-5.119 14.067-9.068 3.233-3.95 4.85-8.645 4.85-14.087 0-5.652-.978-10.535-2.932-14.65s-4.882-7.225-8.783-9.33c-3.384 2.005-7.36 3.567-11.929 4.686-4.569 1.12-8.416 1.679-11.541 1.679a55.65 55.65 0 0 1-6.556-.39c-2.195-.26-3.86-.58-4.997-.956-.648-.216-1.2-.615-1.656-1.197-.456-.582-.685-1.221-.685-1.917 0-.906.314-1.66.941-2.264.628-.603 1.418-.904 2.372-.904.533.005 1.53.137 2.988.396 1.009.16 2.15.326 3.422.496 1.273.17 2.663.256 4.171.256 4.982 0 9.948-.916 14.897-2.748 4.95-1.832 9.03-4.425 12.24-7.778 3.212-3.353 4.817-7.196 4.817-11.528 0-.733-.028-1.45-.084-2.153a23.862 23.862 0 0 0-.234-1.967 21.22 21.22 0 0 1-4.915 2.07c-1.77.502-3.443.752-5.02.752-2.366 0-4.275-.332-5.727-.998-1.452-.665-2.178-1.652-2.178-2.96 0-.863.312-1.596.936-2.196.624-.6 1.368-.9 2.232-.9.467.006 1.1.095 1.896.27.885.203 1.784.305 2.697.305 2.396 0 4.85-.758 7.364-2.275 2.513-1.516 4.58-3.548 6.2-6.095 1.621-2.548 2.432-5.242 2.432-8.082 0-2.392-.563-4.617-1.687-6.675-1.125-2.057-2.74-3.708-4.845-4.952-2.105-1.244-4.57-1.866-7.392-1.866-2.919 0-5.395.67-7.429 2.01-2.033 1.34-3.564 3.074-4.593 5.203-1.029 2.13-1.543 4.342-1.543 6.639l.006-.322-.747-.258a39.972 39.972 0 0 0-2.448-.728l-.795-.2c-3.42-.813-7.045-1.22-10.873-1.22-7.369 0-13.816.982-19.343 2.943-5.526 1.962-9.785 4.75-12.775 8.362s-4.486 7.835-4.486 12.668c0 4.737 1.232 8.84 3.696 12.309 1.643 2.312 3.738 4.247 6.284 5.805l.119.07-.403.17a16.266 16.266 0 0 0-4.319 2.77l-.46.432c-2.56 2.5-3.84 5.54-3.84 9.12 0 3.714 1.299 6.877 3.896 9.49 2.598 2.613 6.442 4.609 11.534 5.987 5.091 1.378 11.327 2.067 18.708 2.067 2.525 0 4.9-.136 7.124-.408 2.224-.272 4.585-.623 7.082-1.054 1.81-.317 2.906-.475 3.29-.475.906 0 1.673.311 2.3.935.627.624.94 1.368.94 2.233 0 .822-.25 1.514-.751 2.074-.501.561-1.219.952-2.153 1.174-1.897.52-4.382.984-7.454 1.391-3.072.407-6.532.61-10.378.61-6.173 0-11.656-.447-16.45-1.34-4.795-.894-9.116-2.304-12.963-4.229-1.564 1.263-2.742 2.695-3.535 4.296-.794 1.602-1.19 3.605-1.19 6.01 0 3.198 1.278 5.959 3.835 8.284 2.557 2.325 6.407 4.132 11.55 5.42 5.145 1.288 11.523 1.932 19.137 1.932Zm.933-66.276c-1.08 0-1.89-.316-2.43-.949-.54-.633-.81-1.492-.81-2.579v-9.104c0-1.086.27-1.946.81-2.578.54-.633 1.35-.95 2.43-.95s1.89.317 2.43.95c.54.632.81 1.492.81 2.578v9.104c0 1.087-.27 1.946-.81 2.579-.54.633-1.35.95-2.43.95Zm63.864-23.265c3.875 0 7.26-.802 10.155-2.404 2.895-1.603 5.108-3.78 6.64-6.532 1.53-2.751 2.296-5.85 2.296-9.294 0-3.397-.778-6.496-2.333-9.295-1.555-2.799-3.768-5.012-6.639-6.639-2.87-1.627-6.244-2.44-10.12-2.44-3.875 0-7.26.813-10.155 2.44-2.895 1.627-5.12 3.84-6.675 6.64-1.555 2.798-2.333 5.897-2.333 9.294 0 3.445.778 6.544 2.333 9.299 1.555 2.754 3.78 4.931 6.675 6.531 2.895 1.6 6.28 2.4 10.156 2.4Zm0 71.957c3.732 0 6.997-.813 9.797-2.44 2.799-1.627 4.952-3.888 6.459-6.783 1.507-2.894 2.26-6.232 2.26-10.012v-43.278c0-3.14-.57-5.987-1.713-8.544-2.163 1.813-4.715 3.196-7.655 4.15a29.45 29.45 0 0 1-9.147 1.43c-3.16 0-6.201-.478-9.124-1.435-2.924-.957-5.507-2.341-7.752-4.154-1.143 2.557-1.714 5.407-1.714 8.553v43.278c0 3.732.777 7.058 2.332 9.976 1.555 2.92 3.732 5.192 6.531 6.819 2.8 1.627 6.041 2.44 9.726 2.44Zm82.82 0c3.522 0 6.644-.813 9.365-2.44 2.72-1.627 4.829-3.912 6.324-6.854 1.494-2.943 2.242-6.28 2.242-10.013v-31.866c0-6.381-1.05-11.854-3.15-16.418-2.1-4.564-4.98-8.016-8.643-10.358-3.663-2.342-7.822-3.512-12.477-3.512-3.374 0-6.501.663-9.38 1.989-2.88 1.325-5.516 3.227-7.908 5.705-2.302 2.381-4.379 5.438-6.232 9.17-.859 1.656-2.029 2.484-3.51 2.484-.78 0-1.46-.291-2.039-.873-.579-.582-.868-1.24-.868-1.972 0-.797.158-1.546.475-2.246.689-1.604 1.61-3.344 2.764-5.221 1.153-1.877 2.693-3.776 4.62-5.698-1.5-1.043-3.246-1.86-5.236-2.452-1.99-.59-4.198-.886-6.623-.886-3.685 0-6.926.813-9.725 2.44-2.8 1.627-4.977 3.912-6.532 6.854-1.555 2.943-2.332 6.28-2.332 10.012v42.848c0 3.733.747 7.07 2.242 10.013 1.495 2.942 3.603 5.227 6.323 6.854 2.72 1.627 5.842 2.44 9.364 2.44 3.39 0 6.394-.813 9.01-2.44 2.615-1.627 4.639-3.912 6.07-6.854 1.432-2.943 2.148-6.28 2.148-10.013v-27.662c0-1.086.27-1.946.81-2.579.54-.633 1.35-.95 2.43-.95s1.89.317 2.43.95c.54.633.81 1.493.81 2.579v27.662c0 3.733.716 7.07 2.148 10.013 1.432 2.942 3.456 5.227 6.072 6.854 2.616 1.627 5.618 2.44 9.008 2.44ZM161.904 358c3.474 0 6.516-.623 9.125-1.87 2.61-1.246 4.67-2.896 6.18-4.952 1.51-2.055 2.455-4.316 2.833-6.782v-.062c-4.822-2.1-8.515-4.74-11.079-7.916-2.563-3.177-4.48-6.136-5.748-8.876-.46-1.018-.691-1.904-.691-2.66 0-.907.29-1.674.868-2.3.58-.627 1.298-.94 2.156-.94 1.519 0 2.56.717 3.124 2.15 1.23 3.049 3.057 5.865 5.479 8.449 2.422 2.583 5.31 4.652 8.662 6.204 3.353 1.553 6.932 2.33 10.737 2.33 6.258 0 11.789-1.603 16.591-4.81 4.803-3.205 8.539-7.882 11.207-14.03 2.668-6.149 4.002-13.506 4.002-22.07 0-8.565-1.334-15.922-4.002-22.07-2.668-6.149-6.404-10.826-11.207-14.032-4.802-3.206-10.333-4.809-16.591-4.809-5.857 0-10.963 1.464-15.32 4.391-4.358 2.928-7.591 7.05-9.702 12.367-.354.888-.769 1.55-1.246 1.988-.477.438-1.103.656-1.877.656-.903 0-1.645-.312-2.226-.935-.58-.624-.87-1.392-.87-2.304 0-1.067.368-2.405 1.106-4.017.738-1.611 1.727-3.289 2.968-5.032a33.262 33.262 0 0 1 4.013-4.69 18.578 18.578 0 0 0-4.06-1.77 15.237 15.237 0 0 0-4.432-.654c-3.685 0-6.926.73-9.725 2.19-2.8 1.459-4.977 3.504-6.532 6.136-1.555 2.632-2.332 5.622-2.332 8.972V340.2c0 3.492.79 6.59 2.368 9.294 1.58 2.703 3.78 4.797 6.603 6.28 2.823 1.483 6.029 2.225 9.618 2.225Zm26.555-44.6c-1.08 0-1.89-.316-2.43-.948-.54-.631-.81-1.492-.81-2.58v-20.588c0-1.09.27-1.95.81-2.581.54-.632 1.35-.947 2.43-.947s1.89.315 2.43.947c.54.631.81 1.491.81 2.58v20.588c0 1.09-.27 1.95-.81 2.581-.54.632-1.35.947-2.43.947Zm60.162 27.016c3.732 0 6.998-.814 9.797-2.44 2.8-1.627 4.952-3.888 6.46-6.783 1.507-2.895 2.26-6.232 2.26-10.012v-45.166c0-3.14-.57-5.987-1.713-8.544-8.252 1.868-13.645 1.868-16.804 1.868-3.16 0-9.725 0-16.874-1.876-1.143 2.556-1.715 5.406-1.715 8.552v45.166c0 3.732.778 7.057 2.333 9.976 1.555 2.919 3.732 5.192 6.531 6.819 2.8 1.626 6.04 2.44 9.725 2.44Zm74.856-1.077c3.063 0 5.802-.622 8.218-1.866 2.417-1.244 4.307-3.002 5.67-5.275 1.364-2.273 2.046-4.893 2.046-7.86 0-2.432-.474-4.707-1.42-6.823a13.683 13.683 0 0 0-4.178-5.31c-1.839-1.423-4.044-2.365-6.615-2.827a33.789 33.789 0 0 1-5.876 6.659c-2.278 1.99-4.228 3.495-5.85 4.513l-.135.071c-.624.402-1.154.697-1.591.886a3.477 3.477 0 0 1-1.393.283c-.865 0-1.62-.3-2.268-.9-.648-.601-.972-1.334-.972-2.201 0-1.17.567-2.122 1.7-2.859 2.309-1.489 4.288-2.95 5.938-4.385a24.715 24.715 0 0 0 4.286-4.834l9.833-14.785c2.153-3.206 3.888-6.208 5.203-9.007 1.316-2.8 1.974-5.084 1.974-6.855 0-3.062-.67-5.765-2.01-8.11-1.34-2.344-3.205-4.175-5.598-5.49-2.392-1.316-5.143-1.974-8.254-1.974H287.52c-3.063 0-5.802.622-8.218 1.866-2.417 1.244-4.307 3.002-5.67 5.275-1.364 2.273-2.046 4.893-2.046 7.86 0 2.774.634 5.382 1.902 7.822 1.268 2.44 3.29 4.414 6.065 5.922 2.775 1.507 6.316 2.26 10.622 2.26 2.422 0 4.462-.119 6.12-.357 1.658-.239 3.332-.708 5.023-1.407 1.054-.413 1.848-.62 2.382-.62.862 0 1.605.313 2.23.938.625.626.938 1.37.938 2.231 0 .65-.186 1.246-.558 1.788-.372.542-.86.942-1.466 1.2-2.12.946-4.692 1.686-7.718 2.221-3.027.535-6.362.634-10.006.298l-6.993 10.216c-2.105 3.062-3.828 6.017-5.168 8.864-1.34 2.847-2.01 5.18-2.01 6.998 0 3.062.67 5.765 2.01 8.11 1.34 2.344 3.206 4.175 5.599 5.49 2.392 1.316 5.143 1.974 8.253 1.974h34.666Zm70.78 0c3.063 0 5.802-.622 8.219-1.866 2.416-1.244 4.306-3.002 5.67-5.275 1.363-2.273 2.045-4.893 2.045-7.86 0-2.432-.473-4.707-1.42-6.823a13.683 13.683 0 0 0-4.178-5.31c-1.839-1.423-4.043-2.365-6.614-2.827a33.789 33.789 0 0 1-5.877 6.659c-2.278 1.99-4.228 3.495-5.85 4.513l-.135.071c-.623.402-1.154.697-1.591.886a3.477 3.477 0 0 1-1.393.283c-.864 0-1.62-.3-2.268-.9-.648-.601-.972-1.334-.972-2.201 0-1.17.567-2.122 1.7-2.859 2.309-1.489 4.288-2.95 5.938-4.385a24.715 24.715 0 0 0 4.286-4.834l9.833-14.785c2.153-3.206 3.888-6.208 5.204-9.007 1.315-2.8 1.973-5.084 1.973-6.855 0-3.062-.67-5.765-2.01-8.11-1.339-2.344-3.205-4.175-5.597-5.49-2.393-1.316-5.144-1.974-8.254-1.974H358.3c-3.062 0-5.802.622-8.218 1.866-2.416 1.244-4.306 3.002-5.67 5.275-1.364 2.273-2.046 4.893-2.046 7.86 0 2.774.634 5.382 1.902 7.822 1.268 2.44 3.29 4.414 6.065 5.922 2.775 1.507 6.316 2.26 10.622 2.26 2.422 0 4.462-.119 6.12-.357 1.658-.239 3.333-.708 5.023-1.407 1.054-.413 1.848-.62 2.382-.62.862 0 1.605.313 2.23.938.625.626.938 1.37.938 2.231 0 .65-.186 1.246-.558 1.788-.372.542-.86.942-1.466 1.2-2.119.946-4.692 1.686-7.718 2.221-3.026.535-6.362.634-10.005.298l-6.994 10.216c-2.105 3.062-3.828 6.017-5.167 8.864-1.34 2.847-2.01 5.18-2.01 6.998 0 3.062.67 5.765 2.01 8.11 1.34 2.344 3.205 4.175 5.598 5.49 2.392 1.316 5.144 1.974 8.254 1.974h34.666Zm75.477 1.436c3.685 0 6.926-.754 9.726-2.261 2.799-1.507 4.976-3.613 6.53-6.316 1.556-2.704 2.333-5.778 2.333-9.223v-29.57c0-6.89-1.495-12.943-4.485-18.158-2.99-5.216-7.225-9.235-12.704-12.058-5.479-2.823-11.878-4.235-19.199-4.235-7.225 0-13.804 1.1-19.737 3.302-5.934 2.2-10.623 5.215-14.068 9.043-3.445 3.828-5.167 8.063-5.167 12.704 0 2.888.707 5.318 2.12 7.29 1.415 1.973 3.284 3.45 5.608 4.432 2.323.983 4.89 1.474 7.703 1.474 2.354 0 4.522-.514 6.502-1.542a12.889 12.889 0 0 0 4.85-4.35c1.251-1.872 1.983-4 2.194-6.385.167-1.307.51-2.237 1.03-2.789.519-.551 1.276-.827 2.271-.827.952 0 1.709.339 2.272 1.016.562.678.843 1.683.843 3.014 0 3.003-.891 5.925-2.675 8.767-1.783 2.841-4.193 5.148-7.228 6.919s-6.365 2.657-9.988 2.657c-1.861 0-3.723-.181-5.585-.543-1.862-.361-3.538-.883-5.028-1.565-1.253 1.87-2.178 3.794-2.774 5.769-.597 1.974-.895 4.291-.895 6.95 0 5.12 1.088 9.702 3.265 13.745 2.178 4.043 5.18 7.177 9.008 9.402 3.828 2.225 8.11 3.338 12.847 3.338 5.08 0 9.509-1.682 13.288-5.046 3.78-3.364 6.814-7.802 9.105-13.315.434-1.044.921-1.74 1.463-2.088.542-.348 1.18-.522 1.911-.522.818 0 1.538.271 2.162.814.624.544.936 1.271.936 2.183 0 .197-.027.415-.08.654-.055.24-.111.506-.17.799a.375.375 0 0 0-.081.233c-.579 1.828-1.672 4.057-3.279 6.688-1.607 2.631-3.194 4.83-4.762 6.595.97.829 2.414 1.537 4.334 2.124 1.92.587 3.788.88 5.604.88Zm-17.153-23.95c-1.08 0-1.89-.317-2.43-.948-.541-.631-.811-1.492-.811-2.581v-7.668c0-1.089.27-1.95.81-2.58.54-.633 1.35-.948 2.43-.948s1.89.315 2.43.947c.54.632.81 1.492.81 2.58v7.669c0 1.09-.27 1.95-.81 2.581s-1.35.947-2.43.947ZM217.51 2.183c41.61 8.844 68.152 49.715 59.307 91.326-8.844 41.612-49.715 68.153-91.326 59.308-41.612-8.844-68.153-49.715-59.308-91.326 8.844-41.612 49.715-68.153 91.326-59.308Zm-2.08 9.781c-36.207-7.696-71.77 15.399-79.466 51.606-7.696 36.207 15.399 71.77 51.606 79.466 36.207 7.696 71.77-15.399 79.466-51.606 7.696-36.207-15.399-71.77-51.606-79.466Z"/><path d="M214.494 16.366c33.776 7.179 55.32 40.353 48.14 74.128-7.179 33.776-40.353 55.32-74.128 48.14-33.776-7.179-55.32-40.353-48.14-74.128 7.179-33.776 40.353-55.32 74.128-48.14Zm16.727 73.898c-1.59-.338-3.283.432-4.13 1.914-6.54 11.703-18.215 16.598-31.633 13.746-13.544-2.879-21.873-12.16-23.307-25.424-.171-1.698-1.404-3.09-2.994-3.428-2.035-.432-4.116.92-4.562 3.018-.69 3.243 1.596 12.502 7.016 19.835 5.306 7.242 14.304 11.813 22.252 13.503 6.041 1.284 11.907 1.202 17.29-.047l.013-.004 4.107 6.263c1.716 2.558 4.244 4.425 7.296 5.074 6.295 1.338 12.477-2.732 13.815-9.027.622-2.925.086-6.03-1.603-8.715l-4.089-6.349.636-.796c1.473-1.903 2.561-3.67 2.833-4.95.42-1.971-.651-4.126-2.94-4.613Zm-4.15 14.205 3.405 5.243c1.002 1.542 1.3 3.267.948 4.92-.797 3.752-4.48 5.76-7.787 5.058-1.717-.365-3.235-1.352-4.173-2.88l-3.242-5.076c1.743-.693 3.462-1.59 5.068-2.579 1.76-1.088 3.846-2.771 5.781-4.686Zm-22.908-39.496c-5.278-1.122-10.43 2.17-11.566 7.51-.433 2.036.792 4.09 2.954 4.55 2.035.433 4.117-.92 4.55-2.954a2.054 2.054 0 0 1 2.467-1.603c1.144.244 1.909 1.337 1.666 2.481-.433 2.035.856 4.104 2.954 4.55 2.098.446 4.117-.92 4.55-2.955 1.135-5.341-2.297-10.457-7.575-11.58Zm20.757-9.479c-5.278-1.122-10.43 2.17-11.566 7.511-.433 2.035.792 4.09 2.954 4.55 2.035.432 4.117-.92 4.55-2.955a2.054 2.054 0 0 1 2.467-1.602c1.145.243 1.91 1.336 1.666 2.48-.433 2.036.856 4.104 2.954 4.55 2.099.446 4.117-.92 4.55-2.954 1.135-5.342-2.297-10.458-7.575-11.58Zm-35.928-7.636c-5.278-1.122-10.43 2.169-11.566 7.51-.433 2.035.792 4.09 2.954 4.55 2.035.432 4.117-.92 4.55-2.955a2.054 2.054 0 0 1 2.467-1.602c1.145.243 1.91 1.336 1.666 2.481-.433 2.035.856 4.103 2.954 4.55 2.099.445 4.117-.92 4.55-2.955 1.135-5.342-2.297-10.458-7.575-11.58Z"/></g></svg>
