<svg xmlns="http://www.w3.org/2000/svg" width="448" height="347"><g fill="none" fill-rule="nonzero"><path fill="#000" d="M180.678 171.25c2.06-.513 3.792-1.646 5.318-3.252 1.155-1.339 2.227-3.007 3.115-5.067 1.486-3.523 2.436-7.788 3.428-11.888.806-3.79 1.57-7.396 2.726-10.136.413-.803 1.507-3.44 3.238-3.872 1.401-.35 2.143.166 4.264 2.352 1.256 1.175 2.553 2.515 4.47 3.526 2.224 1.197 4.738 1.446 7.458.767 4.781-1.192 7.03-4.817 8.866-7.639 1.897-2.925 3.114-4.717 5.917-5.415 2.803-.7 11.045.048 14.486.153l40.387.788c1.67.022 3.09.105 4.245-.183 1.566-.39 2.742-1.997 2.31-3.728-.123-.495-.432-1.03-.823-1.546l-88.631-109.7.108-.263c.749-1.902.91-4.099.33-6.683l-.092-.39c-1.706-6.843-8.977-10.02-16.48-8.15-6.76 1.685-13.748 6.668-19.417 11.671-11.217 10.152-21.92 24.817-30.03 41.461-10.15 20.744-17.855 50.247-13.58 67.394 2.035 8.161 7.328 12.883 14.335 11.136 1.484-.37 2.741-.946 3.772-1.728l.483.246c2.238 1.175 4.247 2.743 6.137 4.675l.403.42c4.118 4.577 7.02 10.596 9.86 16.368 2.572 5.4 5.083 10.553 8.419 14.1 1.936 2.144 4.057 3.629 6.426 4.351 2.596.93 5.502.993 8.552.232Z"/><path fill="#FF5" d="M233.675 123.6c-2.214-.001-4.352.147-5.82.513-5.524 1.377-7.979 5.229-9.918 8.34-1.691 2.698-2.722 4.18-4.866 4.715-2.225.555-3.193-.167-5.541-2.559-1.153-1.113-2.43-2.371-3.954-3.217-2.122-1.134-4.286-1.383-6.676-.787-3.38.843-5.916 3.314-7.712 7.702-1.444 3.337-2.292 7.313-3.221 11.31-1.488 6.676-3.12 14.175-6.913 15.12-3.462.864-6.017.1-8.53-2.6-2.635-2.846-4.858-7.546-7.224-12.472-2.881-5.936-6.133-12.656-10.951-17.934-2.45-2.804-5.17-4.928-8.177-6.455.97-3.132 1.241-6.964 1.264-11.085-.03-17.33 4.347-30.33 12.682-47.118 8.707-17.757 18.873-29.31 34.232-41.108 1.897-1.524 3.505-2.8 4.928-4.118l83.1 102.917-20.77-.425c2.598-3.625 3.632-8.26 2.46-12.96-2.014-8.078-10.46-13.153-18.703-11.097-8.244 2.055-13.318 10.5-11.304 18.58.432 1.73 1.173 3.297 2.058 4.74l-.444-.002Z"/><path fill="#FFD200" d="M134.92 126.094c-3.298.822-5.15-2.043-6.158-6.082-4.008-16.076 4.274-45.022 13.084-63.067 6.953-14.255 17.575-29.6 28.543-39.34 4.866-4.365 11.03-8.791 16.389-10.127 4.204-1.049 7.727.087 8.487 3.137 1.07 4.287-2.27 6.345-7.033 10.072-9.009 7.062-24.162 18.983-36.108 43.415-8.81 18.045-13.435 31.807-13.343 50.084-.128 5.46-.234 11.004-3.861 11.908Z"/><path fill="#000" d="M220.363 108.468c6.183-1.541 11.277-7.452 9.797-13.387-.679-2.72-2.47-3.938-4.449-3.444-1.814.452-2.825 2.367-2.413 4.016.801 3.215-1.323 5.584-4.455 6.365-2.061.514-3.771-.023-4.554-1.054-1.05-1.402-2.306-2.227-3.79-1.857-1.814.452-2.824 2.368-2.413 4.017 1.11 4.451 7.166 6.619 12.277 5.344ZM223.368 81.538c3.628-.904 5.917-4.715 5.013-8.342-.966-3.875-4.86-5.793-8.322-4.93-3.874.966-5.876 4.88-5.012 8.342.945 3.792 4.859 5.793 8.321 4.93ZM197.087 94.483c3.628-.905 5.917-4.715 5.013-8.343-.966-3.874-4.86-5.793-8.322-4.93-3.874.966-5.876 4.88-5.012 8.343.945 3.792 4.86 5.793 8.321 4.93ZM175.017 129.932c11.046-2.755 17.998-14.207 15.161-25.583-2.754-11.047-14.289-17.978-25.336-15.224-11.376 2.837-18.224 14.351-15.47 25.398a21.103 21.103 0 0 0 25.645 15.409Z"/><path fill="#FF3901" d="M173.331 123.522c-7.75 1.932-15.576-2.77-17.509-10.52-1.89-7.584 2.813-15.411 10.562-17.344 7.584-1.89 15.411 2.813 17.302 10.397 1.932 7.749-2.77 15.576-10.355 17.467ZM249.243 123.859c-.494.123-.906.226-1.422.267l-1.772-.084a8.905 8.905 0 0 1-7.537-6.702c-1.151-4.616 1.757-9.457 6.456-10.628 4.699-1.172 9.54 1.737 10.69 6.353 1.193 4.782-1.716 9.622-6.415 10.794Z"/><path fill="#000" d="M201.698 69.779c9.398-2.343 15.339-12.23 12.913-21.958-2.343-9.398-12.23-15.338-21.628-12.995-9.727 2.425-15.668 12.312-13.325 21.71 2.426 9.728 12.313 15.668 22.04 13.243Z"/><path fill="#FF3901" d="M199.992 63.287c-6.1 1.521-12.28-2.192-13.8-8.292-1.48-5.936 2.232-12.115 8.333-13.636 5.935-1.48 12.115 2.233 13.595 8.168 1.52 6.1-2.192 12.28-8.128 13.76Z"/><path fill="#000" d="M283.047 135.5c13.643 0 23.227 9.686 23.227 22.53a24.12 24.12 0 0 1-.943 6.77c3.912-3.421 9.124-5.409 15.148-5.409 5.399 0 10.187 1.387 13.961 3.963l.374.262.357.261.18-.116c4.187-2.676 8.957-4.171 14.064-4.351l.549-.014.5-.005c17.26 0 28.313 12.673 28.536 32.642v29.277c0 13.517-9.283 23.37-22.514 23.37-7.56 0-13.802-3.307-17.718-8.708l-.228-.32-.186-.27-.18.264c-3.75 5.389-9.756 8.782-17.06 9.02l-.44.011-.39.003c-8.015 0-14.58-3.584-18.525-9.4-3.937 5.834-10.543 9.4-18.712 9.4-6.314 0-11.735-2.17-15.703-5.88a24.773 24.773 0 0 1-3.471 7.005h29.504c6.555 0 12.1 2.6 15.733 6.925 3.576-4.243 9.06-6.807 15.498-6.922l.45-.004h31.293c8.492 0 15.29 4.365 18.43 11.19 7.368-7.742 20.011-12.494 34.372-12.494 22.96 0 38.533 14.636 38.842 36.635l.005.67v26.869c0 12.905-9.496 22.174-22.78 22.174-4.428 0-9.277-1.46-12.584-3.942l-.326-.252-.159-.131-.191.131c-3.81 2.55-8.227 4.01-13.234 4.178l-.539.013-.437.003c-9.344 0-17.318-4.101-22.467-10.816-3.364 5.791-9.705 9.398-17.4 9.509l-.366.002h-31.292c-6.555 0-12.1-2.6-15.733-6.925-3.592 4.262-9.108 6.83-15.583 6.923l-.365.002H263.25c-7.157 0-13.111-3.1-16.686-8.162-3.96 5.68-10.47 9.14-18.493 9.14-10.335 0-18.267-5.843-21.364-14.76-6.252 9.584-16.186 15.087-28.588 15.087a29.2 29.2 0 0 1-4.335-.323l-.707-.115-.257-.047c-2.103 9.364-10.293 15.823-21.235 16.126l-.411.008-.395.003c-13.032 0-22.587-9.021-22.777-21.786l-.003-.388v-58.109c0-12.68 9.53-21.717 22.78-21.717 4.298 0 8.593 1.452 11.98 3.867l.088.064.264-.15c2.826-1.585 5.947-2.698 9.29-3.288-5.095-.121-9.616-1.496-13.215-3.953l-.374-.262-.358-.262-.18.118c-4.186 2.675-8.956 4.17-14.064 4.35l-.548.015-.5.004c-10.14 0-18.14-4.375-23.057-12.035-3.658 7.19-10.875 11.712-20.073 11.712-10.318 0-18.252-5.792-21.353-14.642-6.252 9.508-16.186 14.965-28.578 14.965-1.515 0-3.008-.116-4.468-.34l-.625-.104-.211-.039-.079.334c-2.235 9.097-10.352 15.336-21.132 15.635l-.416.008-.398.003C9.757 260.5.193 251.556 0 238.872v-57.919c0-12.601 9.54-21.562 22.773-21.562 4.287 0 8.572 1.435 11.955 3.825l.106.077.276-.156c4.105-2.284 8.83-3.576 13.953-3.73l.592-.013.447-.003c11.492 0 20.87 4.693 27.158 12.957v-11.283c0-13.542 9.377-23.305 22.773-23.305 13.21 0 22.52 9.582 22.705 22.9l.003.405v3.578c3.798-3.124 8.737-4.929 14.4-4.929 7.56 0 13.802 3.307 17.718 8.709l.228.32.185.268.18-.262c3.75-5.39 9.756-8.782 17.061-9.021l.44-.01.39-.004c8.996 0 16.165 4.515 19.854 11.634 6.61-7.633 18.509-11.957 33.314-11.957 2.819 0 5.451.19 8.033.61l.773.133.141.026.093-.214c2.64-5.973 8.309-10.275 15.836-10.55l.405-.01.364-.003c3.158 0 6.047.675 8.557 1.88 2.752-9.327 11.214-15.763 22.334-15.763Zm26.283 143.17-.167.294a83.507 83.507 0 0 1-2.625 4.236l-5.171 7.826.203.064c3.539 1.136 6.461 3.078 8.66 5.604a70.627 70.627 0 0 1 2.697-4.354l.5-.74 4.807-7.054-.407-.142c-3.484-1.26-6.344-3.23-8.497-5.734Zm60.805 3.572-.623.958-5.172 7.826.204.064a19.9 19.9 0 0 1 5.347 2.628c.593-2.355 1.518-4.534 2.796-6.644l.302-.485.152-.237-.293-.308a17.814 17.814 0 0 1-2.713-3.802Z"/><path fill="#FFF" d="M409.153 250.5c19.755 0 32.588 12.08 32.843 30.737l.004.567v26.87c0 9.456-6.673 16.174-16.78 16.174-3.758 0-8.228-1.565-10.042-3.718 2.786-3 5.766-8.021 7.062-11.478l.14-.432c.166-.53.249-.885.249-1.198 0-1.174-.907-1.892-1.814-1.892-.713 0-1.426.261-2.009 1.63-3.758 9.523-10.366 17.088-21.056 17.088-12.893 0-22.675-9.783-22.675-24.065 0-5.413 1.425-9.066 4.146-12.653 2.527 1.37 5.83 2.022 8.746 2.022 9.654 0 16.975-8.022 16.975-16.174 0-1.891-.713-2.674-1.88-2.674-1.165 0-1.813.653-1.943 2.348-.389 7.435-6.284 12.587-13.217 12.587-7.32 0-13.929-4.696-13.929-12.978 0-12.848 15.355-22.761 35.18-22.761Zm.583 39.217c-1.36 0-1.944.913-1.944 2.218v7.956c0 1.24.583 2.218 1.944 2.218 1.36 0 1.943-.979 1.943-2.218v-7.956c0-1.305-.583-2.218-1.943-2.218ZM356.35 251.804c8.488 0 14.319 5.74 14.319 14.153 0 3.372-2.775 8.792-6.22 14.02l-9.135 13.827c-2.23 3.369-5.291 5.902-9.012 8.342l-.511.332c-.648.392-1.037.979-1.037 1.761 0 1.044.907 1.826 1.944 1.826.647 0 1.34-.407 1.928-.77l.34-.208c1.684-1.044 6.478-4.5 9.652-9.065 9.265.717 13.282 7.174 13.282 13.891 0 8.17-5.864 13.485-14.045 13.628l-.338.002h-31.292c-8.487 0-14.318-5.739-14.318-14.152 0-3.372 2.775-8.917 6.219-14.03l7.904-11.6c7.127.391 12.116-1.304 14.772-2.478.713-.326 1.23-.979 1.23-1.826a1.886 1.886 0 0 0-1.878-1.892c-.454 0-1.037.196-1.75.457-3.563 1.5-6.608 1.956-10.948 1.956-12.245 0-16.78-7.435-16.78-14.543 0-8.17 5.863-13.486 14.045-13.628l.338-.003h31.292ZM293.377 251.804c8.488 0 14.318 5.74 14.318 14.153 0 3.287-2.638 8.523-5.962 13.628l-9.392 14.22c-2.231 3.368-5.292 5.901-9.013 8.341l-.511.332c-.648.392-1.037.979-1.037 1.761 0 1.044.907 1.826 1.944 1.826.648 0 1.34-.407 1.929-.77l.339-.208c1.684-1.044 6.478-4.5 9.653-9.065 9.265.717 13.281 7.174 13.281 13.891 0 8.17-5.863 13.485-14.045 13.628l-.337.002H263.25c-8.487 0-14.318-5.739-14.318-14.152 0-3.372 2.775-8.917 6.22-14.03l7.904-11.6c7.126.391 12.115-1.304 14.771-2.478.713-.326 1.231-.979 1.231-1.826a1.886 1.886 0 0 0-1.879-1.892c-.453 0-1.036.196-1.749.457-3.563 1.5-6.608 1.956-10.949 1.956-12.245 0-16.78-7.435-16.78-14.543 0-8.17 5.864-13.486 14.045-13.628l.338-.003h31.292ZM244.787 257.35v49.693c0 10.305-6.48 17.479-16.715 17.479-9.991 0-16.627-7.01-16.778-17.124l-.002-.355v-48.338c3.405.709 8.987 1.064 16.747 1.064 6.343-.092 11.748-.84 16.216-2.247l.532-.172ZM178.12 250.5c17.622 0 29.932 13.37 29.932 37.174 0 23.804-12.31 37.174-29.932 37.174-10.301 0-18.788-6.718-22.351-15.587-.39-.848-1.037-1.304-1.944-1.304-.972 0-1.75.847-1.75 1.956 0 .522.257 1.25.496 1.817l.29.66c1.193 2.607 5.127 10.048 13.992 13.96l.448.193v.261c-.583 7.63-6.609 13.696-16.521 13.696-9.732 0-16.616-6.37-16.777-15.835l-.003-.339v-58.109c0-9.195 6.673-15.717 16.78-15.717 3.304 0 6.479 1.24 8.746 2.935-3.952 3.456-7.645 9.587-7.645 12.195 0 1.11.713 1.957 1.814 1.957.915 0 1.428-.52 1.863-1.56l.081-.2c3.822-9.718 12.115-15.327 22.481-15.327Zm-3.369 24.848c-1.36 0-1.943.913-1.943 2.217v19.696c0 1.239.583 2.217 1.943 2.217s1.944-.978 1.944-2.217v-19.696c0-1.304-.583-2.217-1.944-2.217ZM350.463 165.391c13.336 0 22.355 9.367 22.534 26.721l.003.529v28.67c0 10.202-6.606 17.369-16.514 17.369-9.601 0-16.04-7.002-16.188-17.015l-.002-.355v-25.376c0-1.292-.583-2.196-1.943-2.196-1.3 0-1.89.827-1.94 2.03l-.003.166v25.376c0 10.203-6.476 17.37-16.125 17.37-9.859 0-16.427-7.004-16.576-17.02l-.003-.35v-38.549c0-10.202 6.67-17.37 16.773-17.37 5.051 0 8.937 1.486 11.592 3.681-3.691 3.68-5.893 7.942-6.67 9.88-.194.516-.324.968-.324 1.678 0 .84.777 1.68 1.684 1.68.971 0 1.684-.582 2.137-1.55 1.619-3.487 3.562-6.716 6.023-9.04 4.21-4.069 9.52-6.329 15.542-6.329ZM268.476 173.205c3.627 3.164 8.613 5.1 14.571 5.1s10.945-1.936 14.507-5.036c1.356 2.46 2.126 5.388 2.196 8.674l.005.495v38.937c0 10.202-6.476 17.305-16.708 17.305-9.986 0-16.62-6.94-16.77-16.955l-.003-.35v-38.937c0-3.487.777-6.586 2.202-9.233Z"/><path fill="#FFF" d="M283.047 141.5c10.75 0 17.227 7.426 17.227 16.53 0 9.234-6.477 16.401-17.227 16.401s-17.291-7.167-17.291-16.4c0-9.105 6.54-16.531 17.291-16.531ZM252.156 155.383c7.966 0 12.564 5.747 12.564 12.14 0 8.07-7.966 15.044-15.413 15.044-2.137 0-2.98-.516-4.145-.516-1.036 0-1.878.775-1.878 1.808 0 1.679 2.72 2.583 6.152 2.583 3.173 0 6.93-1.163 9.455-2.841.518 1.291.777 3.228.777 5.23 0 13.108-14.117 21.308-29.077 21.308-5.893 0-8.678-1.033-10.038-1.033-1.166 0-2.008.775-2.008 1.873 0 .84.648 1.614 1.425 1.872 2.008.646 6.67 1.163 10.62 1.163 5.765 0 14.572-1.808 20.4-5.295 7.837 3.874 11.593 11.558 11.593 21.631 0 15.045-13.665 24.15-36.979 24.15-21.047 0-31.15-5.811-31.15-15.045 0-4.262 2.073-7.426 5.246-9.428 6.8 3.552 15.219 5.166 26.293 5.166 7.706 0 13.211-1.162 15.607-1.808 1.23-.323 1.878-.904 1.878-1.937s-.842-1.873-1.943-1.873l-.175.007c-1.634.118-6.926 1.675-14.895 1.735l-.472.002c-20.206 0-31.539-6.005-31.539-16.272 0-5.295 3.109-9.557 8.16-11.688-5.828-3.551-9.131-9.233-9.131-16.4 0-13.109 12.887-21.568 33.028-21.568 4.468 0 8.678.517 13.405 2.131.13-5.747 4.08-12.14 12.24-12.14Zm-25.71 25.441c-1.36 0-1.943.904-1.943 2.195v9.17c0 1.226.583 2.195 1.943 2.195s1.943-.969 1.943-2.195v-9.17c0-1.291-.583-2.195-1.943-2.195ZM173.342 165.714c9.859 0 16.427 7.004 16.576 17.02l.003.35v38.55c0 10.201-6.67 17.369-16.773 17.369-5.052 0-8.937-1.485-11.592-3.68 3.691-3.681 5.893-7.943 6.67-9.88.194-.517.324-.969.324-1.679 0-.84-.777-1.679-1.684-1.679-.971 0-1.684.581-2.137 1.55-1.62 3.487-3.562 6.715-6.023 9.04-4.21 4.068-9.52 6.328-15.542 6.328-13.336 0-22.355-9.367-22.534-26.721l-.003-.528v-28.67c0-10.202 6.605-17.37 16.514-17.37 9.601 0 16.039 7.002 16.187 17.015l.003.355v25.377c0 1.291.583 2.195 1.943 2.195 1.3 0 1.89-.827 1.94-2.03l.003-.165v-25.377c0-10.202 6.476-17.37 16.125-17.37ZM100.033 143.76c9.922 0 16.554 6.94 16.705 16.955l.003.35v60.31c0 10.202-6.476 17.305-16.708 17.305-9.987 0-16.62-6.94-16.77-16.955l-.003-.35v-60.31c0-10.202 6.67-17.305 16.773-17.305ZM50.102 165.391c17.615 0 29.92 13.238 29.92 36.806 0 23.569-12.305 36.806-29.92 36.806-10.297 0-18.78-6.651-22.342-15.433-.389-.84-1.037-1.291-1.943-1.291-.972 0-1.749.84-1.749 1.937 0 .517.256 1.237.495 1.8l.29.652.282.588c1.467 2.977 5.444 9.624 13.705 13.235l.447.19v.259c-.583 7.555-6.606 13.56-16.514 13.56-9.728 0-16.61-6.306-16.77-15.678L6 238.486v-57.533c0-9.104 6.67-15.562 16.773-15.562 3.303 0 6.476 1.227 8.743 2.906-3.95 3.422-7.642 9.492-7.642 12.075 0 1.098.712 1.937 1.813 1.937.915 0 1.427-.515 1.862-1.544l.081-.2c3.821-9.62 12.11-15.174 22.472-15.174Zm-3.367 24.602c-1.301 0-1.891.827-1.94 2.03l-.003.166v19.5c0 1.227.583 2.196 1.943 2.196 1.3 0 1.89-.887 1.939-2.037l.003-.159v-19.5c0-1.292-.582-2.196-1.942-2.196Z"/></g></svg>
