<?xml version="1.0" encoding="UTF-8"?>
<svg width="448px" height="347px" viewBox="0 0 448 347" version="1.1" xmlns="http://www.w3.org/2000/svg" xmlns:xlink="http://www.w3.org/1999/xlink">
    <!-- Generator: Sketch 62 (91390) - https://sketch.com -->
    <title>logo-plugin-pizza</title>
    <desc>Created with Sketch.</desc>
    <g id="red-or-dead" stroke="none" stroke-width="1" fill="none" fill-rule="evenodd">
        <g id="Tablet" transform="translate(-664.000000, -44.000000)" fill-rule="nonzero">
            <g id="logo-plugin-pizza" transform="translate(664.000000, 26.500000)">
                <g id="slice" transform="translate(196.392774, 100.251483) rotate(-14.000000) translate(-196.392774, -100.251483) translate(114.892774, 17.251483)">
                    <path d="M44.8419288,165.06827 C46.9659482,165.06827 48.920046,164.388583 50.7891831,163.199133 C52.2335162,162.179603 53.6778494,160.820231 55.0372218,159.036055 C57.3311628,155.977467 59.2852606,152.069271 61.2393584,148.330997 C62.938574,144.847605 64.5528287,141.534135 66.337005,139.155233 C66.9317304,138.475547 68.6309459,136.181606 70.4151222,136.181606 C71.8594554,136.181606 72.4541808,136.861292 73.9834748,139.495076 C74.9180433,140.939409 75.8526118,142.553664 77.4668666,143.997997 C79.3360036,145.697213 81.7149053,146.546821 84.5186109,146.546821 C89.4463359,146.546821 92.5049238,143.573193 94.9687863,141.279252 C97.5176096,138.900351 99.1318643,137.456018 102.020531,137.456018 C104.909197,137.456018 112.725588,140.174762 116.039059,141.109331 L155.036055,151.644467 C156.650309,152.069271 158.009682,152.494075 159.199133,152.494075 C160.813387,152.494075 162.342681,151.219663 162.342681,149.435487 C162.342681,148.925722 162.17276,148.330997 161.917877,147.736271 L102.45807,19.8531736 L102.627001,19.6238319 C103.813324,17.959405 104.501756,15.8673018 104.56463,13.2198576 L104.569354,12.81856 C104.569354,5.76681563 98.2822565,0.92405143 90.550826,0.92405143 C83.5840424,0.92405143 75.5977295,4.06760012 68.8858282,7.55099192 C55.5469865,14.6876971 41.6134193,26.3273233 29.7189108,40.5157728 C14.850775,58.1876141 0.237521673,84.9502583 0.237521673,102.6221 C0.237521673,111.033216 4.23067812,116.89551 11.452344,116.89551 C12.981638,116.89551 14.3410104,116.640628 15.5304613,116.130863 L15.9397083,116.486304 C17.8266839,118.168262 19.3965499,120.17546 20.7631407,122.507899 L21.0529117,123.012686 C23.941578,128.450175 25.3009504,134.992155 26.6603228,141.279252 C27.8497737,147.141546 29.0392246,152.748957 31.4181263,156.996996 C32.7774987,159.545819 34.4767142,161.499917 36.6007336,162.774329 C38.8946745,164.303623 41.6983801,165.06827 44.8419288,165.06827 Z" id="Path" fill="#000000"></path>
                    <path d="M107.792719,131.654188 C105.644639,131.117479 103.533894,130.744116 102.020531,130.744116 C96.3281587,130.744116 93.0146885,133.887665 90.3809044,136.436488 C88.0869635,138.645468 86.7275911,139.834919 84.5186109,139.834919 C82.22467,139.834919 81.460023,138.900351 79.7608075,136.011684 C78.9111997,134.652312 77.9766312,133.123018 76.7022196,131.933567 C74.9180433,130.319312 72.8789847,129.554665 70.4151222,129.554665 C66.9317304,129.554665 63.8731425,131.338842 61.0694369,135.162077 C58.8604567,138.050743 57.0762804,141.704056 55.2071434,145.35737 C52.1485555,151.474546 48.7501245,158.356368 44.8419288,158.356368 C41.2735762,158.356368 38.9796353,156.996996 37.195459,153.768486 C35.3263219,150.370055 34.3067926,145.272409 33.2023025,139.91988 C31.8429301,133.462861 30.3136362,126.156234 26.9152052,119.869137 C25.2159897,116.555667 23.0919703,113.836922 20.543147,111.627942 C22.2423625,108.824236 23.4318134,105.170923 24.4513427,101.177766 C28.6144207,84.3555329 36.0060081,72.8008675 48.155399,58.5274572 C60.8995153,43.4044392 73.5586709,34.6534793 91.315473,26.9220487 C93.5244531,25.9025194 95.3935902,25.0529117 97.0928057,24.1183431 L152.827074,144.082958 L132.776331,138.645468 C136.174762,135.756802 138.298782,131.508763 138.298782,126.665999 C138.298782,118.339843 131.331998,111.37306 122.835921,111.37306 C114.339843,111.37306 107.37306,118.339843 107.37306,126.665999 C107.37306,128.450175 107.712903,130.149391 108.222667,131.763646 L107.792719,131.654188 Z" id="Path" fill="#FFFF55"></path>
                    <path d="M11.3673833,110.183609 C7.96895224,110.183609 6.86446216,106.955099 6.86446216,102.792021 C6.86446216,86.22467 21.9025194,60.1417119 34.8165573,44.7638116 C45.0118503,32.6144207 59.0303783,20.2951082 72.0293769,13.4982462 C77.8067097,10.4396583 84.858454,7.63595269 90.3809044,7.63595269 C94.713904,7.63595269 97.8574527,9.59005053 97.8574527,12.7335992 C97.8574527,17.1515595 94.1191785,18.3410104 88.5967281,20.8048729 C78.1465528,25.4777155 60.5596722,33.3790677 43.0577525,54.1944576 C30.1437146,69.572358 22.3273233,81.8067097 17.9943237,99.5635117 C16.5499906,104.83108 15.1056574,110.183609 11.3673833,110.183609 Z" id="Path" fill="#FFD200"></path>
                    <path d="M98.5371389,113.751961 C104.909197,113.751961 111.281255,109.24904 111.281255,103.131864 C111.281255,100.328159 109.836922,98.713904 107.797863,98.713904 C105.928726,98.713904 104.484393,100.328159 104.484393,102.027374 C104.484393,105.340844 101.850609,107.125021 98.6220996,107.125021 C96.4980803,107.125021 94.9687863,106.190452 94.4590216,105.001001 C93.7793354,103.386747 92.7598061,102.282257 91.2305122,102.282257 C89.3613751,102.282257 87.9170419,103.896511 87.9170419,105.595727 C87.9170419,110.183609 93.2695708,113.751961 98.5371389,113.751961 Z" id="Path" fill="#000000"></path>
                    <path d="M107.967785,88.3486894 C111.706059,88.3486894 114.849608,85.2051407 114.849608,81.4668666 C114.849608,77.4737101 111.536138,74.6700045 107.967785,74.6700045 C103.974628,74.6700045 101.085962,77.9834748 101.085962,81.5518273 C101.085962,85.460023 104.399432,88.3486894 107.967785,88.3486894 Z" id="Path" fill="#000000"></path>
                    <path d="M79.3360036,94.550826 C83.0742777,94.550826 86.2178264,91.4072773 86.2178264,87.6690032 C86.2178264,83.6758467 82.9043562,80.8721411 79.3360036,80.8721411 C75.3428472,80.8721411 72.4541808,84.1856114 72.4541808,87.7539639 C72.4541808,91.6621596 75.767651,94.550826 79.3360036,94.550826 Z" id="Path" fill="#000000"></path>
                    <path d="M49.3448499,123.607411 C60.7295938,123.607411 70.2452006,114.176765 70.2452006,102.452178 C70.2452006,91.0674342 60.7295938,81.5518273 49.3448499,81.5518273 C37.6202629,81.5518273 28.1896168,91.0674342 28.1896168,102.452178 C28.1896168,114.176765 37.6202629,123.607411 49.3448499,123.607411 Z" id="Path" fill="#000000"></path>
                    <path d="M49.2598891,116.980471 C41.2735762,116.980471 34.8165573,110.523452 34.8165573,102.537139 C34.8165573,94.7207475 41.2735762,88.2637286 49.2598891,88.2637286 C57.0762804,88.2637286 63.5332994,94.7207475 63.5332994,102.537139 C63.5332994,110.523452 57.0762804,116.980471 49.2598891,116.980471 Z" id="Path" fill="#FF3901"></path>
                    <path d="M122.835921,135.671841 C122.326156,135.671841 121.901352,135.671841 121.391587,135.586881 L119.692372,135.077116 C116.378902,133.802704 114,130.574195 114,126.75096 C114,121.993156 117.993156,118 122.835921,118 C127.678685,118 131.671841,121.993156 131.671841,126.75096 C131.671841,131.678685 127.678685,135.671841 122.835921,135.671841 Z" id="Path" fill="#FF3901"></path>
                    <path d="M89.786179,71.6963774 C99.4717074,71.6963774 107.627942,63.5401429 107.627942,53.5147714 C107.627942,43.829243 99.4717074,35.6730086 89.786179,35.6730086 C79.7608075,35.6730086 71.6045731,43.829243 71.6045731,53.5147714 C71.6045731,63.5401429 79.7608075,71.6963774 89.786179,71.6963774 Z" id="Path" fill="#000000"></path>
                    <path d="M89.7012182,64.9844761 C83.4141208,64.9844761 78.3164743,59.8868296 78.3164743,53.5997322 C78.3164743,47.4825564 83.4141208,42.3849098 89.7012182,42.3849098 C95.8183941,42.3849098 100.916041,47.4825564 100.916041,53.5997322 C100.916041,59.8868296 95.8183941,64.9844761 89.7012182,64.9844761 Z" id="Path" fill="#FF3901"></path>
                </g>
                <path d="M283.047183,153 C296.690038,153 306.273554,162.686033 306.273554,175.530286 C306.273554,177.91651 305.948221,180.185479 305.331466,182.2991 C309.242756,178.878724 314.455375,176.891429 320.478994,176.891429 C325.878001,176.891429 330.666281,178.277524 334.440085,180.854229 L334.814069,181.115861 L335.171,181.377 L335.351152,181.260765 C339.537954,178.584919 344.30799,177.089565 349.415471,176.909807 L349.963981,176.895587 L350.463243,176.891429 C367.723439,176.891429 378.777322,189.563957 379,209.533214 L379,238.810286 C379,252.327493 369.716683,262.18 356.485997,262.18 C348.925102,262.18 342.684317,258.872808 338.76756,253.471545 L338.539851,253.151417 L338.354,252.882 L338.174612,253.14563 C334.424295,258.534587 328.418353,261.927747 321.113814,262.166508 L320.673991,262.177039 L320.284712,262.18 C312.268794,262.18 305.704433,258.596233 301.759212,252.780142 C297.822179,258.61392 291.21569,262.18 283.047183,262.18 C276.732997,262.18 271.311647,260.010894 267.344304,256.299345 C266.550501,258.840721 265.384005,261.179631 263.872644,263.304896 L293.377347,263.304348 C299.932066,263.304348 305.477472,265.904747 309.110455,270.230108 C312.68635,265.986971 318.169511,263.422708 324.607809,263.308342 L325.058531,263.304348 L356.350869,263.304348 C364.842541,263.304348 371.640249,267.668685 374.78037,274.493903 C382.149021,266.752129 394.792051,262 409.152762,262 C432.112703,262 447.686139,276.636186 447.995312,298.635457 L448,299.304348 L448,326.173913 C448,339.079196 438.503917,348.347826 425.22005,348.347826 C420.791763,348.347826 415.942932,346.888758 412.635611,344.405533 L412.31009,344.153812 L412.151,344.023 L411.959798,344.154327 C408.150838,346.70313 403.733313,348.163951 398.726166,348.331584 L398.18743,348.344587 L397.750171,348.347826 C388.406229,348.347826 380.432405,344.246862 375.282945,337.53178 C371.918999,343.3234 365.578157,346.930263 357.882142,347.04086 L357.517043,347.043478 L326.224705,347.043478 C319.670028,347.043478 314.124651,344.443112 310.491667,340.117802 C306.89986,344.379652 301.383921,346.947805 294.908619,347.04086 L294.543521,347.043478 L263.251182,347.043478 C256.093672,347.043478 250.13965,343.942806 246.564999,338.881316 C242.604354,344.561867 236.094422,348.021739 228.071526,348.021739 C217.737455,348.021739 209.805422,342.177846 206.708137,333.260428 C200.455858,342.845438 190.521684,348.347826 178.120254,348.347826 C176.650692,348.347826 175.202862,348.237885 173.784543,348.025021 L173.077879,347.910044 L172.821,347.863 C170.717652,357.226729 162.527874,363.686349 151.586142,363.988898 L151.174544,363.997351 L150.77995,364 C137.748364,364 128.192689,354.978711 128.002879,342.214036 L128,341.826087 L128,283.717391 C128,271.037605 137.530925,262 150.77995,262 C155.078356,262 159.372601,263.451665 162.760019,265.867209 L162.848,265.931 L163.112128,265.781944 C165.938225,264.195854 169.058916,263.083141 172.401354,262.492547 C167.307214,262.371833 162.785663,260.997354 159.186743,258.540056 L158.812759,258.278424 L158.455,258.016 L158.275676,258.133521 C154.088874,260.809367 149.318838,262.30472 144.211357,262.484479 L143.662847,262.498698 L143.163585,262.502857 C133.022127,262.502857 125.023279,258.127912 120.10585,250.468476 C116.448381,257.658325 109.230897,262.18 100.032823,262.18 C89.7149377,262.18 81.7811182,256.388012 78.6799493,247.538392 C72.4275932,257.046205 62.4938176,262.502857 50.1021022,262.502857 C48.5867738,262.502857 47.0943912,262.386756 45.6335328,262.162176 L45.0094056,262.059308 L44.798,262.02 L44.7194982,262.353969 C42.4840302,271.451256 34.367035,277.689585 23.5872323,277.988747 L23.1713183,277.997318 L22.7730462,278 C9.7574708,278 0.192872111,269.055777 0,256.371788 L0,198.453143 C0,185.851807 9.54008716,176.891429 22.7730462,176.891429 C27.0596409,176.891429 31.3447719,178.326287 34.7279539,180.715999 L34.834,180.793 L35.1098621,180.637496 C39.2149699,178.353412 43.9405144,177.060925 49.0625291,176.906992 L49.6552776,176.894292 L50.1021022,176.891429 C61.5935954,176.891429 70.9713011,181.584059 77.2597949,189.847938 L77.2597773,178.565143 C77.2597773,165.023048 86.6369942,155.26 100.032823,155.26 C113.243751,155.26 122.553433,164.841657 122.738305,178.160407 L122.741109,178.565143 L122.740866,182.143118 C126.538977,179.018918 131.478395,177.214286 137.140831,177.214286 C144.701726,177.214286 150.942511,180.521478 154.859268,185.922741 L155.086977,186.242868 L155.272,186.511 L155.452216,186.248656 C159.202533,180.859699 165.208475,177.466538 172.513014,177.227778 L172.952837,177.217247 L173.342116,177.214286 C182.339435,177.214286 189.508005,181.729303 193.196752,188.848264 C199.806486,181.215302 211.705796,176.891429 226.510869,176.891429 C229.329935,176.891429 231.961972,177.081026 234.544065,177.50071 L235.317332,177.633558 L235.458,177.66 L235.550817,177.446413 C238.190298,171.472605 243.859769,167.171379 251.38741,166.896807 L251.792448,166.885963 L252.156145,166.882857 C255.314078,166.882857 258.202958,167.55791 260.71286,168.763895 C263.464765,159.435936 271.926624,153 283.047183,153 Z M309.330171,296.169971 L309.162894,296.463938 C308.376872,297.828852 307.499238,299.241529 306.538485,300.700343 L301.367,308.526 L301.570339,308.589786 C305.108743,309.725687 308.030974,311.667934 310.230406,314.19409 C311.036252,312.7735 311.940017,311.318063 312.927014,309.840061 L313.42738,309.099236 L318.234,302.046 L317.827493,301.903622 C314.343418,300.643111 311.483142,298.673614 309.330171,296.169971 Z M370.135486,299.742379 L369.512007,300.700343 L369.512007,300.700343 L364.34,308.526 L364.543861,308.589786 C366.525748,309.226012 368.314329,310.115206 369.890867,311.218282 C370.483704,308.862879 371.409158,306.684075 372.687404,304.574243 L372.988656,304.088534 L373.141,303.852 L372.848055,303.544286 C371.788859,302.408984 370.8757,301.136382 370.135486,299.742379 Z" id="outline" fill="#000000"></path>
                <path d="M409.152762,268 C428.907752,268 441.74144,280.080798 441.996138,298.737001 L442,299.304348 L442,326.173913 C442,335.630435 435.326893,342.347826 425.22005,342.347826 C421.462378,342.347826 416.992044,340.782609 415.177995,338.630435 C417.963856,335.630435 420.944078,330.608696 422.239828,327.152174 L422.379768,326.719652 C422.545624,326.189565 422.628552,325.834783 422.628552,325.521739 C422.628552,324.347826 421.721528,323.630435 420.814504,323.630435 C420.101842,323.630435 419.38918,323.891304 418.806093,325.26087 C415.04842,334.782609 408.4401,342.347826 397.750171,342.347826 C384.857468,342.347826 375.074563,332.565217 375.074563,318.282609 C375.074563,312.869565 376.499887,309.217391 379.22096,305.630435 C381.747671,307 385.051831,307.652174 387.967266,307.652174 C397.620596,307.652174 404.941578,299.630435 404.941578,291.478261 C404.941578,289.586957 404.228916,288.804348 403.062742,288.804348 C401.896568,288.804348 401.248693,289.456522 401.119119,291.152174 C400.730394,298.586957 394.834736,303.73913 387.902479,303.73913 C380.581497,303.73913 373.973177,299.043478 373.973177,290.76087 C373.973177,277.913043 389.327803,268 409.152762,268 Z M409.73585,307.217391 C408.375313,307.217391 407.792226,308.130435 407.792226,309.434783 L407.792226,309.434783 L407.792226,317.391304 C407.792226,318.630435 408.375313,319.608696 409.73585,319.608696 C411.096386,319.608696 411.679473,318.630435 411.679473,317.391304 L411.679473,317.391304 L411.679473,309.434783 C411.679473,308.130435 411.096386,307.217391 409.73585,307.217391 Z" id="Combined-Shape" fill="#FFFFFF"></path>
                <path d="M356.350869,269.304348 C364.838025,269.304348 370.668896,275.043478 370.668896,283.456522 C370.668896,286.828738 367.893943,292.249425 364.449692,297.47783 L355.31427,311.304348 C353.083328,314.672968 350.022519,317.206214 346.30194,319.646063 L345.790515,319.978261 C345.14264,320.369565 344.753916,320.956522 344.753916,321.73913 C344.753916,322.782609 345.66094,323.565217 346.697539,323.565217 C347.345414,323.565217 348.038279,323.157609 348.626166,322.79529 L348.9651,322.586957 C350.649574,321.543478 355.443845,318.086957 358.61843,313.521739 C367.883036,314.23913 371.899858,320.695652 371.899858,327.413043 C371.899858,335.583725 366.036368,340.898406 357.854577,341.040554 L357.517043,341.043478 L326.224705,341.043478 C317.737549,341.043478 311.906678,335.304348 311.906678,326.891304 C311.906678,323.519088 314.681631,317.974252 318.125882,312.860912 L326.030342,301.26087 C333.156962,301.652174 338.145596,299.956522 340.801881,298.782609 C341.514543,298.456522 342.032843,297.804348 342.032843,296.956522 C342.032843,295.913043 341.190606,295.065217 340.154007,295.065217 C339.700494,295.065217 339.117407,295.26087 338.404745,295.521739 C334.841436,297.021739 331.796425,297.478261 327.455666,297.478261 C315.210838,297.478261 310.675717,290.043478 310.675717,282.934783 C310.675717,274.764101 316.539206,269.44942 324.720997,269.307272 L325.058531,269.304348 L356.350869,269.304348 Z" id="Path" fill="#FFFFFF"></path>
                <path d="M293.377347,269.304348 C301.864503,269.304348 307.695374,275.043478 307.695374,283.456522 C307.695374,286.744433 305.057434,291.97967 301.7332,297.085374 L292.340748,311.304348 C290.109806,314.672968 287.048997,317.206214 283.328418,319.646063 L282.816993,319.978261 C282.169118,320.369565 281.780393,320.956522 281.780393,321.73913 C281.780393,322.782609 282.687418,323.565217 283.724017,323.565217 C284.371891,323.565217 285.064757,323.157609 285.652643,322.79529 L285.991578,322.586957 C287.676051,321.543478 292.470323,318.086957 295.644908,313.521739 C304.909513,314.23913 308.926335,320.695652 308.926335,327.413043 C308.926335,335.583725 303.062846,340.898406 294.881055,341.040554 L294.543521,341.043478 L263.251182,341.043478 C254.764026,341.043478 248.933156,335.304348 248.933156,326.891304 C248.933156,323.519088 251.708109,317.974252 255.15236,312.860912 L263.05682,301.26087 C270.18344,301.652174 275.172073,299.956522 277.828359,298.782609 C278.541021,298.456522 279.05932,297.804348 279.05932,296.956522 C279.05932,295.913043 278.217084,295.065217 277.180484,295.065217 C276.726972,295.065217 276.143885,295.26087 275.431223,295.521739 C271.867913,297.021739 268.822903,297.478261 264.482144,297.478261 C252.237316,297.478261 247.702194,290.043478 247.702194,282.934783 C247.702194,274.764101 253.565683,269.44942 261.747474,269.307272 L262.085008,269.304348 L293.377347,269.304348 Z" id="Path" fill="#FFFFFF"></path>
                <path d="M244.786688,274.849591 L244.786688,324.543478 C244.786688,334.847826 238.307943,342.021739 228.071526,342.021739 C218.080854,342.021739 211.445435,335.011796 211.294216,324.897554 L211.291576,324.543478 L211.291576,276.204544 C214.696641,276.91389 220.279159,277.268563 228.039132,277.268563 C234.381835,277.177202 239.787137,276.428196 244.25504,275.021546 L244.786688,274.849591 Z" id="Path" fill="#FFFFFF"></path>
                <path d="M178.120254,268 C195.742441,268 208.052056,281.369565 208.052056,305.173913 C208.052056,328.978261 195.742441,342.347826 178.120254,342.347826 C167.819049,342.347826 159.331893,335.630435 155.768583,326.76087 C155.379859,325.913043 154.731984,325.456522 153.82496,325.456522 C152.853148,325.456522 152.075699,326.304348 152.075699,327.413043 C152.075699,327.934783 152.331649,328.662641 152.570536,329.230184 L152.86148,329.88946 C154.054414,332.497424 157.987989,339.938255 166.853361,343.850829 L167.30075,344.043478 L167.30075,344.304348 C166.717663,351.934783 160.69243,358 150.77995,358 C141.048112,358 134.163515,351.630811 134.002872,342.165447 L134,341.826087 L134,283.717391 C134,274.521739 140.673107,268 150.77995,268 C154.08411,268 157.258695,269.23913 159.526256,270.934783 C155.574221,274.391304 151.881336,280.521739 151.881336,283.130435 C151.881336,284.23913 152.593998,285.086957 153.695385,285.086957 C154.610031,285.086957 155.122951,284.567023 155.558225,283.527155 L155.639009,283.326087 C159.461468,273.608696 167.754262,268 178.120254,268 Z M174.751307,292.847826 C173.39077,292.847826 172.807683,293.76087 172.807683,295.065217 L172.807683,295.065217 L172.807683,314.76087 C172.807683,316 173.39077,316.978261 174.751307,316.978261 C176.111843,316.978261 176.69493,316 176.69493,314.76087 L176.69493,314.76087 L176.69493,295.065217 C176.69493,293.76087 176.111843,292.847826 174.751307,292.847826 Z" id="Combined-Shape" fill="#FFFFFF"></path>
                <path d="M350.463243,182.891429 C363.798786,182.891429 372.818229,192.257824 372.997285,209.612237 L373,210.140571 L373,238.810286 C373,249.012571 366.394399,256.18 356.485997,256.18 C346.884832,256.18 340.446842,249.178287 340.29842,239.164942 L340.295798,238.810286 L340.295798,213.433714 C340.295798,212.142286 339.712951,211.238286 338.352974,211.238286 C337.052127,211.238286 336.462302,212.065386 336.413471,213.267507 L336.41015,213.433714 L336.41015,238.810286 C336.41015,249.012571 329.934071,256.18 320.284712,256.18 C310.426183,256.18 303.858246,249.176393 303.708561,239.16088 L303.705948,238.810286 L303.705948,200.261143 C303.705948,190.058857 310.37631,182.891429 320.478994,182.891429 C325.530336,182.891429 329.415984,184.376571 332.071177,186.572 C328.379811,190.252571 326.177944,194.514286 325.400815,196.451429 C325.206532,196.968 325.077011,197.42 325.077011,198.130286 C325.077011,198.969714 325.85414,199.809143 326.760791,199.809143 C327.732203,199.809143 328.444572,199.228 328.897898,198.259429 C330.516918,194.772571 332.459742,191.544 334.920652,189.219429 C339.130104,185.151429 344.440489,182.891429 350.463243,182.891429 Z" id="Path" fill="#FFFFFF"></path>
                <path d="M268.476003,190.704571 C272.102608,193.868571 277.089189,195.805714 283.047183,195.805714 C289.005176,195.805714 293.991757,193.868571 297.553601,190.769143 C298.910494,193.229007 299.679987,196.157416 299.750195,199.442813 L299.755468,199.938286 L299.755468,238.874857 C299.755468,249.077143 293.279388,256.18 283.047183,256.18 C273.060621,256.18 266.427931,249.239489 266.276775,239.225426 L266.274136,238.874857 L266.274136,199.938286 C266.274136,196.451429 267.051266,193.352 268.476003,190.704571 Z" id="Path" fill="#FFFFFF"></path>
                <path d="M283.047183,159 C293.797475,159 300.273554,166.425714 300.273554,175.530286 C300.273554,184.764 293.797475,191.931429 283.047183,191.931429 C272.29689,191.931429 265.75605,184.764 265.75605,175.530286 C265.75605,166.425714 272.29689,159 283.047183,159 Z" id="Path" fill="#FFFFFF"></path>
                <path d="M252.156145,172.882857 C260.121723,172.882857 264.719739,178.629714 264.719739,185.022286 C264.719739,193.093714 256.754161,200.067429 249.30667,200.067429 C247.169563,200.067429 246.327673,199.550857 245.161979,199.550857 C244.125806,199.550857 243.283916,200.325714 243.283916,201.358857 C243.283916,203.037714 246.003869,203.941714 249.436191,203.941714 C252.60947,203.941714 256.365596,202.779429 258.891267,201.100571 C259.409354,202.392 259.668397,204.329143 259.668397,206.330857 C259.668397,219.438857 245.550543,227.639429 230.590799,227.639429 C224.697567,227.639429 221.912853,226.606286 220.552876,226.606286 C219.387182,226.606286 218.545291,227.381143 218.545291,228.478857 C218.545291,229.318286 219.192899,230.093143 219.970029,230.351429 C221.977614,230.997143 226.640391,231.513714 230.590799,231.513714 C236.35451,231.513714 245.161979,229.705714 250.99045,226.218857 C258.826507,230.093143 262.582633,237.777143 262.582633,247.850286 C262.582633,262.895429 248.918105,272 225.604218,272 C204.556959,272 194.454275,266.188571 194.454275,256.954857 C194.454275,252.693143 196.526621,249.529143 199.6999,247.527429 C206.499783,251.078857 214.918687,252.693143 225.992783,252.693143 C233.699318,252.693143 239.203985,251.530857 241.600135,250.885143 C242.83059,250.562286 243.478198,249.981143 243.478198,248.948 C243.478198,247.914857 242.636308,247.075429 241.535374,247.075429 L241.360073,247.082426 C239.72604,247.199877 234.433555,248.757231 226.464623,248.817086 L225.992783,248.818857 C205.787415,248.818857 194.454275,242.813714 194.454275,232.546857 C194.454275,227.252 197.562793,222.990286 202.614136,220.859429 C196.785664,217.308 193.482863,211.625714 193.482863,204.458286 C193.482863,191.350286 206.370262,182.891429 226.510869,182.891429 C230.979364,182.891429 235.188816,183.408 239.916354,185.022286 C240.045876,179.275429 243.996284,172.882857 252.156145,172.882857 Z M226.446109,198.324 C225.086132,198.324 224.503285,199.228 224.503285,200.519429 L224.503285,200.519429 L224.503285,209.688571 C224.503285,210.915429 225.086132,211.884 226.446109,211.884 C227.806085,211.884 228.388932,210.915429 228.388932,209.688571 L228.388932,209.688571 L228.388932,200.519429 C228.388932,199.228 227.806085,198.324 226.446109,198.324 Z" id="Combined-Shape" fill="#FFFFFF"></path>
                <path d="M173.342116,183.214286 C183.200645,183.214286 189.768582,190.217893 189.918267,200.233406 L189.92088,200.584 L189.92088,239.133143 C189.92088,249.335429 183.250518,256.502857 173.147834,256.502857 C168.096492,256.502857 164.210844,255.017714 161.555651,252.822286 C165.247017,249.141714 167.448884,244.88 168.226013,242.942857 C168.420296,242.426286 168.549817,241.974286 168.549817,241.264 C168.549817,240.424571 167.772688,239.585143 166.866036,239.585143 C165.894624,239.585143 165.182256,240.166286 164.72893,241.134857 C163.10991,244.621714 161.167086,247.850286 158.706176,250.174857 C154.496724,254.242857 149.186339,256.502857 143.163585,256.502857 C129.828042,256.502857 120.808599,247.136461 120.629543,229.782049 L120.626828,229.253714 L120.626828,200.584 C120.626828,190.381714 127.232429,183.214286 137.140831,183.214286 C146.741996,183.214286 153.179986,190.215999 153.328408,200.229344 L153.33103,200.584 L153.33103,225.960571 C153.33103,227.252 153.913877,228.156 155.273854,228.156 C156.574701,228.156 157.164526,227.3289 157.213356,226.126779 L157.216678,225.960571 L157.216678,200.584 C157.216678,190.381714 163.692757,183.214286 173.342116,183.214286 Z" id="Path" fill="#FFFFFF"></path>
                <path d="M100.032823,161.26 C109.955368,161.26 116.587322,168.200511 116.73847,178.214574 L116.741109,178.565143 L116.741109,238.874857 C116.741109,249.077143 110.265029,256.18 100.032823,256.18 C90.0462621,256.18 83.4135724,249.239489 83.2624162,239.225426 L83.2597773,238.874857 L83.2597773,178.565143 C83.2597773,168.362857 89.9301393,161.26 100.032823,161.26 Z" id="Path" fill="#FFFFFF"></path>
                <path d="M50.1021022,182.891429 C67.7170388,182.891429 80.0215901,196.128571 80.0215901,219.697143 C80.0215901,243.265714 67.7170388,256.502857 50.1021022,256.502857 C39.8051356,256.502857 31.3214713,249.852 27.7596275,241.070286 C27.3710628,240.230857 26.7234548,239.778857 25.8168036,239.778857 C24.8453917,239.778857 24.0682621,240.618286 24.0682621,241.716 C24.0682621,242.232571 24.3241073,242.95322 24.562896,243.515142 L24.85372,244.167888 L25.1347088,244.756469 C26.6019687,247.732898 30.578915,254.379784 38.8398447,257.990973 L39.2870493,258.181714 L39.2870493,258.44 C38.7042021,265.994857 32.681448,272 22.7730462,272 C13.0452127,272 6.16344818,265.693896 6.00287072,256.322284 L6,255.986286 L6,198.453143 C6,189.348571 12.670362,182.891429 22.7730462,182.891429 C26.0758468,182.891429 29.2491258,184.118286 31.5157537,185.797143 C27.5653451,189.219429 23.8739798,195.289143 23.8739798,197.872 C23.8739798,198.969714 24.5863485,199.809143 25.6872821,199.809143 C26.6015521,199.809143 27.1142604,199.294359 27.549356,198.264791 L27.6301059,198.065714 C31.4509929,188.444571 39.7403748,182.891429 50.1021022,182.891429 Z M46.7345408,207.493143 C45.4336935,207.493143 44.8438684,208.320243 44.7950383,209.522364 L44.7917169,209.688571 L44.7917169,229.189143 C44.7917169,230.416 45.3745641,231.384571 46.7345408,231.384571 C48.0353881,231.384571 48.6252133,230.498393 48.6740434,229.347645 L48.6773647,229.189143 L48.6773647,209.688571 C48.6773647,208.397143 48.0945175,207.493143 46.7345408,207.493143 Z" id="Shape" fill="#FFFFFF"></path>
            </g>
        </g>
    </g>
</svg>