<svg xmlns="http://www.w3.org/2000/svg" width="131" height="24"><g fill="#FEB903" fill-rule="nonzero"><path d="m20.262 24-3.516-9.277L24 9.202h-8.607L12 0 8.582 9.202H0l7.254 5.521L3.762 24 12 17.733zM47.262 24l-3.516-9.277L51 9.202h-8.607L39 0l-3.418 9.202H27l7.254 5.521L30.762 24 39 17.733zM74.262 24l-3.516-9.277L78 9.202h-8.607L66 0l-3.418 9.202H54l7.254 5.521L57.762 24 66 17.733zM100.262 24l-3.516-9.277L104 9.202h-8.607L92 0l-3.418 9.202H80l7.254 5.521L83.762 24 92 17.733zM127.262 24l-3.516-9.277L131 9.203h-8.607L119 0l-3.418 9.202H107l7.254 5.521L110.762 24 119 17.733 127.262 24Zm-2.483-3.333L119 16.29V3.333l2.582 7.038h5.975l-5.188 3.954 2.41 6.342Z"/></g></svg>
