<svg xmlns="http://www.w3.org/2000/svg" width="97" height="16"><g fill="#FEB903" fill-rule="evenodd"><path d="M8.539 12.809 3.52 15.447l.958-5.589L.418 5.9l5.611-.815L8.539 0l2.51 5.085 5.611.815-4.06 3.958.958 5.589zM28.539 12.809l-5.019 2.638.958-5.589-4.06-3.958 5.611-.815L28.539 0l2.51 5.085 5.611.815-4.06 3.958.958 5.589zM48.539 12.809l-5.019 2.638.958-5.589-4.06-3.958 5.611-.815L48.539 0l2.51 5.085 5.611.815-4.06 3.958.958 5.589zM68.539 12.809l-5.019 2.638.958-5.589-4.06-3.958 5.611-.815L68.539 0l2.51 5.085 5.611.815-4.06 3.958.958 5.589z"/><path stroke="#FEB903" d="m88.54 12.244-4.356 2.29.832-4.85-3.524-3.435 4.87-.707 2.177-4.412 2.178 4.412 4.869.707-3.524 3.435.832 4.85-4.355-2.29Z"/></g></svg>
