<svg width="43" height="43" xmlns="http://www.w3.org/2000/svg"><path d="M21.5 43c3.92 0 7.517-.966 10.792-2.897a21.758 21.758 0 0 0 7.81-7.811C42.035 29.017 43 25.419 43 21.5c0-3.92-.966-7.517-2.897-10.792a21.758 21.758 0 0 0-7.811-7.81C29.017.965 25.419 0 21.5 0c-3.92 0-7.517.966-10.792 2.897a21.758 21.758 0 0 0-7.81 7.811C.965 13.983 0 17.581 0 21.5c0 3.92.966 7.517 2.897 10.792a21.758 21.758 0 0 0 7.811 7.81C13.983 42.035 17.581 43 21.5 43Zm0-2.184c-3.527 0-6.76-.867-9.7-2.603A19.578 19.578 0 0 1 4.787 31.2c-1.736-2.94-2.603-6.173-2.603-9.7 0-3.527.867-6.76 2.603-9.7A19.578 19.578 0 0 1 11.8 4.787c2.94-1.736 6.173-2.603 9.7-2.603 3.527 0 6.76.867 9.7 2.603a19.578 19.578 0 0 1 7.013 7.013c1.736 2.94 2.603 6.173 2.603 9.7 0 3.527-.867 6.76-2.603 9.7a19.578 19.578 0 0 1-7.013 7.013c-2.94 1.736-6.173 2.603-9.7 2.603Zm-4.283-8.986 3.527-11.254-2.435-6.55-1.848-.169c-.28 0-.462-.196-.546-.587a2.393 2.393 0 0 1 .042-1.176c.112-.392.336-.588.672-.588l1.596.168c1.231.056 2.211.084 2.94.084.727 0 1.707-.028 2.939-.084l1.595-.168c.336 0 .56.196.672.588.112.392.126.784.042 1.176-.084.391-.266.587-.546.587l-.42.168a4.262 4.262 0 0 1-1.176.168l5.795 16.125.224-.569c.374-.964.747-2.006 1.12-3.126.896-2.743 1.344-4.703 1.344-5.879 0-1.96-.336-3.555-1.008-4.787l-.252-.252c-.504-.84-.84-1.484-1.008-1.932-.336-.671-.504-1.287-.504-1.847 0-1.064.364-1.876 1.092-2.436.616-.504 1.288-.728 2.016-.672-1.512-1.4-3.276-2.491-5.291-3.275A17.228 17.228 0 0 0 21.5 4.367c-2.967 0-5.71.7-8.23 2.1a18.173 18.173 0 0 0-6.215 5.627H8.23c.728 0 1.708-.028 2.94-.084l1.596-.084c.336 0 .574.168.713.504.14.336.154.686.042 1.05-.111.363-.307.545-.587.545l-2.268.168 6.55 17.637Zm12.933 4.62c2.576-1.513 4.634-3.598 6.173-6.258a16.891 16.891 0 0 0 2.31-8.608c0-3.08-.672-5.85-2.016-8.314.168 1.4.196 2.799.084 4.199a17.082 17.082 0 0 1-.588 2.94l-.336 1.091-5.627 14.95Zm-16.209.671L5.795 14.53c-.952 2.072-1.428 4.395-1.428 6.971 0 3.36.882 6.439 2.646 9.238 1.763 2.8 4.073 4.927 6.928 6.383Zm7.559 1.512a15.01 15.01 0 0 0 5.207-.924l-4.955-13.438-4.703 13.69c1.512.448 2.995.672 4.451.672Z" fill="#006732" fill-rule="nonzero"/></svg>
